<?xml version="1.0" encoding="UTF-8"?>
<svg width="197px" height="37px" viewBox="0 0 197 37" version="1.1" xmlns="http://www.w3.org/2000/svg" xmlns:xlink="http://www.w3.org/1999/xlink">
    <title>6BA7066A-DF99-492E-A42D-BC5AE6AAE420</title>
    <defs></defs>
    <g id="Page-1" stroke="none" stroke-width="1" fill="none" fill-rule="evenodd">
        <g id="Artboard-Copy-5" transform="translate(-60.000000, -58.000000)" fill="#fff">
            <g id="logo_utlandia" transform="translate(60.705349, 58.968750)">
                <path d="M157.781843,34.7145786 L165.177455,34.7145786 L165.177455,11.3419021 L157.781843,11.3419021 L157.781843,34.7145786 Z M165.966465,4.48728107 C165.966465,7.00157218 163.994715,8.97487216 161.478874,8.97487216 C158.964583,8.97487216 156.992833,7.00157218 156.992833,4.48728107 C156.992833,1.97298996 158.964583,-0.000310023564 161.478874,-0.000310023564 C163.994715,-0.000310023564 165.966465,1.97298996 165.966465,4.48728107 Z" id="Fill-1"></path>
                <path d="M138.702372,16.8390849 C135.408372,16.8390849 132.87548,19.0681543 132.87548,23.1232626 C132.87548,26.9737552 135.459526,29.2043748 138.702372,29.2043748 C141.945219,29.2043748 144.530816,26.9737552 144.530816,23.1232626 C144.530816,19.0681543 141.996373,16.8390849 138.702372,16.8390849 M137.124353,10.8416791 C141.241465,10.8044762 143.597645,13.380772 144.273496,14.6363675 L144.273496,0.190819504 L151.670658,0.190819504 L151.670658,34.707293 L144.519965,34.707293 L144.519965,31.602407 C142.991549,33.6237607 140.477257,35.2002305 137.370821,35.2002305 C130.812273,35.2002305 125.78214,30.5653782 125.78214,23.1201623 C125.78214,15.6749464 130.91148,10.8990334 137.124353,10.8416791" id="Fill-3"></path>
                <polygon id="Fill-4" points="54.8803713 34.7083781 62.2759835 34.7083781 62.2759835 0.191904586 54.8803713 0.191904586"></polygon>
                <path d="M79.46493,16.814593 C76.3615941,16.814593 73.6147853,19.0529632 73.6147853,23.1235726 C73.6147853,26.9384125 76.412748,29.2279366 79.46493,29.2279366 C82.9759468,29.2279366 85.569294,26.9895664 85.569294,23.1235726 C85.569294,19.0018093 82.9759468,16.814593 79.46493,16.814593 M78.1535303,10.8419891 C81.359174,10.8419891 84.07033,12.4184589 85.3026737,14.3902088 L85.3026737,11.3349265 L92.6998359,11.3349265 L92.6998359,34.7076031 L85.5491424,34.7076031 L85.5491424,31.3562483 C84.0207263,33.576017 81.5560389,35.2005405 78.399999,35.2005405 C71.6941893,35.2005405 66.5648495,30.615292 66.5648495,23.1204723 C66.5648495,15.6737063 71.8910543,10.8419891 78.1535303,10.8419891" id="Fill-5"></path>
                <path d="M98.4177555,34.7079131 L98.4177555,11.3352366 L105.813368,11.3352366 L105.813368,14.6338873 C107.244126,12.5133261 109.907229,10.8422991 112.717592,10.8422991 C118.042247,10.8422991 121.347098,14.0463926 121.347098,19.4222012 L121.347098,34.7079131 L113.949936,34.7079131 L113.949936,21.1474824 C113.949936,18.4363263 112.42152,16.6211383 110.004886,16.6211383 C107.440991,16.6211383 105.813368,18.445627 105.813368,21.7985319 L105.813368,34.7079131 L98.4177555,34.7079131 Z" id="Fill-6"></path>
                <path d="M182.8736,16.8096327 C179.767164,16.8096327 177.018805,19.0495529 177.018805,23.1232626 C177.018805,26.9412027 179.818318,29.2322769 182.8736,29.2322769 C186.386167,29.2322769 188.984164,26.9923566 188.984164,23.1232626 C188.984164,18.9999491 186.386167,16.8096327 182.8736,16.8096327 M181.594753,10.8416791 C184.800396,10.8416791 187.511552,12.4181489 188.743896,14.3898987 L188.743896,11.3346165 L196.141058,11.3346165 L196.141058,34.707293 L188.991915,34.707293 L188.991915,31.3559383 C187.461949,33.575707 184.997261,35.2002305 181.841221,35.2002305 C175.135412,35.2002305 170.007622,30.614982 170.007622,23.1201623 C170.007622,15.6749464 175.332277,10.8416791 181.594753,10.8416791" id="Fill-7"></path>
                <path d="M7.38646643,11.3357016 L7.38646643,23.1258978 C7.38646643,26.7593739 8.77847223,28.7481751 11.6756424,28.7481751 C14.5743628,28.7481751 15.9772194,26.7593739 15.9772194,23.1258978 L15.9772194,11.3357016 L23.35268,11.3357016 L23.35268,23.3754667 C23.35268,30.4827569 18.919343,35.219917 11.6756424,35.219917 C4.43349198,35.219917 0.000155011782,30.4827569 0.000155011782,23.3754667 L0.000155011782,11.3357016 L7.38646643,11.3357016 Z" id="Fill-9"></path>
                <path d="M43.8447726,25.707619 C43.2867301,27.6902197 41.9675799,28.7474 39.8547693,28.7474 C37.0692076,28.7474 35.6787519,26.9043099 35.574894,23.5359039 L35.574894,17.2517263 L47.5418036,17.2517263 L47.5418036,11.3349265 L35.574894,11.3349265 L35.574894,3.39677318 L28.1777317,3.39677318 L28.1777317,11.3364767 L28.1777317,22.3702153 L28.1777317,23.3762418 C28.1777317,30.4819819 32.6110687,35.2191419 39.8547693,35.2191419 C46.2738072,35.2191419 50.4854773,31.5004093 51.3612939,25.707619 L43.8447726,25.707619 Z" id="Fill-10"></path>
            </g>
        </g>
    </g>
</svg>