<?xml version="1.0" encoding="UTF-8"?>
<svg width="667px" height="796px" viewBox="0 0 667 796" version="1.1" xmlns="http://www.w3.org/2000/svg" xmlns:xlink="http://www.w3.org/1999/xlink">
    <!-- Generator: sketchtool 51.3 (57544) - http://www.bohemiancoding.com/sketch -->
    <title>E7F4598D-3FAB-4145-8975-640286B517AD</title>
    <desc>Created with sketchtool.</desc>
    <defs>
        <polygon id="path-1" points="0.677399127 0.506142713 424.132819 0.506142713 424.132819 234.402136 0.677399127 234.402136"></polygon>
    </defs>
    <g id="Page-1" stroke="none" stroke-width="1" fill="none" fill-rule="evenodd">
        <g id="Main-#6" transform="translate(-629.000000, -182.000000)">
            <g id="Group-44" transform="translate(627.625465, 182.176629)">
                <path d="M225.611863,20.2697648 C222.629009,20.2697648 219.955245,21.4691976 218.00497,23.4167372 C221.79474,23.2307362 225.506554,23.9774754 225.529804,27.6482593 C225.572201,35.0144448 214.799189,38.3843448 214.799189,38.3843448 L214.799189,55.5073754 L225.58998,55.5073754 L225.58998,42.0072607 C231.767674,42.0072607 236.393081,37.1507207 236.393081,31.149454 L236.393081,31.0714977 C236.393081,25.1044224 231.591247,20.2697648 225.611863,20.2697648" id="Fill-92" fill="#F7787A"></path>
                <path d="M225.529393,27.6475754 C225.506143,23.9781592 221.79433,23.2300524 218.005928,23.417421 C217.985413,23.417421 217.964898,23.4187886 217.944383,23.4187886 C215.984535,25.3676959 214.798778,28.0770189 214.798778,31.0721816 L214.798778,38.3836609 C214.798778,38.3836609 225.573158,35.013761 225.529393,27.6475754" id="Fill-94" fill="#FA3D21"></path>
                <path d="M236.498664,29.8132559 L214.799462,29.8132559 C214.837757,26.8905788 219.687458,19.0101553 225.664107,19.0101553 C231.648962,19.0101553 236.46037,26.8905788 236.498664,29.8132559" id="Fill-96" fill="#004AFF"></path>
                <path d="M216.711716,214.904738 C217.0126,216.662173 218.489667,218.022989 220.13222,218.689037 C221.785714,219.364658 223.59512,219.4686 225.373071,219.5616 C230.499038,219.821454 235.655095,221.558375 240.584121,219.510997 C241.82048,218.989921 242.902294,217.868444 242.963839,216.526775 C243.026751,214.988164 241.799965,213.729923 240.573179,212.804021 C238.650258,211.35841 235.404814,210.73476 235.311814,208.416586 C235.250269,206.950461 239.834646,202.583541 240.770122,201.254181 C241.757568,199.860541 242.859897,198.373901 244.004624,196.824349 L223.532208,196.824349 C221.015724,202.022803 215.995066,210.912555 216.711716,214.904738" id="Fill-100" fill="#004AFF"></path>
                <g id="Group-18" transform="translate(174.175453, 0.108908)">
                    <path d="M119.923608,211.510861 C94.5796084,206.458746 68.65162,204.333411 42.8221027,205.192298 C38.9160823,205.322225 34.8746641,205.554727 31.3926165,207.329942 C27.9105689,209.106525 25.1273926,212.849794 25.699072,216.71752 C26.5223999,222.28524 33.0844047,224.712827 38.6028895,225.820627 C63.4736811,230.813932 89.2074626,231.474509 114.30255,227.765431 C116.400531,227.456341 118.561425,227.091177 120.348949,225.950554 C126.110876,222.275667 122.609681,211.223653 115.782351,211.536846 L119.923608,211.510861 Z" id="Fill-66" fill="#FEFEFE"></path>
                    <path d="M90.5978199,126.16199 C88.8185018,126.508006 87.0432866,126.869067 85.2776451,127.261584 C76.2388184,129.267932 67.3600073,131.892461 58.505814,134.593578 C61.764934,144.418806 61.721169,155.422951 59.7025114,165.689932 C57.7371924,175.682013 54.0664085,185.195416 50.3026241,194.61445 C50.0646523,195.206645 49.7418859,195.913722 49.3562074,196.715167 L69.8286232,196.715167 C72.8757567,192.587587 76.2224066,188.075696 78.3750943,184.072572 C82.8664707,175.713469 87.0979928,166.979629 89.1453711,157.767111 C89.5720792,155.866071 89.8921103,153.936311 90.110935,151.986036 C91.6249282,153.785869 92.9939501,155.726571 94.2166329,157.767111 C96.7426902,161.968544 98.6450972,166.604892 99.9142803,171.304152 C102.159969,179.570254 102.742589,188.127666 102.867046,196.715167 L118.763291,196.715167 C119.148969,194.001741 119.62628,191.318404 119.980503,188.563948 C121.374142,177.771789 123.805832,166.647289 120.719036,155.907101 C116.687191,141.892748 104.018611,131.966314 90.5978199,126.16199" id="Fill-98" fill="#FA3D21"></path>
                    <path d="M127.351885,214.992771 C127.051002,213.433646 125.865245,212.186345 124.596062,211.219414 C119.449579,207.30929 117.7236,209.191182 118.181764,202.121778 C118.306221,200.290489 118.514104,198.502965 118.764385,196.715441 L102.866772,196.715441 C102.929684,200.665226 102.887287,204.616379 102.866772,208.547017 C102.857199,211.05256 103.013111,215.980218 104.956548,217.561226 C106.244878,218.611584 108.002314,218.808527 109.657175,218.964439 C112.879369,219.25575 128.56773,221.147215 127.351885,214.992771" id="Fill-102" fill="#004AFF"></path>
                    <path d="M110.508267,142.030334 C94.6872427,148.28872 78.8662189,154.548473 63.0547687,160.806859 C61.8484977,161.285538 60.5670057,161.775158 59.284146,161.600098 C57.7633145,161.393583 56.5242198,160.307665 55.4054787,159.253204 C40.224517,145.018659 29.0220615,133.750556 22.4477477,114.0071 C19.2529075,104.389755 17.7539585,94.163805 18.2750347,84.0376932 C18.5581392,78.5274144 20.0899119,73.3016077 21.8391416,68.1072571 C22.8717205,65.0532852 26.5110483,58.9685917 25.7520003,55.7190453 C7.27909493,50.3304877 2.17090648,39.322239 0.911296962,35.454513 C0.661016243,34.7036708 1.08498905,33.8994901 1.83446355,33.6724595 C2.58393805,33.4440613 3.44282489,33.1718981 3.79020906,33.0310297 C10.8418341,30.2916183 20.2526627,30.3135008 27.7501431,30.1302351 C40.193061,29.8361895 52.1668735,32.6727043 62.7402082,39.366004 C71.6614166,45.0062099 79.2136031,52.4599253 85.4938712,60.9571609 C87.6561325,63.8579555 89.6556429,66.8791036 91.514285,69.9987228 C94.7310077,75.3653979 97.5128163,81.0056039 99.8815934,86.7647957 C100.011521,87.0793562 100.164698,87.4486228 100.337022,87.8944781 C100.945628,89.437192 101.804515,91.7526306 102.826153,94.5891454 C108.704331,111.050231 117.539377,139.248526 110.508267,142.030334" id="Fill-104" fill="#FA3D21"></path>
                    <path d="M162.642424,41.8756494 C162.063906,37.099801 160.246294,32.7944255 157.654589,28.8624197 C153.626848,18.4176445 144.890273,10.3224993 134.04204,7.17279168 C128.152921,3.0629908 121.653828,-0.457351118 114.684262,0.396065105 C110.966978,0.850126301 107.510916,2.54328221 104.332487,4.52227784 C89.1433197,13.9850773 78.6629855,32.3622468 82.3406076,49.8764265 C84.2594265,59.0205625 89.2937616,65.8246422 95.9241492,70.3885043 C104.763298,82.9203197 121.703063,87.9628608 146.259295,72.4413532 C156.57004,65.9231133 164.10855,53.9848598 162.642424,41.8756494" id="Fill-106" fill="#FEFEFE"></path>
                    <path d="M131.742739,23.4824784 C128.699709,22.8095925 125.528119,24.330424 123.30021,26.525509 C121.147522,28.6440053 119.670456,31.3492253 118.018329,33.8916945 C117.974564,33.9682831 117.921226,34.0339305 117.877461,34.1105192 C102.736161,57.2539636 76.9873356,59.7020646 51.4805847,58.5956324 C47.0849441,58.4055284 42.3665371,58.1183211 38.6218998,60.4296567 C36.0178862,62.0352827 34.2235239,64.7637528 33.3660047,67.7001064 C30.8796094,76.2055479 36.2517551,85.5329496 43.8996774,90.0106494 C51.5489674,94.4869816 60.8626925,95.0395139 69.7045769,94.4541579 C88.4291306,93.2164309 99.762881,84.3827524 110.901057,69.8924561 C116.128231,63.0801705 120.430871,55.5703813 123.669476,47.6270457 C124.537937,45.4976081 125.374941,43.2696994 126.40752,41.1840267 C127.635674,38.66344 129.145564,36.3480015 131.340649,34.6315954 C132.959951,33.3706182 134.981344,32.3927455 135.851172,30.5354711 C137.154547,27.6989563 134.78577,24.1676731 131.742739,23.4824784" id="Fill-108" fill="#FA3D21"></path>
                    <path d="M135.850352,30.5350608 C134.981891,32.3923352 132.959131,33.3715756 131.341196,34.6311851 C129.146111,36.3475912 127.634853,38.6630297 126.408067,41.1836164 L118.018876,33.8926519 C119.669635,31.3501827 121.148069,28.643595 123.299389,26.5250987 C125.527298,24.3300137 128.700256,22.8091822 131.743286,23.4820681 C134.784949,24.1672628 137.155094,27.698546 135.850352,30.5350608" id="Fill-110" fill="#F7787A"></path>
                </g>
                <g id="Group-24" transform="translate(0.829303, 243.905900)">
                    <path d="M18.7506509,151.53986 C14.5163935,153.786916 10.1111793,155.787794 5.6170676,157.57395 C3.09784856,158.581911 0.0589209181,160.309259 0.621026796,162.728639 C0.852160356,163.750277 1.7438709,164.572237 2.66566983,165.219137 C7.38817979,168.590405 13.3210637,169.337144 19.4276397,168.762729 C17.7276456,163.218259 17.5115562,157.227934 18.7506509,151.53986" id="Fill-1" fill="#FA3D21"></path>
                    <path d="M116.026971,1.50190256 C112.103171,2.91468935 108.957566,6.80703322 109.216053,10.968805 C109.473172,15.1319444 113.804533,18.8040959 117.825436,17.6949283 C120.339185,17.0028953 122.170474,14.7845602 123.246817,12.4103125 C124.845605,8.88449995 124.909885,4.24268159 122.07337,1.60721194 C119.239591,-1.02825771 113.365516,0.491206106 113.277986,4.3616675 L116.026971,1.50190256 Z" id="Fill-20" fill="#FA3D21"></path>
                    <g id="Group-23" transform="translate(17.612710, 16.685726)">
                        <g id="Group-5" transform="translate(225.015138, 300.421102)">
                            <mask id="mask-2" fill="white">
                                <use xlink:href="#path-1"></use>
                            </mask>
                            <g id="Clip-4"></g>
                            <path d="M404.236596,217.603239 C410.868351,214.83921 417.501474,212.073814 424.133229,209.309784 C355.643842,133.251799 246.903024,111.407626 157.53913,61.5114976 C126.95975,44.4377025 98.3730418,23.8586097 67.1139374,8.06493893 C62.3503978,5.65786753 57.5198431,3.40397341 52.6605677,1.21709434 C41.6851428,0.0928825805 29.7564628,0.0545882628 20.1678392,2.93760332 C11.1071301,5.66060284 6.17263372,9.94819877 3.55220826,19.3426155 C2.92035202,21.6047155 1.92606741,23.6698734 0.677399127,25.538089 C1.32566722,25.8594878 1.98487655,26.1603717 2.64408587,26.459888 C2.95454338,26.5542561 3.33338359,26.6718744 3.8407833,26.8346252 C15.4672117,30.2770109 23.5418421,41.0254052 21.359066,53.3219842 C47.4525405,63.7462445 72.9661297,75.7939104 98.3785125,87.8183262 C201.637772,136.680508 304.8984,185.541322 408.15766,234.402136 C403.193075,230.62741 401.456155,223.184636 404.236596,217.603239" id="Fill-3" fill="#FEFEFE" mask="url(#mask-2)"></path>
                        </g>
                        <path d="M187.753262,265.252714 C153.150243,264.806859 116.168874,270.999597 90.7988883,294.536926 C89.6801471,295.574975 88.5436265,296.714231 88.1210214,298.183092 C86.8026027,302.770204 92.7354866,305.876147 97.4388494,306.692636 C133.237198,312.903154 171.805047,299.818806 196.431028,273.103049 L187.753262,265.252714 Z" id="Fill-6" fill="#FEFEFE"></path>
                        <path d="M216.015837,187.4894 L213.502088,187.226811 C214.639976,176.326607 214.262504,165.323829 212.380612,154.527566 L214.87111,154.09402 C216.794032,165.121416 217.178343,176.356695 216.015837,187.4894" id="Fill-8" fill="#004AFF"></path>
                        <path d="M376.894231,358.863584 L293.110367,321.046577 C280.40486,315.312003 268.576018,309.197221 263.447315,297.521558 C260.623109,291.093583 260.705169,283.344454 263.670243,276.264108 C266.635317,269.183762 272.099096,263.689895 278.659733,261.191191 C282.750387,259.634801 286.411597,260.050568 288.453505,262.301726 C290.156234,264.178148 289.62832,267.062531 288.136209,268.766628 C286.800011,270.291562 284.953678,270.60202 283.436949,269.551661 L285.072663,267.181517 C285.188914,267.260841 285.461077,267.449577 285.969845,266.868324 C286.604436,266.143467 286.888908,264.86471 286.321332,264.236957 C284.520131,262.249756 280.786435,263.464233 279.685474,263.882735 C273.857899,266.10107 268.98905,271.019154 266.326227,277.377379 C263.664772,283.732868 263.577242,290.653198 266.084153,296.363154 C270.803927,307.106078 282.121266,312.928182 294.293388,318.420681 L378.07862,356.237688 L376.894231,358.863584 Z" id="Fill-10" fill="#004AFF"></path>
                        <path d="M308.178908,328.76849 L305.573526,324.731175 L306.111015,324.385158 L305.688409,324.345496 L305.853896,322.516943 C306.499428,315.365479 307.302241,306.466153 308.301997,299.868589 L311.149453,300.300768 C310.162006,306.810802 309.364664,315.663627 308.721866,322.776797 L308.178908,328.76849 Z" id="Fill-12" fill="#F7A82E"></path>
                        <path d="M356.128317,347.25726 L353.25214,347.113656 L354.214969,328.067704 C354.35994,325.175115 354.51175,322.184055 355.302254,319.260011 L358.081327,320.010853 C357.371515,322.638117 357.229279,325.471896 357.091146,328.212675 L356.128317,347.25726 Z" id="Fill-14" fill="#004AFF"></path>
                        <path d="M80.5453112,42.025289 C75.1854744,36.642202 72.6799319,28.3501146 74.8695462,21.0769295 C77.057793,13.8037445 84.1969479,8.114303 91.7915317,8.28525978 C94.5473549,8.34680422 97.3701932,9.18107328 99.3970567,11.0533919 C100.947977,12.4853258 101.935423,14.4219242 102.750545,16.3708314 C104.866306,21.4297843 106.03018,26.8826216 106.168313,32.3655473 C106.246269,35.479696 105.934444,38.7784779 104.131876,41.3195794 C101.144919,45.5305867 95.2886235,46.2417669 90.1380378,46.5768422 C87.5586419,46.7464313 84.8397454,46.8872997 82.5270421,45.7357348 C80.2129712,44.58417 78.5731538,41.6505517 79.7479688,39.3487897 L80.5453112,42.025289 Z" id="Fill-16" fill="#F7787A"></path>
                        <path d="M106.701014,19.2625995 C106.24285,14.1913377 104.737063,9.21991466 102.308109,4.74631776 C101.048499,2.42540858 99.0872831,-0.0144865228 96.4477104,0.0388519911 C95.1607478,0.064837421 93.9722563,0.700796626 92.8562505,1.3435941 C84.2619115,6.29039936 75.9985448,13.3078331 73.5668556,22.9210745 C73.0539853,24.9465703 73.0061174,27.3030385 73.5723262,29.3230638 L72.3578493,27.9321595 C72.501453,28.3574999 72.568468,28.6091483 72.5917182,28.7472814 C72.6942922,28.8156641 72.900808,29.0276505 73.2987954,29.5405208 C71.805317,27.6121284 74.7512442,30.8739837 74.8770683,30.9888666 C75.2695851,31.347192 75.4815715,31.5482372 75.5950868,31.6631201 C75.6073957,31.6494436 75.7031315,31.6918409 75.9725594,31.8669006 C76.6317687,32.2074465 77.3019192,32.5261099 77.991217,32.779126 C82.3171072,34.3724431 87.0232053,34.5256204 91.6322,34.526988 C95.6695152,34.526988 100.067891,34.2917515 103.110922,31.63987 C106.473983,28.7062518 107.104472,23.7074756 106.701014,19.2625995" id="Fill-18" fill="#FA3D21"></path>
                        <path d="M59.976339,73.3410143 C68.5077659,65.6206064 60.3182526,49.5397282 67.7090559,40.7197263 C69.8576406,38.1553746 73.004613,36.6851464 76.0490112,35.2997127 C82.8599292,32.2006082 89.7953036,29.1083421 97.1915776,27.9827627 C104.589219,26.8571833 112.631026,27.9198506 118.566645,32.4741391 C123.12914,35.9753338 126.142082,41.4268035 126.67957,47.151804 C127.08166,51.4325617 125.931463,56.149601 122.547886,58.8055855 C120.302198,60.5684917 117.397301,61.2030833 114.601816,61.7870716 C99.519325,64.9422499 84.4354668,68.0974281 69.3529762,71.2526064 C65.3047198,72.0991843 60.8803585,72.9006297 57.204104,71.0077963 L59.976339,73.3410143 Z" id="Fill-22" fill="#004AFF"></path>
                        <path d="M179.384313,240.323113 C174.747965,231.987261 167.882341,225.076504 162.830226,216.979991 C156.454222,206.756776 153.096631,194.674919 153.245706,182.624518 C154.182549,181.761528 154.138784,179.979474 153.245706,178.93869 C152.206288,177.735154 150.526809,177.333063 148.964948,177.007562 C133.794928,173.901619 118.192728,172.907334 102.75328,174.079414 C99.0373637,174.362519 95.2503292,174.79333 91.9351354,176.486486 C84.774098,180.18599 81.7570528,188.79127 80.3005011,196.7264 C76.2303622,219.000016 79.5140999,241.719488 86.1841495,263.563661 C97.1212801,263.875486 108.073455,263.206703 118.906644,261.617489 C117.34615,256.193373 115.844466,250.754212 114.671019,245.256242 C111.343516,229.684131 111.074088,212.149437 118.75757,198.627439 C119.961105,196.517149 123.216122,197.423904 123.229799,199.846019 C123.30502,210.158132 124.300672,216.963579 136.439971,236.015002 C139.038514,240.070097 147.615073,246.622528 153.870724,253.013576 C162.875359,249.862501 171.642022,246.044011 180.053096,241.556737 C179.830168,241.14097 179.605873,240.725203 179.384313,240.323113" id="Fill-24" fill="#004AFF"></path>
                        <path d="M180.053506,241.557148 C171.642433,246.044421 162.874402,249.862912 153.869766,253.012619 C155.770806,254.945115 157.466697,256.861198 158.713997,258.704796 L157.747066,258.897635 C158.073935,258.838826 158.417217,258.808738 158.742718,258.764973 C158.817939,258.867547 158.891793,258.986533 158.967014,259.090474 C157.123416,259.774302 155.281185,260.443084 153.440323,261.111867 C152.280552,261.542678 151.061972,262.00221 150.364469,263.012907 C149.30864,264.529635 149.917246,266.743867 151.224723,268.065021 C152.5322,269.372499 154.375798,269.997517 156.129131,270.577402 C160.60136,272.062675 165.090001,273.549315 169.562231,275.049631 C174.346285,276.625169 180.601935,277.739807 183.692834,274.010214 C183.960894,273.772242 184.227587,273.519226 184.450514,273.222445 C185.580197,271.752217 185.803124,269.789633 185.893389,267.932359 C186.306421,258.823782 184.257675,249.62494 180.053506,241.557148" id="Fill-26" fill="#FA3D21"></path>
                        <path d="M86.1848333,263.563798 C88.993995,272.761272 92.3967187,281.81104 96.1112675,290.607792 C93.5551218,291.514547 88.2062262,292.776892 83.8215268,294.352429 C81.1928955,295.287905 81.238028,299.06263 83.8817036,299.939297 C93.8970353,303.224402 107.166016,303.906861 117.939029,301.945645 C123.318013,300.965037 126.869811,295.839069 126.023233,290.429997 C124.507872,280.696402 121.624857,271.17069 118.90596,261.617626 C108.072771,263.20684 97.121964,263.875623 86.1848333,263.563798" id="Fill-28" fill="#FA3D21"></path>
                        <path d="M289.800371,291.246213 C274.816351,296.994464 267.755152,303.419703 257.452613,315.725856 C280.519469,321.907653 303.21022,333.815818 325.353909,342.756173 C326.634034,343.273147 327.964761,343.803796 329.343357,343.72584 C330.788967,343.642413 332.103283,342.902512 333.357422,342.179023 C342.668411,336.816451 356.299821,327.134827 365.612178,321.770887 C343.773476,308.735775 317.684104,297.999689 293.610655,289.799235 L289.800371,291.246213 Z" id="Fill-30" fill="#FA3D21"></path>
                        <path d="M324.391764,254.896426 C322.250018,258.951521 322.251386,263.757458 322.301989,268.343202 C322.349857,272.708754 322.84358,277.87712 326.630614,280.048954 C327.440266,280.512589 328.351123,280.795694 329.118377,281.324976 C330.611856,282.356187 331.344918,284.140976 332.128584,285.77669 C333.555048,288.760912 335.479337,291.639824 338.296705,293.374009 C341.112705,295.108195 344.96949,295.450108 347.652827,293.517613 C351.628598,290.655113 351.249758,284.358433 348.5842,280.25 C350.125546,280.83262 351.564318,278.841316 351.333185,277.209704 C351.103419,275.578093 349.954589,274.245998 349.270762,272.747049 C348.085006,270.144403 348.335287,267.145137 347.859343,264.325034 C346.934809,258.846211 342.918008,253.915818 337.62929,252.211721 C332.340571,250.506256 326.023376,252.286942 322.646638,256.70173 C322.596034,257.351365 323.26892,257.951766 323.908983,257.827309 L324.391764,254.896426 Z" id="Fill-32" fill="#FA3D21"></path>
                        <path d="M310.313953,330.749811 C298.80651,329.907336 291.310398,316.089925 279.779705,315.671423 C275.038048,315.499099 270.386656,317.716066 265.673719,317.166269 C264.704053,317.054121 263.670106,316.776488 263.073809,316.003763 C262.685395,315.501834 262.537688,314.856301 262.42007,314.231283 C261.647346,310.1461 261.674699,305.90774 262.499394,301.83213 C262.82216,300.230607 263.330928,298.552495 264.579596,297.498034 C265.826897,296.44494 268.019246,296.38066 268.89728,297.757888 C269.39921,298.547025 269.354077,299.55225 269.60299,300.454902 C270.222537,302.693752 272.620035,304.023112 274.9259,304.300746 C277.2345,304.579747 279.554042,304.066877 281.872216,303.916435 C293.082877,303.187475 303.10915,310.895574 310.357718,319.478972 C311.719901,321.091437 313.057467,322.805107 313.652397,324.829235 C314.250061,326.853364 313.951913,329.272744 312.403728,330.707413 C310.008966,332.921645 305.328853,331.050694 305.123705,327.79431 L310.313953,330.749811 Z" id="Fill-34" fill="#004AFF"></path>
                        <path d="M316.679973,309.073722 C308.627225,299.977454 296.035233,295.115443 283.960214,296.437965 C283.426828,296.496774 282.868825,296.563789 282.368264,296.373685 C280.475431,295.658402 281.352097,292.700166 280.379695,290.926319 C279.334807,289.023912 276.310924,289.194868 274.762739,290.714332 C273.213187,292.232428 272.748184,294.512308 272.358403,296.647216 C271.8004,299.701188 271.313515,303.120324 273.062745,305.686043 C275.778906,309.668652 281.673496,308.982089 286.412418,309.85602 C293.763559,311.211366 299.303926,317.032102 305.050809,321.812054 C308.09384,324.344949 312.121581,326.7698 315.784159,325.270851 C319.009088,323.952432 320.436919,319.917852 319.792754,316.494614 C319.147221,313.071376 316.912474,310.177419 314.556006,307.613068 L316.679973,309.073722 Z" id="Fill-36" fill="#004AFF"></path>
                        <path d="M357.373703,243.789569 C357.003069,243.84154 356.613287,243.915394 356.204359,244.017968 C348.282905,245.984654 340.361452,247.952709 332.438632,249.920763 C330.333812,250.443207 328.157874,251.00121 326.461983,252.351085 C315.337483,261.213484 330.306459,271.747157 338.162264,273.771285 C342.187271,274.807967 346.792162,275.413838 350.222239,273.066943 C352.071308,271.801863 353.304932,269.84475 354.487953,267.942343 C356.8157,264.200441 359.14208,260.458539 361.471195,256.713902 C364.556623,251.750685 364.852036,242.765196 357.373703,243.789569" id="Fill-38" fill="#FA3D21"></path>
                        <path d="M369.044854,232.843002 C364.623228,234.239377 362.817924,240.65094 365.86369,244.149399 C368.906721,247.646491 375.50702,246.742472 377.499692,242.556082 C379.490996,238.368325 376.028096,232.677516 371.395851,232.522971 C369.275987,232.450485 366.957813,233.621197 366.420325,235.671311 L369.044854,232.843002 Z" id="Fill-40" fill="#FA3D21"></path>
                        <path d="M298.596712,297.774574 C298.278049,298.480283 298.004518,299.214713 297.761075,299.949144 C297.572339,300.079071 297.38497,300.20763 297.183925,300.323881 L298.596712,297.774574 Z" id="Fill-42" fill="#2BAB82"></path>
                        <path d="M381.539469,263.559832 C381.222173,264.711396 380.746229,265.835608 380.15677,266.944776 C377.102799,272.719012 370.867663,277.860024 365.986505,281.2436 C361.120392,284.6135 355.692172,287.636016 352.580759,292.67719 C349.584228,297.529627 349.210859,303.491231 348.922284,309.177938 C347.757042,332.261205 324.285361,347.064694 305.016481,329.152527 C297.256411,321.938151 294.376131,309.971177 297.761075,299.949007 C306.773917,294.002447 309.108502,285.31921 304.602082,275.210878 C302.065083,269.53648 298.135813,264.611558 294.966958,259.2695 C293.268331,256.417941 291.77075,253.351661 290.863995,250.167762 C290.070756,247.375012 289.724739,244.494732 290.114521,241.61582 C290.373007,239.671016 291.122482,237.553887 292.893594,236.704574 C295.846359,235.294522 298.956405,238.24592 300.741194,240.994905 C300.783591,241.067391 300.8424,241.15492 300.884798,241.226038 C303.881328,245.876063 306.356782,250.874839 309.468195,255.453745 C316.090377,265.201017 325.11963,273.222309 336.956677,275.45432 C352.523317,278.376997 359.204308,271.163989 369.15536,258.909807 C369.932188,257.944243 370.739104,256.936282 371.57474,255.914645 C377.693625,248.340576 384.36094,253.336616 381.539469,263.559832" id="Fill-44" fill="#004AFF"></path>
                        <path d="M345.099554,381.244288 L261.314322,343.427281 C248.608814,337.691339 236.781341,331.577925 231.652637,319.900894 C228.828431,313.474286 228.909123,305.725158 231.875565,298.643444 C234.840639,291.563098 240.30305,286.070599 246.865055,283.571895 C250.955709,282.015504 254.616919,282.431271 256.658827,284.68243 C258.360189,286.558852 257.832274,289.441867 256.340163,291.147332 C255.003965,292.672266 253.160367,292.982724 251.640904,291.930997 L253.277986,289.56222 C253.394236,289.641544 253.666399,289.828913 254.175167,289.249028 C254.809758,288.524171 255.09423,287.244046 254.525286,286.617661 C252.724086,284.630459 248.991757,285.844936 247.889428,286.263438 C242.063221,288.481774 237.193005,293.399858 234.531549,299.756715 C231.868727,306.113572 231.781197,313.033902 234.289475,318.74249 C239.007882,329.485414 250.32522,335.307518 262.49871,340.801385 L346.283942,378.618391 L345.099554,381.244288 Z" id="Fill-46" fill="#004AFF"></path>
                        <path d="M276.384914,351.14851 L273.778165,347.112562 L274.317021,346.765178 L273.893048,346.726884 L274.058534,344.896962 C274.704067,337.746866 275.50688,328.846173 276.506635,322.248609 L279.354091,322.67942 C278.368012,329.192189 277.569302,338.043647 276.926505,345.156817 L276.384914,351.14851 Z" id="Fill-48" fill="#004AFF"></path>
                        <path d="M324.333639,369.637827 L321.457462,369.492856 L322.420291,350.446903 C322.565262,347.554314 322.717072,344.564622 323.506208,341.640578 L326.286649,342.39142 C325.576837,345.017316 325.434601,347.852463 325.296468,350.591874 L324.333639,369.637827 Z" id="Fill-50" fill="#F7A82E"></path>
                        <path d="M209.086753,139.534657 C205.083629,143.695061 199.193143,146.100765 193.433951,145.970838 C195.505947,151.918766 195.205063,158.484874 200.474635,163.048736 C201.612523,164.041653 203.023942,164.907378 204.521524,164.74873 C206.422563,164.561361 207.761496,162.834014 208.695604,161.162741 C212.367756,154.625354 211.837106,147.181212 209.086753,139.534657" id="Fill-52" fill="#FA3D21"></path>
                        <path d="M157.98873,168.944009 C157.985995,168.697832 157.979157,168.454389 157.969583,168.208211 C156.848107,134.748551 163.690481,99.4904259 151.393902,67.1276245 C147.414028,56.6513933 139.47206,47.0586667 128.693577,43.9910184 C101.26664,36.1899188 60.6691926,52.9505211 52.6561067,81.379949 C48.0320678,97.7849612 51.0190246,115.321023 55.1260902,131.865536 C60.5132801,153.556532 67.7878328,174.777055 76.8417036,195.211176 C77.860606,197.51157 79.0408916,199.955568 81.2496531,201.159104 C83.3941349,202.328448 86.0077221,202.050815 88.42847,201.719842 C105.982312,199.318242 137.647609,198.315751 151.84386,186.462292 C156.760577,182.355226 158.096775,175.391131 157.98873,168.944009" id="Fill-54" fill="#FEFEFE"></path>
                        <path d="M180.444108,95.1393709 C173.071084,83.4322509 165.569501,71.5528065 155.373639,62.1925811 C147.757173,55.2230153 138.338138,49.7086335 128.317336,47.7063878 C127.0208,44.7262693 122.485658,44.7399458 119.965072,46.8857953 C119.288083,46.8857953 118.612462,46.914516 117.934105,46.9582809 L119.733938,47.1169288 C119.489128,47.3166063 119.274406,47.5764606 119.071993,47.8499915 C116.853658,50.9600371 117.244807,55.1792503 117.962826,58.9238876 C120.194837,70.3725209 124.803832,81.3452106 131.426014,90.9488784 C142.37135,106.774005 158.341448,118.423684 174.784755,128.418501 C180.83389,132.104329 188.018177,136.136173 191.806579,142.40003 C192.497245,143.551594 193.015586,144.746924 193.434088,145.970975 C199.19328,146.100902 205.083766,143.695198 209.08689,139.534794 C203.267521,123.406048 187.51488,106.386959 180.444108,95.1393709" id="Fill-56" fill="#FEFEFE"></path>
                        <path d="M82.6836385,58.4778955 C80.4666711,57.9021131 77.8024807,57.6709795 74.6773908,57.8296274 C65.4320484,58.3342918 57.5420513,64.2945288 52.4721572,71.2216974 C38.8229682,89.8409417 34.200297,110.763316 14.6018123,126.228749 C10.4537171,129.512487 5.91857574,132.349002 1.13725665,134.854545 C-0.101838061,140.541251 0.115618957,146.532944 1.81424548,152.077414 C6.62428531,151.630191 11.5341639,150.362376 16.026908,148.952324 C36.2722931,142.558541 56.115588,133.774098 70.8766798,119.85001 C81.0848508,110.216254 106.587499,64.6555896 82.6836385,58.4778955" id="Fill-58" fill="#FEFEFE"></path>
                        <path d="M271.606193,296.899138 L214.863588,212.910126 C210.246387,206.077325 205.474642,199.013391 202.18133,191.21913 C197.259143,179.568084 195.817635,166.303206 198.122133,153.865759 L200.60716,154.32529 C198.392928,166.282691 199.776994,179.034699 204.509078,190.234419 C207.706653,197.80165 212.410016,204.761642 216.957466,211.494604 L273.701439,295.483616 L271.606193,296.899138 Z" id="Fill-60" fill="#004AFF"></path>
                        <path d="M300.885208,241.226586 C300.26566,242.493033 299.53123,243.703407 298.725682,244.782486 C297.211689,246.813453 295.441944,248.771934 293.080005,249.708777 C292.375663,249.98094 291.624821,250.139588 290.863038,250.168309 C290.069798,247.375559 289.72515,244.495279 290.114931,241.614999 C290.37205,239.671563 291.121524,237.553066 292.892637,236.705121 C295.845402,235.293702 298.956815,238.245099 300.741604,240.995452 C300.784001,241.067938 300.841443,241.1541 300.885208,241.226586" id="Fill-62" fill="#004AFF"></path>
                        <path d="M381.539469,263.559832 C381.222173,264.711396 380.746229,265.835608 380.15677,266.944776 C377.175284,266.323861 374.21021,265.216061 371.94811,263.171418 C370.681662,262.019853 369.68601,260.535948 369.15536,258.909807 C369.932188,257.944243 370.739104,256.936282 371.57474,255.914645 C377.693625,248.340576 384.36094,253.336616 381.539469,263.559832" id="Fill-64" fill="#004AFF"></path>
                    </g>
                </g>
                <g id="Group-20" transform="translate(425.388324, 112.274064)">
                    <path d="M88.1094154,97.8431997 L60.2858583,100.11077 C53.6486325,100.652361 44.7287917,104.090644 46.3125353,110.559649 C59.5678398,114.300183 74.9389054,117.723421 86.1864936,109.774615 C87.8016932,108.632624 89.3567161,107.13641 89.7191444,105.191606 C90.0815728,103.246801 88.6742566,100.914951 86.6966286,101.006584 L88.1094154,97.8431997 Z" id="Fill-68" fill="#FEFEFE"></path>
                    <path d="M55.3547811,106.330862 C55.0046616,106.864247 54.5492327,107.321043 53.9570385,107.650648 C52.879327,108.252416 51.5882614,108.272931 50.3450637,108.282504 C47.2377534,108.311225 44.1222371,108.339946 41.0149267,108.359093 C40.6073658,108.370034 40.1902313,108.370034 39.811391,108.214122 C38.4327956,107.669795 38.577767,105.525313 39.6076106,104.466749 C40.6360865,103.398611 42.1418738,102.971903 43.3741302,102.137634 C46.7918981,99.8167248 44.276782,93.6609132 43.5874843,90.0503061 C43.5396164,89.7781429 43.5013221,89.5251269 43.4712337,89.2926257 C42.7244945,83.0985198 42.5302876,76.8373988 42.8995542,70.6132045 L42.5398612,72.0697563 C42.121359,69.6230229 43.7242497,67.0983332 45.965835,66.0028422 C48.1992143,64.8950423 50.8893901,65.0318077 53.2376524,65.8469296 C53.8695086,66.0698573 54.4904236,66.3420205 54.9663673,66.8083906 C56.2287121,68.040647 56.0139904,70.089393 55.762342,71.8372551 C55.1222799,76.2438369 53.8695086,81.167392 53.9378913,85.5739739 C53.9666121,87.0783935 54.1416718,88.5746072 54.3837466,90.0503061 C54.9567937,93.641766 55.9565489,97.1853581 56.2957272,100.806906 C56.4803605,102.680593 56.3353891,104.836016 55.3547811,106.330862" id="Fill-70" fill="#004AFF"></path>
                    <path d="M67.6453423,108.5347 C66.586778,108.816436 65.4899193,109.098173 64.4122078,108.894393 C63.3440699,108.700186 62.3060203,107.864549 62.2376376,106.777264 C62.121387,104.806474 64.9264458,103.787572 65.1698882,101.835929 C65.2765653,101.039955 64.9168722,100.263127 64.577694,99.5341674 C63.8596755,97.9723063 63.1990985,96.3803568 62.6069043,94.7583189 C62.0434307,93.2142373 61.5387663,91.641435 61.1024846,90.0494855 C59.0728858,82.8556244 58.3056318,75.3116438 58.8595317,67.8565607 L59.7526099,70.1186608 C59.7430363,69.7986297 59.7334628,69.477231 59.7238892,69.1571999 C59.6363593,66.0512572 60.005626,62.2054136 62.8694939,61.0032455 C65.2861388,59.9829755 68.1500067,61.7404111 69.2865274,64.0996146 C70.4312539,66.4588181 70.3054298,69.2064354 70.1796056,71.8268609 C69.8294861,78.5940139 70.9851539,84.2150727 72.800031,90.0494855 C73.6151529,92.6712786 74.5574667,95.3409396 75.5667955,98.1651455 C77.9560874,104.884431 73.2759747,107.049427 67.6453423,108.5347" id="Fill-72" fill="#004AFF"></path>
                    <path d="M45.0443096,27.8357164 L45.0443096,35.1130044 L48.2049584,35.2866965 L56.1988972,35.8734201 L56.4601192,22.8848082 L55.460364,21.4870656 L52.6553052,17.557795 L44.0513926,16.4787159 L43.5221104,16.4130685 C43.4345806,16.7248936 43.2253295,17.3704264 42.9709458,18.1882836 C42.6810031,19.06495 42.3336189,20.1536027 41.993073,21.2258436 C41.1369215,23.885931 42.4635461,26.7552695 45.0443096,27.8357164" id="Fill-74" fill="#E696A8"></path>
                    <path d="M62.8446026,4.40055129 C62.8446026,6.66128369 61.0119459,8.49394032 58.7512135,8.49394032 C56.4891135,8.49394032 54.6564568,6.66128369 54.6564568,4.40055129 C54.6564568,2.1398189 56.4891135,0.305794608 58.7512135,0.305794608 C61.0119459,0.305794608 62.8446026,2.1398189 62.8446026,4.40055129" id="Fill-76" fill="#004AFF"></path>
                    <path d="M57.9365019,11.5561181 C57.4509847,13.7771885 57.2143805,13.866086 57.8393985,20.1832808 L57.8407661,20.202428 C57.8421338,20.2092662 57.8421338,20.2147368 57.8435014,20.2202075 L57.8421338,20.2188398 C57.8667515,20.4745911 57.8804281,20.7330778 57.8804281,20.9942997 C57.8804281,22.3031448 57.556294,23.5340336 56.9914529,24.619951 L42.8786291,17.7652682 C43.5624562,16.2581132 44.7017122,15.0026067 46.1268079,14.1833818 L46.1213372,14.1806465 C51.6630721,11.0049534 51.5933217,10.7642463 53.1223591,9.07656102 L53.1319327,9.08066398 C53.644803,8.51582279 54.376498,8.15612974 55.1998258,8.15612974 C56.7466428,8.15612974 58.0007817,9.41026864 58.0007817,10.9570855 C58.0007817,11.1622337 57.9761639,11.3619112 57.9337666,11.5547504 L57.9365019,11.5561181 Z" id="Fill-78" fill="#FA3D21"></path>
                    <path d="M37.3887284,38.4457041 C37.3887284,48.6155808 29.1445089,56.8584327 18.9746322,56.8584327 C8.80475554,56.8584327 0.561903653,48.6155808 0.561903653,38.4457041 C0.561903653,28.2758275 8.80475554,20.031608 18.9746322,20.031608 C29.1445089,20.031608 37.3887284,28.2758275 37.3887284,38.4457041" id="Fill-80" fill="#FEFEFE"></path>
                    <path d="M38.8240815,75.9739987 C35.1067974,64.4487768 34.008571,51.8266961 37.4509567,40.2153119 C40.7223855,29.1824455 48.4414258,19.2177169 58.9039805,14.5335013 C59.8408236,14.1149991 60.9472559,14.5225601 61.3561845,15.4621385 C63.6962408,20.8356519 63.7892413,27.1678908 61.5394501,32.5865368 C61.3110519,33.1390691 61.0539329,33.7189545 61.1414628,34.3111487 C61.2385662,34.9594168 61.7268188,35.4695518 62.1822476,35.9413925 C70.624777,44.6861735 75.7712598,56.5423678 76.3935424,68.6816665 C76.446881,69.7224514 76.4482486,70.8384572 75.8765692,71.7096529 C75.3541253,72.5069953 74.4460029,72.9501153 73.5734395,73.3357938 C63.5704166,77.7574198 52.3802699,79.4587816 41.515625,78.2101134 C40.7018707,78.1171129 39.7704982,77.9297442 39.3779814,77.2103581 L38.8240815,75.9739987 Z" id="Fill-82" fill="#FA3D21"></path>
                    <path d="M55.0409044,93.5398758 L44.4238048,93.5398758 C45.2184119,96.8072017 45.8365916,100.465677 43.3734464,102.13695 C42.14119,102.971219 40.6367704,103.399295 39.6082944,104.467433 C38.5784508,105.52463 38.4334794,107.670479 39.8120749,108.213438 C40.1895474,108.36935 40.6080496,108.36935 41.0156106,108.359777 C44.1215533,108.34063 47.2384372,108.311909 50.3443799,108.28182 C51.5875776,108.272247 52.8786431,108.2531 53.9563546,107.651332 C54.5485489,107.321727 55.0053454,106.864931 55.3540972,106.331546 C56.3347053,104.835332 56.4810443,102.679909 56.296411,100.806223 C56.0666451,98.3622245 55.5373629,95.9524178 55.0409044,93.5398758" id="Fill-84" fill="#004AFF"></path>
                    <path d="M67.6453423,108.5347 C66.586778,108.816436 65.4899193,109.098173 64.4122078,108.894393 C63.3440699,108.700186 62.3060203,107.864549 62.2376376,106.777264 C62.121387,104.806474 64.9264458,103.787572 65.1698882,101.835929 C65.2765653,101.039955 64.9168722,100.263127 64.577694,99.5341674 C63.8596755,97.9723063 63.1990985,96.3803568 62.6069043,94.7583189 L72.800031,90.0494855 C73.6151529,92.6712786 74.5574667,95.3409396 75.5667955,98.1651455 C77.9560874,104.884431 73.2759747,107.049427 67.6453423,108.5347" id="Fill-86" fill="#004AFF"></path>
                    <path d="M59.0243341,42.2748624 C58.0820203,44.3427555 56.0141272,45.6433947 53.9476017,46.5665613 C45.7813384,50.2264039 35.9479047,49.6916511 28.0346575,45.5079969 C25.7151159,44.2839464 23.5692665,42.3719658 21.2688721,41.0220911 C20.6657366,40.6637657 20.0543952,40.342367 19.4334802,40.0907186 C16.7255249,38.9842864 14.035349,39.1976404 11.512027,37.2364243 C10.6668167,36.5758473 9.86126841,35.7019163 9.75459138,34.635146 C9.56995806,32.8093276 11.5790421,31.4020115 13.414434,31.411585 C15.249826,31.4211586 16.9293053,32.3621047 18.5978435,33.1102116 C20.0256745,33.7420678 21.4917998,34.2371586 22.9866458,34.6255724 C32.0938551,36.9943495 42.1611577,35.3435909 51.5678833,37.0900853 C52.6360213,37.2856599 53.8491306,37.7410887 54.6451053,38.43996 L57.0631179,36.5854209 C59.218541,37.2856599 59.9557066,40.2165428 59.0243341,42.2748624" id="Fill-88" fill="#FA3D21"></path>
                    <path d="M18.5983905,33.1106219 C20.0262215,33.7411105 21.4909792,34.2362013 22.9858252,34.6246151 C22.3074687,36.7308025 21.7344216,38.8670784 21.2680515,41.0225014 C20.6662837,40.6628084 20.0549423,40.3427773 19.4340272,40.0911289 C16.7247043,38.983329 14.0358961,39.1980507 11.5112064,37.2368346 C10.6673638,36.5762576 9.86044782,35.7023266 9.75377079,34.6341886 C9.56913747,32.8097379 11.5795892,31.4010541 13.4136134,31.4119953 C15.2490054,31.4215689 16.9284847,32.362515 18.5983905,33.1106219" id="Fill-90" fill="#FA3D21"></path>
                </g>
            </g>
        </g>
    </g>
</svg>