<?xml version="1.0" encoding="UTF-8"?>
<svg width="791px" height="706px" viewBox="0 0 791 706" version="1.1" xmlns="http://www.w3.org/2000/svg" xmlns:xlink="http://www.w3.org/1999/xlink">
    <!-- Generator: sketchtool 51.3 (57544) - http://www.bohemiancoding.com/sketch -->
    <title>DBE5194D-5C89-40C3-972D-EFC48E587FD7</title>
    <desc>Created with sketchtool.</desc>
    <defs>
        <polyline id="path-1" points="0.317 0.055 6.203 44.507 56.542 46.131 73.389 45.117 73.389 0.055"></polyline>
        <path d="M0.302,6.976 L7.203,45.678 L57.542,47.302 L74.389,46.287 L74.389,7.586 C59.165,5.758 48.002,3.323 32.982,0.278 C26.283,4.338 0.302,6.976 0.302,6.976" id="path-3"></path>
        <polyline id="path-5" points="0.238 0.055 6.125 44.507 56.464 46.131 73.311 45.117 73.311 0.055"></polyline>
        <path d="M0.224,6.976 L7.125,45.678 L57.464,47.302 L74.311,46.287 L74.311,7.586 C59.087,5.758 47.924,3.323 32.903,0.278 C26.205,4.338 0.224,6.976 0.224,6.976" id="path-7"></path>
        <polyline id="path-9" points="0.841 0.055 6.728 83.276 73.913 83.885 73.913 0.055"></polyline>
    </defs>
    <g id="Page-1" stroke="none" stroke-width="1" fill="none" fill-rule="evenodd">
        <g id="Main-#5" transform="translate(-571.000000, 0.000000)">
            <g id="Group-29" transform="translate(571.000000, -2.000000)">
                <polygon id="Path-5-Copy" fill="#FFCE00" points="1.08624833 667.69952 609.667825 -7.95807864e-13 687.76929 -9.09494702e-13 790.086248 667.69952"></polygon>
                <ellipse id="Oval-2-Copy" fill="#FFCE00" cx="394.565676" cy="670.863138" rx="394.5" ry="36.5"></ellipse>
                <polygon id="Fill-1" fill="#FFCCE0" points="584.36702 404.240401 584.36702 427.601401 565.96102 427.601401 565.96102 409.229401"></polygon>
                <g id="Group-30" transform="translate(508.757220, 381.000701)">
                    <path d="M63.1636,310.6182 C63.1856,311.2802 62.6586,311.8082 62.0076,311.8082 L39.8826,311.8082 C39.1866,311.8082 38.5696,311.5282 38.1206,311.0782 C37.6716,310.6292 37.3906,310.0122 37.3906,309.3162 C37.3906,308.1482 38.1986,306.0152 39.3436,305.7572 L48.0546,304.0742 C47.7966,304.0292 47.9426,303.7932 48.1336,303.5802 C48.3016,303.3892 48.5146,303.2212 48.5146,303.2212 L48.3016,301.5482 C48.1556,300.7852 48.0096,300.0102 47.8636,299.2362 C43.9456,278.6262 39.5006,258.1392 35.8306,237.4512 C34.5166,230.0882 33.3046,222.7132 32.1816,215.3272 C31.9576,214.0132 31.7556,212.7002 31.5646,211.3862 C30.9026,206.9192 30.2856,202.4402 29.7236,197.9502 C29.6896,197.6582 29.6566,197.3672 29.6116,197.0862 C29.3086,194.6272 29.0276,192.1802 28.7586,189.7332 C28.6906,189.1832 28.6346,188.6332 28.5786,188.0942 C28.2756,185.2772 27.9836,182.4592 27.7366,179.6412 C27.4446,176.5442 27.1976,173.4342 26.9966,170.3352 C26.9396,169.4822 26.8836,165.2512 26.8276,164.3872 C26.7936,163.8922 26.7716,163.3992 26.7376,162.8932 C26.7716,162.7812 26.7036,162.6802 26.5356,162.5912 L26.5356,156.8102 C26.7476,156.6692 26.7636,156.6582 26.9756,156.5172 C28.2656,157.0202 27.4586,155.9242 27.3436,155.3952 C31.9016,151.8812 36.3806,151.6462 41.1516,148.3682 C41.9146,147.8412 42.7226,147.3692 43.4746,146.8422 C43.6436,146.7182 43.7776,146.6282 43.8896,146.5382 C44.0136,146.4932 44.1486,146.4372 44.3386,146.3592 C46.2356,145.5392 48.1106,144.7532 50.0746,144.1132 C49.9966,144.1812 52.4216,143.5522 52.6236,143.5182 C54.0826,143.2712 55.5416,143.1032 57.0236,142.9682 C57.9986,142.8792 58.9796,142.8102 59.9636,142.7622 C61.3486,142.6942 62.5076,143.8072 62.4866,145.1942 C62.3566,153.6552 62.1946,162.1432 62.0416,170.6502 C61.9626,174.6012 61.8956,178.5522 61.8166,182.5042 C61.6256,193.4382 61.4686,204.3932 61.3786,215.3272 C61.3006,225.5422 61.3006,240.2242 61.4126,250.3712 C61.4916,258.1282 61.6376,265.8632 61.8726,273.5632 C62.0306,278.7502 62.5686,293.9712 62.9166,303.5802 C63.0296,306.7012 63.1186,309.2262 63.1636,310.6182" id="Fill-2" fill="#004AFF"></path>
                    <path d="M63.1636,310.6182 C63.1856,311.2802 62.6586,311.8082 62.0076,311.8082 L39.8826,311.8082 C39.1866,311.8082 38.5696,311.5282 38.1206,311.0782 C37.6716,310.6292 37.3906,310.0122 37.3906,309.3162 C37.3906,308.1482 38.1986,306.0152 39.3436,305.7572 L48.0546,304.0742 C47.7966,304.0292 47.9426,303.7932 48.1336,303.5802 L62.9166,303.5802 C63.0296,306.7012 63.1186,309.2262 63.1636,310.6182" id="Fill-4" fill="#004AFF"></path>
                    <path d="M106.9423,310.6182 C106.9643,311.2802 106.4373,311.8082 105.7863,311.8082 L83.6613,311.8082 C82.9653,311.8082 82.3483,311.5282 81.8993,311.0782 C81.4493,310.6292 81.1693,310.0122 81.1693,309.3162 C81.1693,308.1482 81.9773,306.0152 83.1223,305.7572 L91.8333,304.0742 C91.5753,304.0292 91.7213,303.7932 91.9113,303.5802 C92.0803,303.3892 92.2933,303.2212 92.2933,303.2212 L92.0803,301.5482 C91.9343,300.7852 91.7883,300.0102 91.6423,299.2362 C87.7243,278.6262 83.2793,258.1392 79.6083,237.4512 C78.2953,230.0882 77.0833,222.7132 75.9613,215.3272 C75.7363,214.0132 75.5333,212.7002 75.3433,211.3862 C74.6813,206.9192 74.0633,202.4402 73.5023,197.9502 C73.4683,197.6582 73.4353,197.3672 73.3903,197.0862 C73.0873,194.6272 72.8063,192.1802 72.5373,189.7332 C72.4693,189.1832 72.4133,188.6332 72.3573,188.0942 C72.0543,185.2772 71.7623,182.4592 71.5153,179.6412 C71.2233,176.5442 70.9763,173.4342 70.7743,170.3352 C70.7183,169.4822 70.6623,165.2512 70.6063,164.3872 C70.5723,163.8922 70.5503,163.3992 70.5163,162.8932 C70.5503,162.7812 70.4823,162.6802 70.3143,162.5912 L70.3143,156.8102 C70.5263,156.6692 70.5423,156.6582 70.7543,156.5172 C72.0443,157.0202 71.2373,155.9242 71.1223,155.3952 C75.6803,151.8812 80.1583,151.6462 84.9293,148.3682 C85.6933,147.8412 86.5013,147.3692 87.2533,146.8422 C87.4213,146.7182 87.5563,146.6282 87.6683,146.5382 C87.7923,146.4932 87.9263,146.4372 88.1173,146.3592 C90.0143,145.5392 91.8893,144.7532 93.8533,144.1132 C93.7753,144.1812 96.1993,143.5522 96.4013,143.5182 C97.8613,143.2712 99.3203,143.1032 100.8023,142.9682 C101.7773,142.8792 102.7583,142.8102 103.7423,142.7622 C105.1273,142.6942 106.2863,143.8072 106.2653,145.1942 C106.1353,153.6552 105.9723,162.1432 105.8193,170.6502 C105.7413,174.6012 105.6743,178.5522 105.5953,182.5042 C105.4043,193.4382 105.2473,204.3932 105.1573,215.3272 C105.0793,225.5422 105.0793,240.2242 105.1913,250.3712 C105.2703,258.1282 105.4163,265.8632 105.6513,273.5632 C105.8093,278.7502 106.3473,293.9712 106.6953,303.5802 C106.8073,306.7012 106.8973,309.2262 106.9423,310.6182" id="Fill-6" fill="#004AFF"></path>
                    <path d="M106.9423,310.6182 C106.9643,311.2802 106.4373,311.8082 105.7863,311.8082 L83.6613,311.8082 C82.9653,311.8082 82.3483,311.5282 81.8993,311.0782 C81.4493,310.6292 81.1693,310.0122 81.1693,309.3162 C81.1693,308.1482 81.9773,306.0152 83.1223,305.7572 L91.8333,304.0742 C91.5753,304.0292 91.7213,303.7932 91.9113,303.5802 L106.6953,303.5802 C106.8073,306.7012 106.8973,309.2262 106.9423,310.6182" id="Fill-8" fill="#004AFF"></path>
                    <path d="M114.5539,63.0552 C109.0569,56.0812 102.2619,50.5952 94.5719,47.3622 C92.9899,46.7002 91.2499,46.0822 89.3979,45.5102 C77.1059,41.7722 59.6729,40.5042 45.2039,43.4332 C37.6719,44.9602 30.9479,47.6312 26.1659,51.6722 C14.3229,61.6972 -6.0541,103.2802 3.4179,114.9172 C7.0419,119.3692 24.1719,118.9722 27.2099,118.9752 L26.6149,146.1562 L26.4649,152.8902 L26.4719,152.8902 L26.2329,163.6572 L107.9869,163.6572 L107.6709,152.8902 L107.6789,152.8902 L107.4809,146.1562 L106.7999,122.7962 C111.4829,123.0832 115.7699,123.4942 119.7109,123.6722 C125.0399,123.9112 129.6069,119.8842 130.0009,114.5642 C130.8499,103.0832 129.7009,82.2752 114.5539,63.0552" id="Fill-10" fill="#004AFF"></path>
                    <path d="M48.7323,18.2495 C49.4563,27.0415 57.1653,33.5755 65.9693,32.8515 C69.4613,32.5635 72.6083,31.1665 75.0763,29.0405 C75.7253,28.4815 76.3313,27.8625 76.8833,27.1845 C79.4863,24.1005 80.9183,19.9855 80.5593,15.6275 C80.0333,9.2475 75.8373,4.0545 70.2163,1.9755 C69.3023,1.6215 68.3463,1.3715 67.3703,1.1985 L67.3313,1.1885 C66.0373,0.9795 64.7043,0.9125 63.3473,1.0235 C63.0083,1.0515 62.6703,1.0925 62.3333,1.1455 C59.5343,1.5525 56.9963,2.6725 54.8803,4.3005 C50.7553,7.4985 48.2713,12.6475 48.7323,18.2495" id="Fill-12" fill="#FFCCE0"></path>
                    <path d="M52.5408,6.7256 C52.5898,6.7316 52.6378,6.7436 52.6868,6.7476 C52.9998,6.9896 52.6078,6.7916 52.5408,6.7256" id="Fill-14" fill="#FA3D21"></path>
                    <path d="M77.8211,15.5898 C78.0071,17.8448 79.9851,19.5218 82.2391,19.3358 C84.4941,19.1498 86.1701,17.1728 85.9851,14.9178 C85.7991,12.6638 83.8211,10.9858 81.5671,11.1718 C79.3121,11.3578 77.6351,13.3358 77.8211,15.5898" id="Fill-16" fill="#FFCCE0"></path>
                    <path d="M43.9914,15.5898 C44.1774,17.8448 46.1554,19.5218 48.4094,19.3358 C50.6644,19.1498 52.3414,17.1728 52.1554,14.9178 C51.9694,12.6638 49.9914,10.9858 47.7364,11.1718 C45.4824,11.3578 43.8054,13.3358 43.9914,15.5898" id="Fill-18" fill="#FFCCE0"></path>
                    <path d="M44.009,106.813 L31.442,102.517 C28.846,101.136 27.626,98.069 28.575,95.285 C29.691,91.994 33.366,90.349 36.56,91.692 L47.855,93.062 L44.009,106.813 Z" id="Fill-20" fill="#FFCCE0"></path>
                    <path d="M90.2884,106.813 L102.8554,102.517 C105.4514,101.136 106.6714,98.069 105.7224,95.285 C104.6064,91.994 100.9314,90.349 97.7374,91.692 L86.4424,93.062 L90.2884,106.813 Z" id="Fill-22" fill="#FFCCE0"></path>
                    <path d="M117.4243,103.3472 C116.6123,103.1442 80.0763,94.2132 80.0763,94.2132 L85.3533,111.8722 L116.6123,113.4962 L117.4243,103.3472 Z" id="Fill-24" fill="#004AFF"></path>
                    <path d="M52.8772,13.5747 C52.8772,10.5477 63.8382,10.5477 63.8382,13.5747 C63.8382,16.6007 61.3842,19.0547 58.3572,19.0547 C55.3312,19.0547 52.8772,16.6007 52.8772,13.5747" id="Fill-26" fill="#004AFF"></path>
                    <path d="M65.6648,13.5747 C65.6648,10.5477 76.6258,10.5477 76.6258,13.5747 C76.6258,16.6007 74.1718,19.0547 71.1448,19.0547 C68.1188,19.0547 65.6648,16.6007 65.6648,13.5747" id="Fill-28" fill="#004AFF"></path>
                </g>
                <g id="Group-33" transform="translate(536.757220, 428.000701)">
                    <mask id="mask-2" fill="white">
                        <use xlink:href="#path-1"></use>
                    </mask>
                    <g id="Clip-32"></g>
                    <path d="M27.0935,60.48 C27.9005,61.885 28.9455,63.04 30.2265,63.935 C31.5055,64.83 32.9735,65.491 34.6385,65.913 C36.2985,66.344 38.0255,66.552 39.8155,66.552 C41.0955,66.552 42.4385,66.407 43.8435,66.105 C45.2535,65.808 46.5285,65.34 47.6835,64.7 C48.8335,64.06 49.7905,63.212 50.5605,62.14 C51.3255,61.079 51.7105,59.736 51.7105,58.112 C51.7105,55.385 49.9005,53.341 46.2735,51.978 C42.6515,50.614 37.5995,49.251 31.1205,47.882 C28.4775,47.29 25.8965,46.587 23.3835,45.775 C20.8705,44.963 18.6325,43.902 16.6715,42.575 C14.7095,41.259 13.1325,39.594 11.9415,37.59 C10.7445,35.587 10.1515,33.136 10.1515,30.238 C10.1515,25.976 10.9785,22.479 12.6435,19.753 C14.3035,17.021 16.4995,14.872 19.2315,13.291 C21.9575,11.713 25.0225,10.605 28.4355,9.965 C31.8445,9.33 35.3405,9.008 38.9205,9.008 C42.5005,9.008 45.9765,9.352 49.3435,10.033 C52.7095,10.714 55.7175,11.865 58.3605,13.483 C60.9985,15.106 63.1945,17.255 64.9435,19.94 C66.6915,22.625 67.7375,26.018 68.0805,30.107 L50.8155,30.107 C50.5605,26.617 49.2345,24.249 46.8515,23.01 C44.4625,21.777 41.6475,21.157 38.4105,21.157 C37.3855,21.157 36.2775,21.22 35.0855,21.35 C33.8895,21.476 32.8015,21.756 31.8235,22.178 C30.8455,22.609 30.0125,23.224 29.3315,24.036 C28.6495,24.847 28.3055,25.935 28.3055,27.297 C28.3055,28.916 28.9045,30.238 30.0955,31.257 C31.2925,32.282 32.8485,33.115 34.7635,33.755 C36.6835,34.39 38.8795,34.968 41.3505,35.478 C43.8225,35.992 46.3405,36.544 48.8955,37.143 C51.5395,37.741 54.1205,38.464 56.6335,39.318 C59.1465,40.171 61.3845,41.3 63.3455,42.705 C65.3075,44.11 66.8835,45.858 68.0805,47.95 C69.2725,50.037 69.8705,52.618 69.8705,55.682 C69.8705,60.033 68.9915,63.675 67.2485,66.62 C65.4995,69.56 63.2205,71.927 60.4055,73.717 C57.5905,75.507 54.3745,76.767 50.7485,77.489 C47.1265,78.213 43.4375,78.572 39.6915,78.572 C35.8505,78.572 32.0995,78.192 28.4355,77.422 C24.7675,76.657 21.5105,75.377 18.6535,73.587 C15.7965,71.797 13.4505,69.43 11.6185,66.49 C9.7865,63.55 8.7825,59.86 8.6165,55.428 L25.8755,55.428 C25.8755,57.389 26.2815,59.075 27.0935,60.48" id="Fill-31" fill="#FFFFFF" mask="url(#mask-2)"></path>
                </g>
                <g id="Group-36" transform="translate(535.757220, 493.000701)">
                    <mask id="mask-4" fill="white">
                        <use xlink:href="#path-3"></use>
                    </mask>
                    <g id="Clip-35"></g>
                    <path d="M28.0935,-4.52 C28.9005,-3.115 29.9455,-1.96 31.2265,-1.065 C32.5055,-0.17 33.9735,0.491 35.6385,0.913 C37.2985,1.344 39.0255,1.552 40.8155,1.552 C42.0955,1.552 43.4385,1.407 44.8435,1.105 C46.2535,0.808 47.5285,0.34 48.6835,-0.3 C49.8335,-0.94 50.7905,-1.788 51.5605,-2.86 C52.3255,-3.921 52.7105,-5.264 52.7105,-6.888 C52.7105,-9.615 50.9005,-11.659 47.2735,-13.022 C43.6515,-14.386 38.5995,-15.749 32.1205,-17.118 C29.4775,-17.71 26.8965,-18.413 24.3835,-19.225 C21.8705,-20.037 19.6325,-21.098 17.6715,-22.425 C15.7095,-23.741 14.1325,-25.406 12.9415,-27.41 C11.7445,-29.413 11.1515,-31.864 11.1515,-34.762 C11.1515,-39.024 11.9785,-42.521 13.6435,-45.247 C15.3035,-47.979 17.4995,-50.128 20.2315,-51.709 C22.9575,-53.287 26.0225,-54.395 29.4355,-55.035 C32.8445,-55.67 36.3405,-55.992 39.9205,-55.992 C43.5005,-55.992 46.9765,-55.648 50.3435,-54.967 C53.7095,-54.286 56.7175,-53.135 59.3605,-51.517 C61.9985,-49.894 64.1945,-47.745 65.9435,-45.06 C67.6915,-42.375 68.7375,-38.982 69.0805,-34.893 L51.8155,-34.893 C51.5605,-38.383 50.2345,-40.751 47.8515,-41.99 C45.4625,-43.223 42.6475,-43.843 39.4105,-43.843 C38.3855,-43.843 37.2775,-43.78 36.0855,-43.65 C34.8895,-43.524 33.8015,-43.244 32.8235,-42.822 C31.8455,-42.391 31.0125,-41.776 30.3315,-40.964 C29.6495,-40.153 29.3055,-39.065 29.3055,-37.703 C29.3055,-36.084 29.9045,-34.762 31.0955,-33.743 C32.2925,-32.718 33.8485,-31.885 35.7635,-31.245 C37.6835,-30.61 39.8795,-30.032 42.3505,-29.522 C44.8225,-29.008 47.3405,-28.456 49.8955,-27.857 C52.5395,-27.259 55.1205,-26.536 57.6335,-25.682 C60.1465,-24.829 62.3845,-23.7 64.3455,-22.295 C66.3075,-20.89 67.8835,-19.142 69.0805,-17.05 C70.2725,-14.963 70.8705,-12.382 70.8705,-9.318 C70.8705,-4.967 69.9915,-1.325 68.2485,1.62 C66.4995,4.56 64.2205,6.927 61.4055,8.717 C58.5905,10.507 55.3745,11.767 51.7485,12.489 C48.1265,13.213 44.4375,13.572 40.6915,13.572 C36.8505,13.572 33.0995,13.192 29.4355,12.422 C25.7675,11.657 22.5105,10.377 19.6535,8.587 C16.7965,6.797 14.4505,4.43 12.6185,1.49 C10.7865,-1.45 9.7825,-5.14 9.6165,-9.572 L26.8755,-9.572 C26.8755,-7.611 27.2815,-5.925 28.0935,-4.52" id="Fill-34" fill="#FFFFFF" mask="url(#mask-4)"></path>
                </g>
                <g id="Group-41" transform="translate(578.757220, 393.000701)">
                    <path d="M9.941,3.0518 C9.941,1.8558 10.91,0.8858 12.106,0.8858 C13.302,0.8858 14.271,1.8558 14.271,3.0518 C14.271,4.2478 13.302,5.2168 12.106,5.2168 C10.91,5.2168 9.941,4.2478 9.941,3.0518" id="Fill-37" fill="#004AFF"></path>
                    <path d="M12.106,3.0518 C12.106,12.1178 8.858,18.2078 0.063,18.2078" id="Stroke-39" stroke="#004AFF" stroke-width="1.624" stroke-linecap="round"></path>
                </g>
                <polygon id="Fill-42" fill="#FFCCE0" points="313.28842 404.240401 313.28842 427.601401 294.88242 427.601401 294.88242 409.229401"></polygon>
                <g id="Group-71" transform="translate(237.757220, 381.000701)">
                    <path d="M63.085,310.6182 C63.107,311.2802 62.58,311.8082 61.929,311.8082 L39.804,311.8082 C39.108,311.8082 38.491,311.5282 38.042,311.0782 C37.593,310.6292 37.312,310.0122 37.312,309.3162 C37.312,308.1482 38.12,306.0152 39.266,305.7572 L47.976,304.0742 C47.718,304.0292 47.864,303.7932 48.055,303.5802 C48.223,303.3892 48.437,303.2212 48.437,303.2212 L48.223,301.5482 C48.077,300.7852 47.931,300.0102 47.785,299.2362 C43.867,278.6262 39.423,258.1392 35.752,237.4512 C34.438,230.0882 33.226,222.7132 32.104,215.3272 C31.879,214.0132 31.677,212.7002 31.486,211.3862 C30.824,206.9192 30.207,202.4402 29.645,197.9502 C29.611,197.6582 29.578,197.3672 29.533,197.0862 C29.23,194.6272 28.949,192.1802 28.68,189.7332 C28.612,189.1832 28.556,188.6332 28.5,188.0942 C28.197,185.2772 27.905,182.4592 27.658,179.6412 C27.366,176.5442 27.12,173.4342 26.918,170.3352 C26.861,169.4822 26.805,165.2512 26.749,164.3872 C26.715,163.8922 26.693,163.3992 26.659,162.8932 C26.693,162.7812 26.625,162.6802 26.457,162.5912 L26.457,156.8102 C26.67,156.6692 26.685,156.6582 26.897,156.5172 C28.188,157.0202 27.38,155.9242 27.265,155.3952 C31.823,151.8812 36.302,151.6462 41.073,148.3682 C41.836,147.8412 42.644,147.3692 43.396,146.8422 C43.565,146.7182 43.699,146.6282 43.812,146.5382 C43.935,146.4932 44.07,146.4372 44.26,146.3592 C46.158,145.5392 48.032,144.7532 49.996,144.1132 C49.918,144.1812 52.343,143.5522 52.545,143.5182 C54.004,143.2712 55.463,143.1032 56.945,142.9682 C57.92,142.8792 58.901,142.8102 59.885,142.7622 C61.27,142.6942 62.429,143.8072 62.408,145.1942 C62.279,153.6552 62.116,162.1432 61.963,170.6502 C61.884,174.6012 61.817,178.5522 61.738,182.5042 C61.547,193.4382 61.39,204.3932 61.3,215.3272 C61.222,225.5422 61.222,240.2242 61.334,250.3712 C61.413,258.1282 61.559,265.8632 61.794,273.5632 C61.952,278.7502 62.491,293.9712 62.838,303.5802 C62.951,306.7012 63.04,309.2262 63.085,310.6182" id="Fill-43" fill="#004AFF"></path>
                    <path d="M63.085,310.6182 C63.107,311.2802 62.58,311.8082 61.929,311.8082 L39.804,311.8082 C39.108,311.8082 38.491,311.5282 38.042,311.0782 C37.593,310.6292 37.312,310.0122 37.312,309.3162 C37.312,308.1482 38.12,306.0152 39.266,305.7572 L47.976,304.0742 C47.718,304.0292 47.864,303.7932 48.055,303.5802 L62.838,303.5802 C62.951,306.7012 63.04,309.2262 63.085,310.6182" id="Fill-45" fill="#004AFF"></path>
                    <path d="M106.8637,310.6182 C106.8857,311.2802 106.3587,311.8082 105.7077,311.8082 L83.5827,311.8082 C82.8867,311.8082 82.2697,311.5282 81.8197,311.0782 C81.3717,310.6292 81.0907,310.0122 81.0907,309.3162 C81.0907,308.1482 81.8987,306.0152 83.0437,305.7572 L91.7547,304.0742 C91.4967,304.0292 91.6427,303.7932 91.8337,303.5802 C92.0017,303.3892 92.2147,303.2212 92.2147,303.2212 L92.0017,301.5482 C91.8557,300.7852 91.7097,300.0102 91.5637,299.2362 C87.6457,278.6262 83.2007,258.1392 79.5297,237.4512 C78.2167,230.0882 77.0047,222.7132 75.8817,215.3272 C75.6577,214.0132 75.4547,212.7002 75.2647,211.3862 C74.6027,206.9192 73.9857,202.4402 73.4237,197.9502 C73.3897,197.6582 73.3567,197.3672 73.3117,197.0862 C73.0087,194.6272 72.7277,192.1802 72.4587,189.7332 C72.3907,189.1832 72.3347,188.6332 72.2787,188.0942 C71.9757,185.2772 71.6837,182.4592 71.4367,179.6412 C71.1447,176.5442 70.8977,173.4342 70.6957,170.3352 C70.6397,169.4822 70.5837,165.2512 70.5277,164.3872 C70.4937,163.8922 70.4717,163.3992 70.4377,162.8932 C70.4717,162.7812 70.4037,162.6802 70.2357,162.5912 L70.2357,156.8102 C70.4477,156.6692 70.4637,156.6582 70.6757,156.5172 C71.9657,157.0202 71.1587,155.9242 71.0437,155.3952 C75.6017,151.8812 80.0807,151.6462 84.8507,148.3682 C85.6147,147.8412 86.4227,147.3692 87.1747,146.8422 C87.3427,146.7182 87.4777,146.6282 87.5897,146.5382 C87.7137,146.4932 87.8477,146.4372 88.0387,146.3592 C89.9357,145.5392 91.8107,144.7532 93.7747,144.1132 C93.6967,144.1812 96.1217,143.5522 96.3237,143.5182 C97.7827,143.2712 99.2417,143.1032 100.7237,142.9682 C101.6987,142.8792 102.6797,142.8102 103.6637,142.7622 C105.0487,142.6942 106.2077,143.8072 106.1867,145.1942 C106.0567,153.6552 105.8947,162.1432 105.7417,170.6502 C105.6627,174.6012 105.5957,178.5522 105.5167,182.5042 C105.3257,193.4382 105.1687,204.3932 105.0787,215.3272 C105.0007,225.5422 105.0007,240.2242 105.1127,250.3712 C105.1917,258.1282 105.3367,265.8632 105.5727,273.5632 C105.7307,278.7502 106.2687,293.9712 106.6167,303.5802 C106.7287,306.7012 106.8187,309.2262 106.8637,310.6182" id="Fill-47" fill="#004AFF"></path>
                    <path d="M106.8637,310.6182 C106.8857,311.2802 106.3587,311.8082 105.7077,311.8082 L83.5827,311.8082 C82.8867,311.8082 82.2697,311.5282 81.8197,311.0782 C81.3717,310.6292 81.0907,310.0122 81.0907,309.3162 C81.0907,308.1482 81.8987,306.0152 83.0437,305.7572 L91.7547,304.0742 C91.4967,304.0292 91.6427,303.7932 91.8337,303.5802 L106.6167,303.5802 C106.7287,306.7012 106.8187,309.2262 106.8637,310.6182" id="Fill-49" fill="#004AFF"></path>
                    <path d="M114.4754,63.0552 C108.9784,56.0812 102.1834,50.5952 94.4934,47.3622 C92.9114,46.7002 91.1714,46.0822 89.3194,45.5102 C77.0274,41.7722 59.5944,40.5042 45.1254,43.4332 C37.5924,44.9602 30.8694,47.6312 26.0874,51.6722 C14.2444,61.6972 -6.1326,103.2802 3.3394,114.9172 C6.9634,119.3692 24.0934,118.9722 27.1314,118.9752 L26.5364,146.1562 L26.3864,152.8902 L26.3924,152.8902 L26.1544,163.6572 L107.9084,163.6572 L107.5924,152.8902 L107.6004,152.8902 L107.4024,146.1562 L106.7214,122.7962 C111.4044,123.0832 115.6914,123.4942 119.6324,123.6722 C124.9604,123.9112 129.5284,119.8842 129.9224,114.5642 C130.7714,103.0832 129.6224,82.2752 114.4754,63.0552" id="Fill-51" fill="#004AFF"></path>
                    <path d="M48.6537,18.2495 C49.3777,27.0415 57.0867,33.5755 65.8907,32.8515 C69.3827,32.5635 72.5297,31.1665 74.9977,29.0405 C75.6467,28.4815 76.2527,27.8625 76.8047,27.1845 C79.4077,24.1005 80.8397,19.9855 80.4807,15.6275 C79.9547,9.2475 75.7587,4.0545 70.1377,1.9755 C69.2237,1.6215 68.2667,1.3715 67.2917,1.1985 L67.2527,1.1885 C65.9587,0.9795 64.6247,0.9125 63.2687,1.0235 C62.9297,1.0515 62.5917,1.0925 62.2547,1.1455 C59.4557,1.5525 56.9177,2.6725 54.8007,4.3005 C50.6767,7.4985 48.1927,12.6475 48.6537,18.2495" id="Fill-53" fill="#FFCCE0"></path>
                    <path d="M52.4624,6.7256 C52.5114,6.7316 52.5584,6.7436 52.6084,6.7476 C52.9214,6.9896 52.5294,6.7916 52.4624,6.7256" id="Fill-55" fill="#FA3D21"></path>
                    <path d="M77.7426,15.5898 C77.9286,17.8448 79.9066,19.5218 82.1606,19.3358 C84.4146,19.1498 86.0926,17.1728 85.9066,14.9178 C85.7206,12.6638 83.7426,10.9858 81.4876,11.1718 C79.2336,11.3578 77.5566,13.3358 77.7426,15.5898" id="Fill-57" fill="#FFCCE0"></path>
                    <path d="M43.9128,15.5898 C44.0988,17.8448 46.0768,19.5218 48.3308,19.3358 C50.5858,19.1498 52.2628,17.1728 52.0768,14.9178 C51.8908,12.6638 49.9128,10.9858 47.6588,11.1718 C45.4038,11.3578 43.7268,13.3358 43.9128,15.5898" id="Fill-59" fill="#FFCCE0"></path>
                    <path d="M43.9305,106.813 L31.3635,102.517 C28.7675,101.136 27.5475,98.069 28.4965,95.285 C29.6125,91.994 33.2875,90.349 36.4815,91.692 L47.7765,93.062 L43.9305,106.813 Z" id="Fill-61" fill="#FFCCE0"></path>
                    <path d="M90.2097,106.813 L102.7767,102.517 C105.3727,101.136 106.5927,98.069 105.6437,95.285 C104.5277,91.994 100.8527,90.349 97.6587,91.692 L86.3637,93.062 L90.2097,106.813 Z" id="Fill-63" fill="#FFCCE0"></path>
                    <path d="M117.3459,103.3472 C116.5339,103.1442 79.9979,94.2132 79.9979,94.2132 L85.2749,111.8722 L116.5339,113.4962 L117.3459,103.3472 Z" id="Fill-65" fill="#004AFF"></path>
                    <path d="M52.7987,13.5747 C52.7987,10.5477 63.7597,10.5477 63.7597,13.5747 C63.7597,16.6007 61.3057,19.0547 58.2787,19.0547 C55.2527,19.0547 52.7987,16.6007 52.7987,13.5747" id="Fill-67" fill="#004AFF"></path>
                    <path d="M65.5863,13.5747 C65.5863,10.5477 76.5473,10.5477 76.5473,13.5747 C76.5473,16.6007 74.0933,19.0547 71.0663,19.0547 C68.0403,19.0547 65.5863,16.6007 65.5863,13.5747" id="Fill-69" fill="#004AFF"></path>
                </g>
                <g id="Group-74" transform="translate(265.757220, 428.000701)">
                    <mask id="mask-6" fill="white">
                        <use xlink:href="#path-5"></use>
                    </mask>
                    <g id="Clip-73"></g>
                    <path d="M27.0149,60.48 C27.8219,61.885 28.8669,63.04 30.1479,63.935 C31.4279,64.83 32.8949,65.491 34.5599,65.913 C36.2199,66.344 37.9469,66.552 39.7369,66.552 C41.0169,66.552 42.3599,66.407 43.7649,66.105 C45.1749,65.808 46.4499,65.34 47.6049,64.7 C48.7549,64.06 49.7119,63.212 50.4819,62.14 C51.2469,61.079 51.6319,59.736 51.6319,58.112 C51.6319,55.385 49.8219,53.341 46.1949,51.978 C42.5729,50.614 37.5209,49.251 31.0419,47.882 C28.3989,47.29 25.8179,46.587 23.3049,45.775 C20.7919,44.963 18.5539,43.902 16.5929,42.575 C14.6309,41.259 13.0539,39.594 11.8629,37.59 C10.6659,35.587 10.0729,33.136 10.0729,30.238 C10.0729,25.976 10.8999,22.479 12.5649,19.753 C14.2249,17.021 16.4209,14.872 19.1529,13.291 C21.8789,11.713 24.9439,10.605 28.3579,9.965 C31.7659,9.33 35.2619,9.008 38.8419,9.008 C42.4219,9.008 45.8979,9.352 49.2649,10.033 C52.6319,10.714 55.6389,11.865 58.2819,13.483 C60.9199,15.106 63.1159,17.255 64.8649,19.94 C66.6129,22.625 67.6589,26.018 68.0019,30.107 L50.7369,30.107 C50.4819,26.617 49.1559,24.249 46.7719,23.01 C44.3839,21.777 41.5689,21.157 38.3319,21.157 C37.3069,21.157 36.1989,21.22 35.0069,21.35 C33.8109,21.476 32.7229,21.756 31.7449,22.178 C30.7669,22.609 29.9339,23.224 29.2519,24.036 C28.5709,24.847 28.2269,25.935 28.2269,27.297 C28.2269,28.916 28.8259,30.238 30.0169,31.257 C31.2139,32.282 32.7699,33.115 34.6849,33.755 C36.6049,34.39 38.8009,34.968 41.2719,35.478 C43.7439,35.992 46.2619,36.544 48.8169,37.143 C51.4609,37.741 54.0409,38.464 56.5549,39.318 C59.0679,40.171 61.3059,41.3 63.2669,42.705 C65.2289,44.11 66.8059,45.858 68.0019,47.95 C69.1939,50.037 69.7919,52.618 69.7919,55.682 C69.7919,60.033 68.9129,63.675 67.1699,66.62 C65.4209,69.56 63.1419,71.927 60.3269,73.717 C57.5119,75.507 54.2969,76.767 50.6699,77.489 C47.0479,78.213 43.3589,78.572 39.6119,78.572 C35.7719,78.572 32.0209,78.192 28.3579,77.422 C24.6889,76.657 21.4319,75.377 18.5749,73.587 C15.7179,71.797 13.3719,69.43 11.5399,66.49 C9.7089,63.55 8.7039,59.86 8.5379,55.428 L25.7969,55.428 C25.7969,57.389 26.2029,59.075 27.0149,60.48" id="Fill-72" fill="#FFFFFF" mask="url(#mask-6)"></path>
                </g>
                <g id="Group-77" transform="translate(264.757220, 493.000701)">
                    <mask id="mask-8" fill="white">
                        <use xlink:href="#path-7"></use>
                    </mask>
                    <g id="Clip-76"></g>
                    <path d="M28.0149,-4.52 C28.8219,-3.115 29.8669,-1.96 31.1479,-1.065 C32.4279,-0.17 33.8949,0.491 35.5599,0.913 C37.2199,1.344 38.9469,1.552 40.7369,1.552 C42.0169,1.552 43.3599,1.407 44.7649,1.105 C46.1749,0.808 47.4499,0.34 48.6049,-0.3 C49.7549,-0.94 50.7119,-1.788 51.4819,-2.86 C52.2469,-3.921 52.6319,-5.264 52.6319,-6.888 C52.6319,-9.615 50.8219,-11.659 47.1949,-13.022 C43.5729,-14.386 38.5209,-15.749 32.0419,-17.118 C29.3989,-17.71 26.8179,-18.413 24.3049,-19.225 C21.7919,-20.037 19.5539,-21.098 17.5929,-22.425 C15.6309,-23.741 14.0539,-25.406 12.8629,-27.41 C11.6659,-29.413 11.0729,-31.864 11.0729,-34.762 C11.0729,-39.024 11.8999,-42.521 13.5649,-45.247 C15.2249,-47.979 17.4209,-50.128 20.1529,-51.709 C22.8789,-53.287 25.9439,-54.395 29.3579,-55.035 C32.7659,-55.67 36.2619,-55.992 39.8419,-55.992 C43.4219,-55.992 46.8979,-55.648 50.2649,-54.967 C53.6319,-54.286 56.6389,-53.135 59.2819,-51.517 C61.9199,-49.894 64.1159,-47.745 65.8649,-45.06 C67.6129,-42.375 68.6589,-38.982 69.0019,-34.893 L51.7369,-34.893 C51.4819,-38.383 50.1559,-40.751 47.7719,-41.99 C45.3839,-43.223 42.5689,-43.843 39.3319,-43.843 C38.3069,-43.843 37.1989,-43.78 36.0069,-43.65 C34.8109,-43.524 33.7229,-43.244 32.7449,-42.822 C31.7669,-42.391 30.9339,-41.776 30.2519,-40.964 C29.5709,-40.153 29.2269,-39.065 29.2269,-37.703 C29.2269,-36.084 29.8259,-34.762 31.0169,-33.743 C32.2139,-32.718 33.7699,-31.885 35.6849,-31.245 C37.6049,-30.61 39.8009,-30.032 42.2719,-29.522 C44.7439,-29.008 47.2619,-28.456 49.8169,-27.857 C52.4609,-27.259 55.0409,-26.536 57.5549,-25.682 C60.0679,-24.829 62.3059,-23.7 64.2669,-22.295 C66.2289,-20.89 67.8059,-19.142 69.0019,-17.05 C70.1939,-14.963 70.7919,-12.382 70.7919,-9.318 C70.7919,-4.967 69.9129,-1.325 68.1699,1.62 C66.4209,4.56 64.1419,6.927 61.3269,8.717 C58.5119,10.507 55.2969,11.767 51.6699,12.489 C48.0479,13.213 44.3589,13.572 40.6119,13.572 C36.7719,13.572 33.0209,13.192 29.3579,12.422 C25.6889,11.657 22.4319,10.377 19.5749,8.587 C16.7179,6.797 14.3719,4.43 12.5399,1.49 C10.7089,-1.45 9.7039,-5.14 9.5379,-9.572 L26.7969,-9.572 C26.7969,-7.611 27.2029,-5.925 28.0149,-4.52" id="Fill-75" fill="#FFFFFF" mask="url(#mask-8)"></path>
                </g>
                <g id="Group-90" transform="translate(133.757220, 393.000701)">
                    <path d="M183.8624,3.0518 C183.8624,1.8558 184.8314,0.8858 186.0274,0.8858 C187.2234,0.8858 188.1924,1.8558 188.1924,3.0518 C188.1924,4.2478 187.2234,5.2168 186.0274,5.2168 C184.8314,5.2168 183.8624,4.2478 183.8624,3.0518" id="Fill-78" fill="#004AFF"></path>
                    <path d="M186.0276,3.0518 C186.0276,12.1178 182.7796,18.2078 173.9846,18.2078" id="Stroke-80" stroke="#004AFF" stroke-width="1.624" stroke-linecap="round"></path>
                    <path d="M492.4406,271.4341 C492.6856,263.3401 492.0726,250.7621 484.8836,244.7731 C482.7686,243.0111 479.7706,241.8401 476.9946,242.5341 C474.6106,243.1311 472.8186,245.0151 471.9626,247.1041 C471.1056,249.1951 471.0586,251.4801 471.1956,253.7051 C471.8996,265.1481 477.9816,273.4851 481.7296,284.0361 C483.2296,288.2581 483.9976,292.8921 487.1536,296.2931 C490.3086,299.6941 497.1216,300.8331 499.8146,297.1241 C499.9926,296.8791 500.1486,296.6181 500.2206,296.3331 C500.8816,293.7321 495.7706,293.9381 493.4956,292.2291 C491.9776,291.0881 491.9076,289.0461 491.9616,287.2671 C492.1216,281.9891 492.2806,276.7121 492.4406,271.4341" id="Fill-82" fill="#FA3D21"></path>
                    <path d="M509.6584,163.4214 C509.8524,161.0624 510.0474,158.7034 510.2414,156.3444 C510.2844,155.8184 510.3484,155.2474 510.7474,154.8594 C511.2994,154.3254 512.3034,154.3764 512.9824,154.7734 C513.6624,155.1714 514.0954,155.8244 514.5054,156.4544 C515.9234,158.6394 517.3724,160.9014 517.7274,163.4124 C517.7704,163.7124 517.7904,164.0394 517.6124,164.2944 C517.4104,164.5844 517.0124,164.7024 516.6434,164.7844 C514.7794,165.1944 512.8374,165.1964 510.9184,165.1964 C510.3014,165.1964 509.6064,165.1674 509.1924,164.7544 C508.7374,164.3024 508.8524,163.5454 509.2934,163.0814 C509.7334,162.6164 510.4094,162.3924 511.0724,162.2634 L509.6584,163.4214 Z" id="Fill-84" fill="#FA3D21"></path>
                    <path d="M563.4076,179.5967 C554.6156,180.1927 549.2796,188.6217 541.7286,191.7357 C531.6836,195.8617 521.4886,188.2777 528.5296,178.5737 C530.3856,176.0027 533.6676,174.6347 536.3826,172.7757 C538.2956,171.4597 539.9666,169.8607 541.2996,168.0647 C543.0056,166.7377 544.5016,164.9827 543.8406,163.1337 C543.8286,163.0927 543.8056,163.0507 543.7826,163.0087 C543.1096,161.3887 540.9166,160.6267 538.9796,160.7307 C536.9966,160.8457 535.1406,161.6187 533.2156,162.0687 C530.3626,162.7367 527.3586,162.6847 524.3416,162.4647 C519.6116,162.1327 514.8396,161.4297 510.5376,162.5317 C506.5576,160.2747 501.8036,159.1317 497.1026,159.3487 C496.8416,160.9247 497.6406,162.5227 498.8236,163.7067 C501.8236,166.7137 503.5156,167.3527 504.6876,171.5917 C505.6536,175.0907 505.8076,178.7847 505.8076,182.3747 C505.7966,194.1277 500.7156,205.3257 495.7046,216.1787 C492.3756,223.3977 488.4906,231.1797 480.7886,234.7837 C473.0876,238.3877 460.9666,234.3027 461.3486,226.4887 C461.6856,219.7097 473.2726,216.3247 477.9706,221.6317 C482.4476,216.4927 475.7896,208.8777 468.6676,207.5607 C455.0386,205.0427 440.7606,217.2237 442.8146,229.6227 C444.8676,242.0117 462.4626,249.9197 474.6876,243.9237 C471.6726,255.1117 475.5926,267.6157 484.6626,275.7217 C490.4506,280.9027 498.9056,288.3827 500.9356,295.6107 C501.5156,297.6377 503.5696,299.1107 505.7726,299.7477 C507.9876,300.3847 510.3656,300.3437 512.6856,300.2907 C513.7296,300.2697 514.8196,300.2287 515.7356,299.7797 C516.6646,299.3197 517.3246,298.3057 516.9546,297.4297 C516.1076,295.4127 511.4566,294.7017 509.6126,293.2087 C507.0136,291.0887 505.1456,287.5357 504.3926,284.4957 C502.4896,276.7767 506.8986,268.8477 511.0386,262.3507 C514.2396,257.3257 516.9546,251.4247 515.0976,245.8877 C514.4606,243.9867 513.2886,242.1167 513.6126,240.1527 C513.6356,240.0107 513.6836,239.8777 513.7196,239.7407 C514.4246,239.3847 515.1166,239.0057 515.7896,238.6087 C525.2086,233.0577 532.1496,224.2747 535.1526,214.5207 C540.2136,211.2027 546.7206,209.6207 551.8896,212.4707 C554.3256,213.8077 556.4946,216.0847 559.3356,215.9177 C563.5696,215.6777 564.7066,209.8067 561.7716,207.0487 C558.8366,204.2907 554.0936,204.0087 549.8596,204.1977 C545.6266,204.3857 541.1026,204.7927 537.4026,202.9227 C543.3296,199.3187 554.6956,189.1657 561.7476,188.2557 C564.2996,187.9327 567.3166,187.9747 568.8466,186.1157 C571.0976,183.3677 567.1886,179.3357 563.4076,179.5967" id="Fill-86" fill="#FA3D21"></path>
                    <path d="M79.8822,262.0986 C79.6402,260.2126 77.9132,258.8846 76.0292,259.1226 C74.1422,259.3646 72.8092,261.0896 73.0512,262.9756 C73.3212,265.0816 72.4942,267.3806 70.9442,268.8286 C69.9792,269.7306 68.7082,270.3326 67.3832,270.5616 C67.0242,270.0876 66.6462,269.6316 66.2272,269.2126 C65.8022,268.7876 65.3432,268.3866 64.8492,268.0186 C62.6922,266.3886 59.9942,265.4246 57.1022,265.4246 L35.0072,265.4246 L35.0072,248.0016 C35.0072,247.5006 34.8572,247.0366 34.6112,246.6396 C35.2702,245.2606 36.5422,244.1276 37.9962,243.8536 C39.8642,243.5006 41.0942,241.7006 40.7422,239.8316 C40.3902,237.9626 38.5882,236.7366 36.7202,237.0856 C33.3742,237.7166 30.5562,239.8806 28.8822,242.7236 C28.4262,236.7236 25.5872,234.4136 23.0822,233.5666 C21.2832,232.9576 19.3272,233.9236 18.7172,235.7256 C18.1082,237.5276 19.0752,239.4816 20.8762,240.0906 C21.5202,240.3076 22.1342,241.9076 22.0602,244.9146 C21.6652,245.0516 21.3062,245.2866 20.9752,245.5676 L7.4602,245.7866 L2.5822,245.8666 C1.1482,245.8906 0.0002,247.0596 0.0002,248.4946 L0.0002,253.3726 C0.0002,262.2456 7.1962,269.4426 16.0692,269.4426 L21.3782,269.4426 C19.1632,271.7626 17.7902,274.8936 17.7902,278.3366 C17.7902,281.2106 18.7522,283.8716 20.3572,286.0276 C19.2232,289.2046 18.9652,292.6916 19.7502,296.0226 C20.1232,297.6086 21.5382,298.6766 23.0992,298.6766 C23.3602,298.6766 23.6262,298.6466 23.8912,298.5836 C25.7422,298.1476 26.8892,296.2946 26.4532,294.4426 C26.1482,293.1466 26.1252,291.7926 26.3242,290.4676 C27.2922,290.8186 28.3072,291.0696 29.3642,291.1796 C28.6832,294.6316 30.1462,298.3186 33.0132,300.3616 C33.6192,300.7926 34.3182,300.9996 35.0092,300.9996 C36.0852,300.9996 37.1442,300.4976 37.8162,299.5536 C38.9192,298.0056 38.5582,295.8546 37.0092,294.7526 C36.3412,294.2766 35.9582,293.3116 36.1192,292.5076 C36.2052,292.0796 36.1982,291.6556 36.1292,291.2496 L52.8352,291.2496 C52.7682,291.4606 52.7002,291.6736 52.6022,291.8786 C52.0802,292.9666 51.1962,293.7796 50.2382,294.0526 C48.4092,294.5756 47.3502,296.4816 47.8722,298.3096 C48.3052,299.8226 49.6832,300.8086 51.1822,300.8086 C51.4952,300.8086 51.8132,300.7656 52.1292,300.6756 C54.9942,299.8576 57.4302,297.7366 58.8112,294.8566 C59.1042,294.2456 59.3292,293.6166 59.5092,292.9806 C59.5282,293.0256 59.5482,293.0826 59.5672,293.1266 C60.6232,295.4776 62.5462,297.2786 64.8452,298.0636 C65.2142,298.1896 65.5902,298.2496 65.9592,298.2496 C67.3912,298.2496 68.7282,297.3506 69.2172,295.9196 C69.8322,294.1196 68.8722,292.1626 67.0722,291.5476 C66.5802,291.3796 66.1232,290.9146 65.8502,290.3056 C65.7242,290.0246 65.4032,289.2426 65.1132,288.4366 C68.0912,286.0656 70.0142,282.4186 70.0142,278.3366 C70.0142,277.8956 69.9912,277.4586 69.9482,277.0276 C72.0622,276.4376 74.0422,275.3616 75.6492,273.8576 C78.8102,270.9016 80.4332,266.3956 79.8822,262.0986" id="Fill-88" fill="#FFFFFF"></path>
                </g>
                <polygon id="Fill-91" fill="#FFFFFF" points="169.40382 656.284901 330.80182 532.033901 332.62482 533.806901 169.37782 659.112901"></polygon>
                <g id="Group-96" transform="translate(133.757220, 638.000701)" fill="#FA3D21">
                    <path d="M0,3.4951 L0,8.3731 L4.017,8.3731 C5.911,8.3731 7.461,6.8241 7.461,4.9301 L7.461,0.7861 L2.582,0.8671 C1.148,0.8891 0,2.0601 0,3.4951" id="Fill-92"></path>
                    <path d="M19.2141,29.916 L36.5131,22.271 C37.8051,21.666 38.3611,20.128 37.7551,18.837 L37.5931,18.49 C36.9881,17.199 35.4501,16.643 34.1581,17.248 L16.8591,24.892 C15.5671,25.498 15.0111,27.036 15.6171,28.327 L15.7791,28.673 C16.3851,29.965 17.9231,30.521 19.2141,29.916" id="Fill-94"></path>
                </g>
                <polygon id="Fill-97" fill="#FFFFFF" points="639.40802 575.891301 547.66202 528.800301 545.83902 530.574301 639.43402 578.718301"></polygon>
                <path d="M658.82962,581.782901 L639.99662,580.045901 C638.57962,579.882901 637.56262,578.601901 637.72562,577.184901 L637.76962,576.803901 C637.93162,575.387901 639.21262,574.370901 640.62962,574.533901 L659.46262,576.271901 C660.87962,576.433901 661.89662,577.714901 661.73362,579.131901 L661.68962,579.511901 C661.52762,580.928901 660.24662,581.946901 658.82962,581.782901" id="Fill-98" fill="#FFFFFF"></path>
                <polygon id="Fill-100" fill="#FFFFFF" points="673.83042 663.460701 546.79942 528.075701 545.07842 529.750701 670.47942 663.460701"></polygon>
                <g id="Group-109" transform="translate(448.757220, 422.000701)">
                    <path d="M91.0947,128.2051 C85.7297,128.2051 81.3657,123.8411 81.3657,118.4761 L81.3657,111.3441 C81.3657,105.9791 85.7297,101.6161 91.0947,101.6161 C96.4607,101.6161 100.8247,105.9791 100.8247,111.3441 L100.8247,118.4761 C100.8247,123.8411 96.4607,128.2051 91.0947,128.2051 M91.0947,104.8671 C87.5237,104.8671 84.6167,107.7731 84.6167,111.3441 L84.6167,118.4761 C84.6167,122.0481 87.5237,124.9551 91.0947,124.9551 C94.6667,124.9551 97.5737,122.0481 97.5737,118.4761 L97.5737,111.3441 C97.5737,107.7731 94.6667,104.8671 91.0947,104.8671" id="Fill-101" fill="#FFFFFF"></path>
                    <path d="M47.5556,33.8726 C51.7406,58.1686 61.5106,87.5386 84.3116,95.1776 C87.6696,96.3026 89.5056,99.7716 88.3196,103.1106 L88.2456,103.3196 C87.4986,105.4226 85.7916,106.9536 83.6736,107.4606 C73.8576,109.8136 45.2556,111.4246 22.4356,60.3186 L0.9176,1.3506 L6.5476,1.0456 C26.5806,-0.0364 44.1506,14.1016 47.5556,33.8726" id="Fill-103" fill="#FFCCE0"></path>
                    <path d="M93.7001,102.1152 C93.7001,105.5202 90.9391,108.2822 87.5331,108.2822 C84.1271,108.2822 81.3661,105.5202 81.3661,102.1152 C81.3661,98.7092 84.1271,95.9482 87.5331,95.9482 C90.9391,95.9482 93.7001,98.7092 93.7001,102.1152" id="Fill-105" fill="#FFCCE0"></path>
                    <path d="M50.0193,45.7759 L17.1203,45.7759 L0.9143,1.3479 L6.5493,1.0399 C26.5873,-0.0321 44.1573,14.0959 47.5513,33.8729 C48.2173,37.7549 49.0283,41.7489 50.0193,45.7759" id="Fill-107" fill="#004AFF"></path>
                </g>
                <polygon id="Fill-110" fill="#FFFFFF" points="206.55292 663.460701 333.58392 528.075701 335.30492 529.750701 209.90392 663.460701"></polygon>
                <g id="Group-133" transform="translate(173.757220, 422.000701)">
                    <path d="M157.0445,118.4756 L157.0445,111.3446 C157.0445,105.9796 161.4085,101.6166 166.7745,101.6166 C172.1385,101.6166 176.5025,105.9796 176.5025,111.3446 L176.5025,118.4756 C176.5025,123.8406 172.1385,128.2046 166.7745,128.2046 C161.4085,128.2046 157.0445,123.8406 157.0445,118.4756 M160.2945,111.3446 L160.2945,118.4756 C160.2945,122.0486 163.2015,124.9546 166.7745,124.9546 C170.3455,124.9546 173.2525,122.0486 173.2525,118.4756 L173.2525,111.3446 C173.2525,107.7726 170.3455,104.8666 166.7745,104.8666 C163.2015,104.8666 160.2945,107.7726 160.2945,111.3446" id="Fill-111" fill="#FFFFFF"></path>
                    <path d="M210.3131,33.8726 C206.1281,58.1686 196.3581,87.5386 173.5571,95.1776 C170.1991,96.3026 168.3631,99.7716 169.5491,103.1106 L169.6231,103.3196 C170.3701,105.4226 172.0771,106.9536 174.1951,107.4606 C184.0111,109.8136 212.6131,111.4246 235.4331,60.3186 L256.9511,1.3506 L251.3211,1.0456 C231.2881,-0.0364 213.7181,14.1016 210.3131,33.8726" id="Fill-113" fill="#FFCCE0"></path>
                    <path d="M164.1689,102.1152 C164.1689,105.5202 166.9299,108.2822 170.3359,108.2822 C173.7419,108.2822 176.5029,105.5202 176.5029,102.1152 C176.5029,98.7092 173.7419,95.9482 170.3359,95.9482 C166.9299,95.9482 164.1689,98.7092 164.1689,102.1152" id="Fill-115" fill="#FFCCE0"></path>
                    <path d="M22.8103,251.894 C22.8103,254.676 23.9453,257.216 25.7823,259.053 C27.6183,260.89 30.1583,262.024 32.9403,262.024 L53.6513,262.024 C59.2253,262.024 63.7823,257.468 63.7823,251.894 C63.7823,249.112 62.6473,246.572 60.8103,244.735 C60.4773,244.402 60.1173,244.086 59.7293,243.799 C58.0373,242.52 55.9213,241.764 53.6513,241.764 L32.9403,241.764 C27.3663,241.764 22.8103,246.32 22.8103,251.894" id="Fill-117" fill="#FA3D21"></path>
                    <path d="M0.3671,236.4678 L0.3671,235.5408 C0.3671,242.5018 6.0131,248.1478 12.9741,248.1478 L27.8321,248.1478 L27.8321,231.3268 C27.8321,230.1838 26.8861,229.2558 25.7421,229.2738 L6.2201,234.3428 L2.3931,234.4048 C1.2681,234.4238 0.3671,235.3418 0.3671,236.4678" id="Fill-119" fill="#FA3D21"></path>
                    <path d="M48.4819,270.2671 C48.7279,270.2671 48.9769,270.2331 49.2249,270.1621 C51.4729,269.5201 53.3839,267.8561 54.4669,265.5981 C55.5499,263.3391 55.6519,260.8061 54.7449,258.6511 C54.1669,257.2751 52.5849,256.6291 51.2079,257.2081 C49.8329,257.7871 49.1869,259.3701 49.7649,260.7461 C50.0679,261.4671 50.0049,262.4071 49.5959,263.2611 C49.1859,264.1151 48.4929,264.7521 47.7419,264.9661 C46.3069,265.3761 45.4759,266.8711 45.8859,268.3071 C46.2249,269.4931 47.3059,270.2671 48.4819,270.2671" id="Fill-121" fill="#FA3D21"></path>
                    <path d="M34.1164,270.8086 C34.9604,270.8086 35.7914,270.4146 36.3184,269.6736 C37.1844,268.4586 36.9004,266.7716 35.6864,265.9066 C35.1614,265.5326 34.8614,264.7756 34.9874,264.1446 C35.2804,262.6826 34.3324,261.2586 32.8694,260.9656 C31.4124,260.6766 29.9834,261.6206 29.6904,263.0836 C29.1464,265.7976 30.2954,268.7006 32.5514,270.3076 C33.0264,270.6456 33.5744,270.8086 34.1164,270.8086" id="Fill-123" fill="#FA3D21"></path>
                    <path d="M24.4668,235.0669 C24.5558,235.0669 24.6448,235.0629 24.7358,235.0539 C26.2198,234.9069 27.3048,233.5859 27.1578,232.0999 C26.9828,230.3229 28.4218,228.4029 30.1768,228.0729 C31.6428,227.7959 32.6068,226.3829 32.3308,224.9169 C32.0548,223.4499 30.6408,222.4889 29.1758,222.7629 C24.6458,223.6169 21.3288,228.0439 21.7818,232.6309 C21.9188,234.0259 23.0938,235.0669 24.4668,235.0669" id="Fill-125" fill="#FA3D21"></path>
                    <path d="M60.782,251.2749 C63.498,251.2749 66.213,250.2409 68.202,248.3799 C70.683,246.0599 71.956,242.5249 71.523,239.1539 C71.334,237.6749 69.979,236.6329 68.501,236.8189 C67.021,237.0089 65.975,238.3619 66.165,239.8419 C66.377,241.4949 65.727,243.2969 64.511,244.4339 C63.294,245.5729 61.452,246.1039 59.817,245.7799 C58.356,245.4879 56.934,246.4459 56.646,247.9109 C56.358,249.3749 57.312,250.7939 58.776,251.0819 C59.438,251.2119 60.11,251.2749 60.782,251.2749" id="Fill-127" fill="#FA3D21"></path>
                    <path d="M24.7724,268.9854 C24.9774,268.9854 25.1854,268.9624 25.3944,268.9114 C26.8464,268.5704 27.7464,267.1154 27.4044,265.6634 C26.7164,262.7424 27.7544,259.4334 29.9894,257.4304 C31.1004,256.4354 31.1934,254.7274 30.1974,253.6154 C29.2014,252.5054 27.4934,252.4124 26.3824,253.4084 C22.6624,256.7424 20.9994,262.0404 22.1454,266.9024 C22.4384,268.1464 23.5474,268.9854 24.7724,268.9854" id="Fill-129" fill="#FA3D21"></path>
                    <path d="M60.075,268.2593 C61.198,268.2593 62.247,267.5523 62.631,266.4303 C63.114,265.0183 62.361,263.4843 60.949,263.0013 C60.563,262.8683 60.204,262.5043 59.99,262.0273 C59.776,261.5513 58.842,259.2403 59,258.8633 C59.578,257.4883 58.931,255.9053 57.556,255.3273 C56.18,254.7523 54.597,255.3953 54.019,256.7713 C53.281,258.5273 54.232,262.3943 55.06,264.2393 C55.889,266.0843 57.398,267.4963 59.201,268.1133 C59.491,268.2123 59.786,268.2593 60.075,268.2593" id="Fill-131" fill="#FA3D21"></path>
                </g>
                <polygon id="Fill-134" fill="#FA3D21" points="196.80472 651.741901 215.12672 670.148901 201.72472 675.408901 192.75272 662.084901"></polygon>
                <polygon id="Fill-135" fill="#FFCCE0" points="450.89112 404.240401 450.89112 427.601401 432.48512 427.601401 432.48512 409.229401"></polygon>
                <g id="Group-164" transform="translate(380.757220, 381.000701)">
                    <path d="M57.688,310.6182 C57.71,311.2802 57.183,311.8082 56.532,311.8082 L34.407,311.8082 C33.711,311.8082 33.094,311.5282 32.645,311.0782 C32.195,310.6292 31.915,310.0122 31.915,309.3162 C31.915,308.1482 32.723,306.0152 33.868,305.7572 L42.579,304.0742 C42.321,304.0292 42.467,303.7932 42.657,303.5802 C42.826,303.3892 43.039,303.2212 43.039,303.2212 L42.826,301.5482 C42.68,300.7852 42.534,300.0102 42.388,299.2362 C38.47,278.6262 34.025,258.1392 30.355,237.4512 C29.041,230.0882 27.829,222.7132 26.707,215.3272 C26.482,214.0132 26.28,212.7002 26.089,211.3862 C25.427,206.9192 24.809,202.4402 24.248,197.9502 C24.214,197.6582 24.181,197.3672 24.136,197.0862 C23.833,194.6272 23.552,192.1802 23.283,189.7332 C23.215,189.1832 23.159,188.6332 23.103,188.0942 C22.8,185.2772 22.508,182.4592 22.261,179.6412 C21.969,176.5442 21.722,173.4342 21.521,170.3352 C21.464,169.4822 21.408,165.2512 21.352,164.3872 C21.318,163.8922 21.296,163.3992 21.262,162.8932 C21.296,162.7812 21.228,162.6802 21.06,162.5912 L21.06,156.8102 C21.272,156.6692 21.288,156.6582 21.5,156.5172 C22.79,157.0202 21.983,155.9242 21.868,155.3952 C26.426,151.8812 30.905,151.6462 35.675,148.3682 C36.439,147.8412 37.247,147.3692 37.999,146.8422 C38.168,146.7182 38.302,146.6282 38.414,146.5382 C38.538,146.4932 38.672,146.4372 38.863,146.3592 C40.76,145.5392 42.635,144.7532 44.599,144.1132 C44.521,144.1812 46.945,143.5522 47.147,143.5182 C48.607,143.2712 50.066,143.1032 51.548,142.9682 C52.523,142.8792 53.504,142.8102 54.488,142.7622 C55.873,142.6942 57.032,143.8072 57.011,145.1942 C56.881,153.6552 56.719,162.1432 56.565,170.6502 C56.487,174.6012 56.42,178.5522 56.341,182.5042 C56.15,193.4382 55.993,204.3932 55.903,215.3272 C55.825,225.5422 55.825,240.2242 55.937,250.3712 C56.016,258.1282 56.161,265.8632 56.397,273.5632 C56.555,278.7502 57.093,293.9712 57.441,303.5802 C57.554,306.7012 57.643,309.2262 57.688,310.6182" id="Fill-136" fill="#004AFF"></path>
                    <path d="M57.688,310.6182 C57.71,311.2802 57.183,311.8082 56.532,311.8082 L34.407,311.8082 C33.711,311.8082 33.094,311.5282 32.645,311.0782 C32.195,310.6292 31.915,310.0122 31.915,309.3162 C31.915,308.1482 32.723,306.0152 33.868,305.7572 L42.579,304.0742 C42.321,304.0292 42.467,303.7932 42.657,303.5802 L57.441,303.5802 C57.554,306.7012 57.643,309.2262 57.688,310.6182" id="Fill-138" fill="#004AFF"></path>
                    <path d="M101.4665,310.6182 C101.4885,311.2802 100.9615,311.8082 100.3105,311.8082 L78.1855,311.8082 C77.4895,311.8082 76.8725,311.5282 76.4235,311.0782 C75.9745,310.6292 75.6935,310.0122 75.6935,309.3162 C75.6935,308.1482 76.5015,306.0152 77.6465,305.7572 L86.3575,304.0742 C86.0995,304.0292 86.2455,303.7932 86.4365,303.5802 C86.6045,303.3892 86.8175,303.2212 86.8175,303.2212 L86.6045,301.5482 C86.4585,300.7852 86.3125,300.0102 86.1665,299.2362 C82.2485,278.6262 77.8035,258.1392 74.1325,237.4512 C72.8195,230.0882 71.6075,222.7132 70.4855,215.3272 C70.2605,214.0132 70.0575,212.7002 69.8675,211.3862 C69.2055,206.9192 68.5885,202.4402 68.0265,197.9502 C67.9925,197.6582 67.9595,197.3672 67.9145,197.0862 C67.6115,194.6272 67.3305,192.1802 67.0615,189.7332 C66.9935,189.1832 66.9385,188.6332 66.8815,188.0942 C66.5785,185.2772 66.2865,182.4592 66.0395,179.6412 C65.7475,176.5442 65.5005,173.4342 65.2985,170.3352 C65.2425,169.4822 65.1865,165.2512 65.1305,164.3872 C65.0965,163.8922 65.0745,163.3992 65.0405,162.8932 C65.0745,162.7812 65.0065,162.6802 64.8385,162.5912 L64.8385,156.8102 C65.0505,156.6692 65.0665,156.6582 65.2785,156.5172 C66.5695,157.0202 65.7615,155.9242 65.6465,155.3952 C70.2045,151.8812 74.6835,151.6462 79.4545,148.3682 C80.2175,147.8412 81.0255,147.3692 81.7775,146.8422 C81.9455,146.7182 82.0805,146.6282 82.1925,146.5382 C82.3165,146.4932 82.4505,146.4372 82.6415,146.3592 C84.5385,145.5392 86.4135,144.7532 88.3775,144.1132 C88.2995,144.1812 90.7245,143.5522 90.9265,143.5182 C92.3855,143.2712 93.8445,143.1032 95.3265,142.9682 C96.3015,142.8792 97.2825,142.8102 98.2665,142.7622 C99.6515,142.6942 100.8105,143.8072 100.7895,145.1942 C100.6595,153.6552 100.4975,162.1432 100.3445,170.6502 C100.2655,174.6012 100.1985,178.5522 100.1195,182.5042 C99.9285,193.4382 99.7715,204.3932 99.6815,215.3272 C99.6035,225.5422 99.6035,240.2242 99.7155,250.3712 C99.7945,258.1282 99.9405,265.8632 100.1755,273.5632 C100.3335,278.7502 100.8725,293.9712 101.2195,303.5802 C101.3315,306.7012 101.4215,309.2262 101.4665,310.6182" id="Fill-140" fill="#004AFF"></path>
                    <path d="M101.4665,310.6182 C101.4885,311.2802 100.9615,311.8082 100.3105,311.8082 L78.1855,311.8082 C77.4895,311.8082 76.8725,311.5282 76.4235,311.0782 C75.9745,310.6292 75.6935,310.0122 75.6935,309.3162 C75.6935,308.1482 76.5015,306.0152 77.6465,305.7572 L86.3575,304.0742 C86.0995,304.0292 86.2455,303.7932 86.4365,303.5802 L101.2195,303.5802 C101.3315,306.7012 101.4215,309.2262 101.4665,310.6182" id="Fill-142" fill="#004AFF"></path>
                    <path d="M89.0966,47.3623 C87.4936,46.7493 85.7746,46.0823 83.9216,45.5103 C71.6306,41.7723 54.1976,40.5043 39.7276,43.4333 C32.1956,44.9603 24.9366,47.0723 20.6896,51.6723 C-7.4634,82.1703 20.7576,163.6573 20.7576,163.6573 L102.5106,163.6573 C102.5106,163.6573 130.5626,63.2253 89.0966,47.3623" id="Fill-144" fill="#004AFF"></path>
                    <path d="M43.2565,18.2495 C43.9805,27.0415 51.6895,33.5755 60.4935,32.8515 C63.9855,32.5635 67.1325,31.1665 69.6005,29.0405 C70.2495,28.4815 70.8555,27.8625 71.4075,27.1845 C74.0115,24.1005 75.4425,19.9855 75.0835,15.6275 C74.5575,9.2475 70.3615,4.0545 64.7405,1.9755 C63.8265,1.6215 62.8695,1.3715 61.8945,1.1985 L61.8555,1.1885 C60.5615,0.9795 59.2275,0.9125 57.8715,1.0235 C57.5325,1.0515 57.1945,1.0925 56.8575,1.1455 C54.0585,1.5525 51.5205,2.6725 49.4045,4.3005 C45.2795,7.4985 42.7955,12.6475 43.2565,18.2495" id="Fill-146" fill="#FFCCE0"></path>
                    <path d="M47.0652,6.7256 C47.1142,6.7316 47.1612,6.7436 47.2112,6.7476 C47.5242,6.9896 47.1322,6.7916 47.0652,6.7256" id="Fill-148" fill="#FA3D21"></path>
                    <path d="M72.3454,15.5898 C72.5314,17.8448 74.5094,19.5218 76.7634,19.3358 C79.0174,19.1498 80.6954,17.1728 80.5094,14.9178 C80.3234,12.6638 78.3454,10.9858 76.0914,11.1718 C73.8364,11.3578 72.1594,13.3358 72.3454,15.5898" id="Fill-150" fill="#FFCCE0"></path>
                    <path d="M38.5156,15.5898 C38.7016,17.8448 40.6796,19.5218 42.9336,19.3358 C45.1886,19.1498 46.8656,17.1728 46.6796,14.9178 C46.4936,12.6638 44.5156,10.9858 42.2616,11.1718 C40.0066,11.3578 38.3306,13.3358 38.5156,15.5898" id="Fill-152" fill="#FFCCE0"></path>
                    <path d="M47.4015,13.5747 C47.4015,10.5477 58.3625,10.5477 58.3625,13.5747 C58.3625,16.6007 55.9085,19.0547 52.8815,19.0547 C49.8555,19.0547 47.4015,16.6007 47.4015,13.5747" id="Fill-154" fill="#004AFF"></path>
                    <path d="M60.1891,13.5747 C60.1891,10.5477 71.1501,10.5477 71.1501,13.5747 C71.1501,16.6007 68.6961,19.0547 65.6691,19.0547 C62.6431,19.0547 60.1891,16.6007 60.1891,13.5747" id="Fill-156" fill="#004AFF"></path>
                    <path d="M74.4653,15.0518 C74.4653,13.8558 75.4343,12.8858 76.6303,12.8858 C77.8263,12.8858 78.7953,13.8558 78.7953,15.0518 C78.7953,16.2478 77.8263,17.2168 76.6303,17.2168 C75.4343,17.2168 74.4653,16.2478 74.4653,15.0518" id="Fill-158" fill="#004AFF"></path>
                    <path d="M76.6303,15.0518 C76.6303,24.1178 73.3823,30.2078 64.5873,30.2078" id="Stroke-160" stroke="#004AFF" stroke-width="1.624" stroke-linecap="round"></path>
                    <path d="M49.9485,42.3481 L33.7425,86.7761 L0.8445,86.7761 C1.8345,82.7491 2.6465,78.7541 3.3125,74.8731 C6.7225,55.0961 24.2925,40.9681 44.3135,42.0401 L49.9485,42.3481 Z" id="Fill-162" fill="#004AFF"></path>
                </g>
                <g id="Group-167" transform="translate(402.757220, 428.000701)">
                    <mask id="mask-10" fill="white">
                        <use xlink:href="#path-9"></use>
                    </mask>
                    <g id="Clip-166"></g>
                    <path d="M27.6179,60.48 C28.4239,61.885 29.4699,63.04 30.7499,63.935 C32.0299,64.83 33.4979,65.491 35.1629,65.913 C36.8229,66.344 38.5499,66.552 40.3399,66.552 C41.6199,66.552 42.9629,66.407 44.3679,66.105 C45.7779,65.808 47.0529,65.34 48.2079,64.7 C49.3579,64.06 50.3149,63.212 51.0849,62.14 C51.8499,61.079 52.2349,59.736 52.2349,58.112 C52.2349,55.385 50.4239,53.341 46.7979,51.978 C43.1759,50.614 38.1239,49.251 31.6449,47.882 C29.0019,47.29 26.4209,46.587 23.9079,45.775 C21.3949,44.963 19.1569,43.902 17.1949,42.575 C15.2339,41.259 13.6569,39.594 12.4659,37.59 C11.2689,35.587 10.6759,33.136 10.6759,30.238 C10.6759,25.976 11.5029,22.479 13.1679,19.753 C14.8279,17.021 17.0239,14.872 19.7559,13.291 C22.4819,11.713 25.5469,10.605 28.9599,9.965 C32.3689,9.33 35.8649,9.008 39.4449,9.008 C43.0249,9.008 46.5009,9.352 49.8679,10.033 C53.2339,10.714 56.2419,11.865 58.8849,13.483 C61.5229,15.106 63.7189,17.255 65.4669,19.94 C67.2159,22.625 68.2619,26.018 68.6049,30.107 L51.3399,30.107 C51.0849,26.617 49.7579,24.249 47.3749,23.01 C44.9869,21.777 42.1719,21.157 38.9349,21.157 C37.9099,21.157 36.8019,21.22 35.6099,21.35 C34.4129,21.476 33.3259,21.756 32.3479,22.178 C31.3699,22.609 30.5369,23.224 29.8549,24.036 C29.1739,24.847 28.8299,25.935 28.8299,27.297 C28.8299,28.916 29.4289,30.238 30.6199,31.257 C31.8169,32.282 33.3729,33.115 35.2879,33.755 C37.2079,34.39 39.4039,34.968 41.8749,35.478 C44.3469,35.992 46.8649,36.544 49.4199,37.143 C52.0639,37.741 54.6439,38.464 57.1579,39.318 C59.6709,40.171 61.9079,41.3 63.8699,42.705 C65.8319,44.11 67.4079,45.858 68.6049,47.95 C69.7969,50.037 70.3949,52.618 70.3949,55.682 C70.3949,60.033 69.5159,63.675 67.7729,66.62 C66.0239,69.56 63.7449,71.927 60.9299,73.717 C58.1149,75.507 54.8989,76.767 51.2729,77.489 C47.6509,78.213 43.9619,78.572 40.2149,78.572 C36.3749,78.572 32.6239,78.192 28.9599,77.422 C25.2919,76.657 22.0349,75.377 19.1779,73.587 C16.3209,71.797 13.9749,69.43 12.1429,66.49 C10.3109,63.55 9.3069,59.86 9.1409,55.428 L26.3999,55.428 C26.3999,57.389 26.8059,59.075 27.6179,60.48" id="Fill-165" fill="#FFFFFF" mask="url(#mask-10)"></path>
                </g>
                <path d="M667.35972,655.099301 C667.60172,653.213301 669.32872,651.885301 671.21272,652.123301 C673.09972,652.365301 674.43272,654.090301 674.18972,655.976301 C673.91972,658.082301 674.74772,660.381301 676.29772,661.829301 C677.26172,662.731301 678.53372,663.333301 679.85872,663.562301 C680.21672,663.088301 680.59572,662.632301 681.01472,662.213301 C681.43972,661.788301 681.89872,661.387301 682.39272,661.019301 C684.54972,659.389301 687.24772,658.425301 690.13972,658.425301 L712.23472,658.425301 L712.23472,641.002301 C712.23472,640.501301 712.38472,640.037301 712.63072,639.640301 C711.97172,638.261301 710.69972,637.128301 709.24572,636.854301 C707.37772,636.501301 706.14772,634.701301 706.49972,632.832301 C706.85172,630.963301 708.65372,629.737301 710.52172,630.086301 C713.86672,630.717301 716.68572,632.881301 718.35972,635.724301 C718.81572,629.724301 721.65472,627.414301 724.15972,626.567301 C725.95872,625.958301 727.91472,626.924301 728.52472,628.726301 C729.13372,630.528301 728.16672,632.482301 726.36572,633.091301 C725.72172,633.308301 725.10772,634.908301 725.18072,637.915301 C725.57672,638.052301 725.93572,638.287301 726.26672,638.568301 L739.78172,638.787301 L744.65972,638.867301 C746.09372,638.891301 747.24172,640.060301 747.24172,641.495301 L747.24172,646.373301 C747.24172,655.246301 740.04572,662.443301 731.17272,662.443301 L725.86372,662.443301 C728.07872,664.763301 729.45072,667.894301 729.45072,671.337301 C729.45072,674.211301 728.48972,676.872301 726.88472,679.028301 C728.01872,682.205301 728.27672,685.692301 727.49172,689.023301 C727.11872,690.609301 725.70372,691.677301 724.14272,691.677301 C723.88172,691.677301 723.61572,691.647301 723.35072,691.584301 C721.49972,691.148301 720.35272,689.295301 720.78872,687.443301 C721.09372,686.147301 721.11672,684.793301 720.91672,683.468301 C719.94972,683.819301 718.93472,684.070301 717.87772,684.180301 C718.55872,687.632301 717.09572,691.319301 714.22772,693.362301 C713.62172,693.793301 712.92372,694.000301 712.23272,694.000301 C711.15672,694.000301 710.09772,693.498301 709.42572,692.554301 C708.32272,691.006301 708.68372,688.855301 710.23172,687.753301 C710.90072,687.277301 711.28372,686.312301 711.12272,685.508301 C711.03672,685.080301 711.04372,684.656301 711.11272,684.250301 L694.40672,684.250301 C694.47372,684.461301 694.54172,684.674301 694.63972,684.879301 C695.16172,685.967301 696.04572,686.780301 697.00372,687.053301 C698.83272,687.576301 699.89172,689.482301 699.36972,691.310301 C698.93672,692.823301 697.55772,693.809301 696.05972,693.809301 C695.74572,693.809301 695.42872,693.766301 695.11272,693.676301 C692.24772,692.858301 689.81172,690.737301 688.43072,687.857301 C688.13772,687.246301 687.91272,686.617301 687.73272,685.981301 C687.71372,686.026301 687.69372,686.083301 687.67472,686.127301 C686.61872,688.478301 684.69572,690.279301 682.39572,691.064301 C682.02772,691.190301 681.65172,691.250301 681.28272,691.250301 C679.85072,691.250301 678.51372,690.351301 678.02472,688.920301 C677.40972,687.120301 678.36972,685.163301 680.16872,684.548301 C680.66172,684.380301 681.11872,683.915301 681.39172,683.306301 C681.51772,683.025301 681.83872,682.243301 682.12872,681.437301 C679.15072,679.066301 677.22772,675.419301 677.22772,671.337301 C677.22772,670.896301 677.25072,670.459301 677.29372,670.028301 C675.17972,669.438301 673.19972,668.362301 671.59272,666.858301 C668.43172,663.902301 666.80872,659.396301 667.35972,655.099301" id="Fill-168" fill="#FFFFFF"></path>
                <polygon id="Fill-170" fill="#FFFFFF" points="711.59532 656.284901 550.19732 532.033901 548.37432 533.806901 711.62132 659.112901"></polygon>
                <g id="Group-191" transform="translate(634.757220, 638.000701)">
                    <path d="M112.4847,3.4951 L112.4847,8.3731 L108.4677,8.3731 C106.5737,8.3731 105.0237,6.8241 105.0237,4.9301 L105.0237,0.7861 L109.9017,0.8671 C111.3367,0.8891 112.4847,2.0601 112.4847,3.4951" id="Fill-171" fill="#FA3D21"></path>
                    <path d="M93.2705,29.916 L75.9715,22.271 C74.6795,21.666 74.1235,20.128 74.7285,18.837 L74.8915,18.49 C75.4965,17.199 77.0345,16.643 78.3265,17.248 L95.6255,24.892 C96.9175,25.498 97.4735,27.036 96.8675,28.327 L96.7055,28.673 C96.0995,29.965 94.5625,30.521 93.2705,29.916" id="Fill-173" fill="#FA3D21"></path>
                    <path d="M49.0585,35.894 C49.0585,38.676 47.9235,41.216 46.0865,43.053 C44.2505,44.89 41.7105,46.024 38.9285,46.024 L18.2175,46.024 C12.6435,46.024 8.0865,41.468 8.0865,35.894 C8.0865,33.112 9.2215,30.572 11.0585,28.735 C11.3915,28.402 11.7515,28.086 12.1385,27.799 C13.8315,26.52 15.9475,25.764 18.2175,25.764 L38.9285,25.764 C44.5025,25.764 49.0585,30.32 49.0585,35.894" id="Fill-175" fill="#004AFF"></path>
                    <path d="M71.5017,20.4678 L71.5017,19.5408 C71.5017,26.5018 65.8557,32.1478 58.8947,32.1478 L44.0367,32.1478 L44.0367,15.3268 C44.0367,14.1838 44.9827,13.2558 46.1267,13.2738 L65.6487,18.3428 L69.4757,18.4048 C70.6007,18.4238 71.5017,19.3418 71.5017,20.4678" id="Fill-177" fill="#004AFF"></path>
                    <path d="M23.3868,54.2671 C23.1408,54.2671 22.8918,54.2331 22.6438,54.1621 C20.3958,53.5201 18.4848,51.8561 17.4018,49.5981 C16.3188,47.3391 16.2168,44.8061 17.1238,42.6511 C17.7018,41.2751 19.2838,40.6291 20.6608,41.2081 C22.0358,41.7871 22.6818,43.3701 22.1038,44.7461 C21.8008,45.4671 21.8638,46.4071 22.2728,47.2611 C22.6828,48.1151 23.3758,48.7521 24.1268,48.9661 C25.5618,49.3761 26.3928,50.8711 25.9828,52.3071 C25.6438,53.4931 24.5628,54.2671 23.3868,54.2671" id="Fill-179" fill="#004AFF"></path>
                    <path d="M37.7526,54.8086 C36.9086,54.8086 36.0766,54.4146 35.5496,53.6736 C34.6846,52.4586 34.9676,50.7716 36.1826,49.9066 C36.7076,49.5326 37.0076,48.7756 36.8816,48.1446 C36.5886,46.6826 37.5366,45.2586 38.9996,44.9656 C40.4566,44.6766 41.8856,45.6206 42.1786,47.0836 C42.7226,49.7976 41.5726,52.7006 39.3176,54.3076 C38.8426,54.6456 38.2946,54.8086 37.7526,54.8086" id="Fill-181" fill="#004AFF"></path>
                    <path d="M47.402,19.0669 C47.313,19.0669 47.224,19.0629 47.133,19.0539 C45.649,18.9069 44.564,17.5859 44.711,16.0999 C44.886,14.3229 43.448,12.4029 41.692,12.0729 C40.226,11.7959 39.262,10.3829 39.538,8.9169 C39.814,7.4499 41.228,6.4889 42.693,6.7629 C47.223,7.6169 50.54,12.0439 50.087,16.6309 C49.95,18.0259 48.775,19.0669 47.402,19.0669" id="Fill-183" fill="#004AFF"></path>
                    <path d="M11.0868,35.2749 C8.3708,35.2749 5.6558,34.2409 3.6668,32.3799 C1.1858,30.0599 -0.0872,26.5249 0.3448,23.1539 C0.5348,21.6749 1.8898,20.6329 3.3678,20.8189 C4.8478,21.0089 5.8938,22.3619 5.7038,23.8419 C5.4918,25.4949 6.1418,27.2969 7.3578,28.4339 C8.5748,29.5729 10.4168,30.1039 12.0508,29.7799 C13.5128,29.4879 14.9348,30.4459 15.2228,31.9109 C15.5108,33.3749 14.5568,34.7939 13.0928,35.0819 C12.4308,35.2119 11.7588,35.2749 11.0868,35.2749" id="Fill-185" fill="#004AFF"></path>
                    <path d="M47.0964,52.9854 C46.8914,52.9854 46.6834,52.9624 46.4744,52.9114 C45.0224,52.5704 44.1224,51.1154 44.4644,49.6634 C45.1524,46.7424 44.1144,43.4334 41.8794,41.4304 C40.7684,40.4354 40.6754,38.7274 41.6714,37.6154 C42.6674,36.5054 44.3754,36.4124 45.4864,37.4084 C49.2064,40.7424 50.8694,46.0404 49.7234,50.9024 C49.4304,52.1464 48.3214,52.9854 47.0964,52.9854" id="Fill-187" fill="#004AFF"></path>
                    <path d="M11.7937,52.2593 C10.6707,52.2593 9.6207,51.5523 9.2377,50.4303 C8.7547,49.0183 9.5087,47.4843 10.9197,47.0013 C11.3057,46.8683 11.6647,46.5043 11.8787,46.0273 C12.0927,45.5513 13.0267,43.2403 12.8687,42.8633 C12.2907,41.4883 12.9377,39.9053 14.3127,39.3273 C15.6887,38.7523 17.2717,39.3953 17.8497,40.7713 C18.5877,42.5273 17.6367,46.3943 16.8087,48.2393 C15.9797,50.0843 14.4707,51.4963 12.6677,52.1133 C12.3777,52.2123 12.0827,52.2593 11.7937,52.2593" id="Fill-189" fill="#004AFF"></path>
                </g>
                <polygon id="Fill-192" fill="#004AFF" points="683.57852 651.741901 665.25652 670.148901 678.65852 675.408901 687.63052 662.084901"></polygon>
            </g>
        </g>
    </g>
</svg>