<?xml version="1.0" encoding="UTF-8"?>
<svg width="194px" height="1024px" viewBox="0 0 194 1024" version="1.1" xmlns="http://www.w3.org/2000/svg" xmlns:xlink="http://www.w3.org/1999/xlink">
    <!-- Generator: sketchtool 51.3 (57544) - http://www.bohemiancoding.com/sketch -->
    <title>83E84F06-9BF8-464C-890F-4E85D78A3E57</title>
    <desc>Created with sketchtool.</desc>
    <defs>
        <polygon id="path-1" points="0.479658368 0.376816625 18.2565432 0.376816625 18.2565432 20.5936695 0.479658368 20.5936695"></polygon>
    </defs>
    <g id="Page-1" stroke="none" stroke-width="1" fill="none" fill-rule="evenodd">
        <g id="Main-#3" transform="translate(-1246.000000, 0.000000)">
            <g id="Group-24" transform="translate(1246.000000, 0.000000)">
                <g id="Group-23">
                    <path d="M170.25,3.7163761 L170.25,1025.71638" id="Line-4-Copy" stroke="#224FDA" stroke-width="2" stroke-linecap="square"></path>
                    <g id="Group-9" transform="translate(60.220254, 201.324910)">
                        <path d="M4.108611,6.51792008 C5.25316631,5.43683922 6.66169476,4.77287624 8.17903657,4.35273578 C10.1175264,5.98493613 12.2827107,7.17886047 14.6322732,8.25994132 C14.4569627,8.3435664 14.2806448,8.42416888 14.1013043,8.49973371 C14.140598,11.0437497 16.0518844,13.5656 18.3782737,14.8733753 C21.2779482,16.5055757 24.6965011,16.8662718 27.8843295,17.8214113 C31.7965727,18.995185 33.7461453,22.9920608 33.2353271,26.887176 C32.5209875,32.3469869 27.7080115,35.0532154 22.5413921,35.2255032 C17.0866189,35.4068588 11.5915443,33.3212695 7.63194719,29.5651936 C3.67235004,25.8091177 1.29961434,20.4309168 1.19382358,14.975136 C1.13437925,11.9041812 1.87592212,8.62668263 4.108611,6.51792008" id="Fill-1" fill="#004AFF"></path>
                        <path d="M14.1395905,14.215659 C10.9829956,17.3722539 5.86574521,17.3722539 2.70915033,14.215659 C-0.446437022,11.0590642 -0.446437022,5.9418138 2.70915033,2.78521892 C5.86574521,-0.370368426 10.9829956,-0.370368426 14.1395905,2.78622645 C17.2961853,5.9418138 17.2961853,11.0590642 14.1395905,14.215659" id="Fill-3" fill="#004AFF"></path>
                        <path d="M16.808641,9.74373234 C16.808641,13.605599 13.678242,16.7349905 9.81234521,16.7349905 C8.27485278,16.7349905 6.85322642,16.2413003 5.6985958,15.4000118 C3.9545595,14.1295151 2.8200795,12.0681065 2.8200795,9.74373234 C2.8200795,5.87783558 5.95047857,2.74743651 9.81234521,2.74743651 C9.95843721,2.74743651 10.1095669,2.75247416 10.2556589,2.76254947 C13.9150118,2.98924397 16.808641,6.02392759 16.808641,9.74373234" id="Fill-5" fill="#FFCCE0"></path>
                        <path d="M11.8600514,2.03773161 C11.134629,1.99743037 10.3447246,1.84428565 9.55179767,1.66696018 C9.24248563,1.82211996 8.87473678,1.91380529 8.44149842,1.91380529 C8.15838218,1.91380529 7.8994467,1.87350405 7.66166936,1.80297687 L4.74486688,3.80091101 C2.58875036,4.99181275 1.12581523,7.2819309 1.12581523,9.92166233 C1.12581523,11.9931462 2.03057814,13.8520411 3.46127228,15.1316056 C3.7796521,15.4812188 3.1378548,16.5340888 3.51970908,16.8121674 L7.29392052,6.94239292 L11.6535075,2.66240088 C11.8207577,2.46996245 11.0913052,3.16314383 11.2081788,2.94551712 C11.1376516,2.94450959 11.9305786,2.04176174 11.8600514,2.03773161" id="Fill-7" fill="#2161A8"></path>
                    </g>
                    <polygon id="Fill-10" fill="#FFCCE0" points="61.9033348 210.103931 61.9809147 224.691974 68.9036608 226.91358 68.7172675 215.721925"></polygon>
                    <g id="Group-33" transform="translate(35.031977, 201.324910)">
                        <path d="M33.2118516,9.36641195 C33.2118516,10.7316166 32.1045749,11.8399008 30.7393703,11.8399008 C29.3731582,11.8399008 28.2658815,10.7316166 28.2658815,9.36641195 C28.2658815,8.00120733 29.3731582,6.89393068 30.7393703,6.89393068 C32.1045749,6.89393068 33.2118516,8.00120733 33.2118516,9.36641195" id="Fill-11" fill="#FFCCE0"></path>
                        <path d="M26.6872818,15.9172783 C28.0635693,13.6644388 30.6247133,12.4473412 33.1062623,11.5466085 C35.5878114,10.6468832 39.561514,9.89425749 41.5584406,8.16634168 C42.8541255,7.04395205 43.8556114,5.3664128 43.5654425,3.67678318 C43.2903865,2.06876357 41.8375267,0.808342187 40.2345447,0.512128049 C38.6305552,0.216921442 35.6029243,0.110123147 34.3163071,1.11160904 C33.500207,1.74534609 32.8241536,3.21533394 32.0080534,3.84907099 C30.1531887,5.29286303 27.52051,5.97496158 26.5079413,8.09480697 C25.2575952,10.7123727 27.2706423,13.8780354 26.5049187,16.6749417 L26.6872818,15.9172783 Z" id="Fill-13" fill="#004AFF"></path>
                        <path d="M44.6154914,80.7647998 L48.7755872,86.4654107 L48.0249766,113.57908 L47.5302788,131.218934 L47.3761265,136.849018 L59.2579406,136.849018 C60.2332307,136.849018 60.9788037,136.059113 60.9788037,135.1342 C60.9788037,135.025386 60.9657058,134.903475 60.93951,134.781564 C60.8367418,134.261678 60.4901511,133.819372 60.0025061,133.587639 L55.0666113,131.218934 L53.6731958,130.551948 L56.8700919,113.57908 L61.8382277,87.1646373 C62.4669271,83.8014985 61.9732369,80.3285389 60.4256691,77.2726971 L44.5761977,45.877021 L37.6373311,48.2648697 L24.279484,52.8672717 L44.6154914,80.7647998 Z" id="Fill-15" fill="#FA3D21"></path>
                        <path d="M20.8110583,136.848614 L29.977576,136.848614 C30.6455692,136.848614 31.2581481,136.380113 31.3458033,135.718165 C31.419353,135.15697 31.1543724,134.638091 30.6768026,134.371096 L25.0608244,131.250772 L25.0729147,131.219538 L31.8646818,113.579684 L41.6659441,88.1153436 C42.5717146,85.7657811 42.8860643,83.2429233 42.5969029,80.7643968 C42.5394736,80.2576087 42.4558485,79.7508205 42.3470351,79.2500776 L35.6187426,48.2654742 L35.5542606,47.9763128 L24.5842622,48.7400214 C21.7712354,48.9747761 19.3017767,53.0996084 18.5481435,56.8043001 C18.1733419,58.646067 18.4574657,60.560376 19.2715508,62.2540358 L28.5579648,81.5603464 L22.4160553,113.579684 L19.0398186,131.219538 L18.7627476,132.650232 L18.5189251,134.140371 C18.2761101,135.558975 19.3662587,136.848614 20.8110583,136.848614" id="Fill-17" fill="#FA3D21"></path>
                        <path d="M41.1104922,26.2070925 L60.2233569,28.2624559 L69.6558629,2.1653858 C69.8432636,1.69688385 70.2200803,1.33014253 70.6926123,1.15483213 C71.9852747,0.675247331 73.3101781,1.77849387 73.0734083,3.1376533 L67.259954,34.1534901 C66.8750771,36.3529305 64.8287814,37.860197 62.6142281,37.5760732 L38.8767958,37.2828817 C35.2708421,36.8194174 33.0290854,33.126816 34.2814466,29.7133006 C35.2980454,26.9446052 38.2682471,25.4192032 41.1104922,26.2070925" id="Fill-19" fill="#FFCCE0"></path>
                        <path d="M48.4908589,54.6261187 L47.6203521,39.4728512 C48.2581192,34.9127655 46.774026,30.3113711 43.5902277,26.9834959 C41.2839891,24.5724741 38.0619047,23.2556309 34.7269768,23.3594066 L23.2653032,23.7160726 C20.4835099,23.8027203 18.3717248,25.9286109 18.6729766,28.3396328 L19.222081,54.4276351 L48.4908589,54.6261187 Z" id="Fill-21" fill="#FFFFFF"></path>
                        <path d="M1.45064325,47.3573865 L18.3862332,73.9813953 C18.7428992,74.5264696 19.3151769,74.7954804 19.8804018,74.7954804 C20.5191765,74.7954804 21.151906,74.458965 21.4813687,73.8060849 C21.7040331,73.3557185 21.7302289,72.8307948 21.5488733,72.3602778 L10.6080933,46.8526134 L14.4236135,43.9861875 L25.9759649,35.300262 C27.8932965,34.2907159 29.0166937,32.3260302 29.0166937,30.2736894 C29.0166937,29.5402068 28.8685866,28.7936263 28.5663273,28.0742491 C27.146716,24.7232007 22.9886352,23.5584948 20.0416068,25.6853929 L7.95727898,36.7057679 L2.50049064,41.6849865 C0.690964816,42.9907468 0.226492987,45.4874088 1.45064325,47.3573865" id="Fill-23" fill="#FFCCE0"></path>
                        <path d="M47.376328,136.848614 L59.2581421,136.848614 C60.2334322,136.848614 60.9779977,136.059718 60.9779977,135.134804 C60.9779977,135.024983 60.9659073,134.90408 60.9397115,134.782168 C60.8369433,134.262282 60.4903526,133.818969 60.0027076,133.588244 L55.0658053,131.219538 L53.6733973,130.551545 L56.8702934,113.579684 L48.0241705,113.579684 L47.5304803,131.219538 L47.376328,136.848614 Z" id="Fill-25" fill="#FFCCE0"></path>
                        <path d="M20.8110583,136.848614 L30.042058,136.848614 C30.7674804,136.848614 31.3578936,136.258201 31.3578936,135.532779 C31.3578936,135.045134 31.1009732,134.608873 30.6768026,134.371096 L25.0608244,131.250772 L25.0729147,131.219538 L31.8646818,113.579684 L22.4160553,113.579684 L19.0398186,131.219538 L18.7627476,132.650232 L18.5189251,134.140371 C18.2761101,135.558975 19.3662587,136.848614 20.8110583,136.848614" id="Fill-27" fill="#FFCCE0"></path>
                        <path d="M47.5304803,131.219135 L47.376328,136.848211 L59.2581421,136.848211 C60.2334322,136.848211 60.9779977,136.059315 60.9779977,135.134401 C60.9779977,135.025588 60.9659073,134.903676 60.9397115,134.781765 C60.8369433,134.261879 60.4903526,133.819573 60.0027076,133.587841 L55.0658053,131.219135 L47.5304803,131.219135 Z" id="Fill-29" fill="#FA3D21"></path>
                        <path d="M20.8110583,136.848614 L30.042058,136.848614 C30.7674804,136.848614 31.3578936,136.258201 31.3578936,135.532779 C31.3578936,135.045134 31.1009732,134.608873 30.6768026,134.371096 L25.0608244,131.250772 L25.0729147,131.219538 L19.0398186,131.219538 L18.7627476,132.650232 L18.5189251,134.140371 C18.2761101,135.558975 19.3662587,136.848614 20.8110583,136.848614" id="Fill-31" fill="#FA3D21"></path>
                    </g>
                    <polygon id="Fill-34" fill="#FA3D21" points="70.8821496 202.052045 60.0078666 190.825126 61.4032971 207.292214"></polygon>
                    <g id="Group-39" transform="translate(16.896418, 134.827859)">
                        <path d="M41.2296832,53.0370407 C41.1984497,53.7584329 41.7596445,54.3689968 42.4810368,54.3992227 C43.202429,54.4294486 43.8129929,53.8692614 43.8432188,53.1478691 C43.8734447,52.4264768 43.3132575,51.8169205 42.5918652,51.7856871 C41.8704729,51.7554611 41.2599091,52.3156484 41.2296832,53.0370407" id="Fill-35" fill="#FA3D21"></path>
                        <path d="M1.21165688,4.56099246 C2.23732352,5.5866591 3.89974981,5.5866591 4.92541645,4.56099246 C5.95108309,3.53532581 5.95108309,1.87289953 4.92541645,0.847232887 C3.89974981,-0.178433755 2.23732352,-0.178433755 1.21165688,0.847232887 C0.185990238,1.87289953 0.185990238,3.53532581 1.21165688,4.56099246" id="Fill-37" fill="#40C7F5"></path>
                    </g>
                    <polygon id="Fill-40" fill="#5CC4C9" points="23.0598883 163.323558 26.3615676 160.022886 23.0598883 156.721207 19.7582089 160.022886"></polygon>
                    <polygon id="Fill-41" fill="#FFCCE0" points="0.775920309 158.913897 5.44481934 158.913897 5.44481934 154.244998 0.775920309 154.244998"></polygon>
                    <polygon id="Fill-42" fill="#5CC4C9" points="62.0176896 153.198173 66.6865886 153.198173 66.6865886 148.529274 62.0176896 148.529274"></polygon>
                    <polygon id="Fill-43" fill="#FFCCE0" points="73.9436335 174.230787 70.6419542 177.531459 73.9436335 180.833138 77.2453129 177.531459"></polygon>
                    <g id="Group-55" transform="translate(9.843700, 125.760079)">
                        <path d="M71.4064481,33.1536163 C71.4064481,31.7037791 72.5822369,30.5279903 74.0320741,30.5279903 C75.4829189,30.5279903 76.6587076,31.7037791 76.6587076,33.1536163 C76.6587076,34.6034535 75.4829189,35.7802498 74.0320741,35.7802498 C72.5822369,35.7802498 71.4064481,34.6034535 71.4064481,33.1536163" id="Fill-44" fill="#40C7F5"></path>
                        <g id="Group-48" transform="translate(86.647673, 0.000000)">
                            <mask id="mask-2" fill="white">
                                <use xlink:href="#path-1"></use>
                            </mask>
                            <g id="Clip-47"></g>
                            <path d="M1.37658972,9.45940707 C2.70753828,10.9989146 4.46366495,10.8044611 5.87420847,10.6482937 C7.22026999,10.4991791 8.01118189,10.4488026 8.61670807,11.1490367 C9.22223425,11.8492708 9.05699916,12.6240622 8.71443859,13.9338526 C8.35575752,15.3071175 7.90841372,17.0158902 9.23936228,18.5553977 C10.5703108,20.0949052 12.32543,19.9004517 13.7359735,19.7432768 C15.082035,19.5941622 15.8729469,19.5437857 16.4784731,20.2440198 C16.8442069,20.6661753 17.4829816,20.7125217 17.9061446,20.3477955 C18.3293077,19.9820617 18.3756541,19.343287 18.0099204,18.9201239 C16.6789718,17.3796089 14.9238526,17.5750699 13.5133091,17.7312373 C12.1672476,17.8813594 11.3763357,17.9317359 10.7708095,17.2315018 C10.1662909,16.5322753 10.3305184,15.7564763 10.673079,14.4466859 C11.0327676,13.0734211 11.4791039,11.3656559 10.1481553,9.82514085 C8.81720676,8.28563336 7.06208761,8.48008686 5.65053657,8.63726171 C4.30447504,8.78637631 3.51356314,8.83574533 2.90803696,8.13551123 C2.30251078,7.43527713 2.46673835,6.65947819 2.80929892,5.34868026 C3.16797998,3.97541539 3.61431625,2.26664268 2.28336769,0.727135182 C1.91763391,0.303972127 1.2788592,0.257625698 0.855696148,0.622351949 C0.432533094,0.988085732 0.386186664,1.62786797 0.751920447,2.05002349 C1.35744663,2.75126513 1.19321906,3.52706406 0.850658493,4.83685447 C0.491977427,6.21011933 0.045641158,7.91889205 1.37658972,9.45940707" id="Fill-46" fill="#FF6E8C" mask="url(#mask-2)"></path>
                        </g>
                        <path d="M1.40439758,85.3513836 C2.73534613,86.8908911 4.49147281,86.6964376 5.90201633,86.5402702 C7.24807785,86.3911556 8.03898975,86.3407791 8.64552346,87.0410132 C9.25004211,87.7412473 9.08480701,88.5160387 8.74224645,89.8258291 C8.38356538,91.199094 7.93622158,92.9078667 9.26717014,94.4473742 C10.5981187,95.9868817 12.3532378,95.7914206 13.7637814,95.6352533 C15.1098429,95.4861387 15.9007548,95.4357622 16.506281,96.1359963 C16.8720147,96.5581518 17.5107895,96.6044982 17.9339525,96.239772 C18.3571156,95.8740382 18.403462,95.2342559 18.0377282,94.8121004 C16.7067796,93.2715854 14.9516605,93.4670464 13.541117,93.6232137 C12.1950555,93.7723283 11.4041436,93.8237124 10.7986174,93.1234783 C10.1940987,92.4242518 10.3583263,91.6484528 10.7008869,90.3386624 C11.0605755,88.9653976 11.5069117,87.2566248 10.1759632,85.7171173 C8.84501462,84.1766023 7.08989547,84.3720634 5.67834443,84.5282307 C4.3322829,84.6773453 3.541371,84.7277218 2.93584482,84.0274877 C2.33031864,83.3272536 2.49454621,82.5514547 2.83710677,81.2406568 C3.19578784,79.8673919 3.64212411,78.1586192 2.31117555,76.6191117 C1.94544177,76.1959486 1.30666706,76.1496022 0.883504006,76.5143284 C0.460340951,76.8800622 0.413994522,77.5198445 0.779728304,77.942 C1.38525448,78.6432416 1.22102692,79.418033 0.87846635,80.728831 C0.519785285,82.1020958 0.0734490159,83.8108685 1.40439758,85.3513836" id="Fill-49" fill="#FF6E8C"></path>
                        <path d="M119.495101,69.3124963 C120.855268,67.7971695 120.440165,66.0803366 120.10768,64.7010265 C119.790307,63.3841834 119.640185,62.6053619 120.258809,61.9162106 C120.876426,61.2280669 121.66633,61.2935564 123.009369,61.4678593 C124.415882,61.6512299 126.167979,61.8799395 127.527138,60.3656203 C128.886298,58.8502935 128.472203,57.1334606 128.13871,55.7541505 C127.82033,54.4373074 127.671215,53.6594934 128.288832,52.9703421 C128.662626,52.5552393 128.627362,51.9144495 128.21226,51.541663 C127.796149,51.167869 127.156367,51.2021251 126.782573,51.6182354 C125.423414,53.1335622 125.837509,54.8503951 126.171002,56.2297052 C126.488374,57.5455408 126.638496,58.3243623 126.020879,59.012506 C125.403263,59.7006497 124.613359,59.6361678 123.27032,59.4608574 C121.862799,59.2774867 120.11171,59.0497847 118.75255,60.5641039 C117.392383,62.0794306 117.806479,63.7962636 118.139971,65.1755736 C118.457344,66.4924168 118.607466,67.2712383 117.988842,67.9603896 C117.370218,68.6495408 116.580313,68.5840513 115.237274,68.4097484 C113.829753,68.2263778 112.077657,67.9996833 110.71749,69.5140025 C110.344703,69.9301128 110.378959,70.5709026 110.79507,70.9436891 C111.21118,71.3174831 111.850962,71.2832271 112.223749,70.8661092 C112.842373,70.1769579 113.633285,70.2424475 114.976324,70.4167503 C116.383845,70.600121 118.134934,70.8268155 119.495101,69.3124963" id="Fill-51" fill="#5CC4C9"></path>
                        <path d="M51.2384969,293.087769 C51.3039865,291.664128 52.746771,290.725109 54.0746969,291.241972 C54.822285,291.533149 55.3361259,292.227338 55.3965777,293.025302 L56.7910007,311.459091 C56.8907463,312.770896 57.9063376,313.827796 59.2131055,313.979934 L69.9735374,316.880616 C69.5151108,319.103229 62.1480435,318.883587 61.532442,321.020561 C61.2342128,322.056303 60.8715016,323.041668 60.4896473,324.008898 L53.5598486,322.109702 C51.4520935,321.532387 50.0254295,319.570724 50.1251751,317.387404 L51.2384969,293.087769 Z" id="Fill-53" fill="#FFCCE0"></path>
                    </g>
                    <polygon id="Fill-56" fill="#FFFFFF" points="76.2175304 425.003158 33.7430426 405.205172 30.5028226 417.083964 75.4971457 427.522993"></polygon>
                    <g id="Group-69" transform="translate(66.265441, 482.426082)">
                        <path d="M31.4281185,72.2328251 C31.5258491,73.8468899 31.4795026,73.266552 31.3727043,71.3623183 C31.2921019,69.9527823 31.2235897,68.5361936 31.1591077,67.1175898 L23.3255536,67.1175898 C23.6701292,68.8868144 24.0126898,70.6570465 24.3492052,72.4272786 L24.3492052,72.4282861 C24.7824435,72.3638042 25.2207196,72.2983146 25.6589956,72.2328251 L31.4281185,72.2328251 Z" id="Fill-57" fill="#FFCCE0"></path>
                        <path d="M20.6281914,75.3192958 L24.6744362,74.1475372 L24.6744362,74.1465296 L20.6271838,75.3182883 C20.5737847,75.3968757 20.5294533,75.4744556 20.485122,75.5631184 C20.3964592,75.7565643 20.3571655,75.9631082 20.3551505,76.1696521 C20.3571655,75.9631082 20.3974668,75.7555568 20.487137,75.5600958 C20.5274383,75.4754631 20.5727772,75.3948607 20.6281914,75.3192958" id="Fill-59" fill="#FFCCE0"></path>
                        <path d="M30.8154389,37.8709776 C31.1841953,31.3905376 31.597283,24.9221881 31.726247,18.4316729 C31.7846838,15.1854077 31.8461432,14.2332908 31.8995423,11.9280597 L15.1443004,8.08835877 L15.3851004,8.5689511 L15.6248928,17.6881149 L15.7196007,17.7193484 C15.7326986,17.9107793 15.744789,18.1042253 15.7568793,18.2946486 C16.8309075,34.6146371 19.8182371,51.0676197 22.9325157,67.1175898 L23.3264604,67.1175898 L31.159007,67.1175898 L31.6799006,67.1175898 C31.5771324,63.767549 30.7670774,54.5405793 30.7328213,51.1663577 C30.6834523,46.750349 30.6834523,42.3162047 30.7177084,37.8709776 L30.8154389,37.8709776 Z" id="Fill-61" fill="#FA3D21"></path>
                        <path d="M17.1198674,71.362016 C17.0392649,69.95248 16.9717603,68.5358913 16.9072783,67.1182951 L9.07372417,67.1182951 C9.41729227,68.8865121 9.75985284,70.6567442 10.0963682,72.4269764 L10.0963682,72.4289914 C10.5296066,72.3645094 10.9678826,72.2980124 11.4071662,72.2325229 L17.1762891,72.2325229 C17.2730121,73.8465876 17.2276732,73.2672573 17.1198674,71.362016" id="Fill-63" fill="#FFCCE0"></path>
                        <path d="M6.37575744,75.3192958 L10.4220023,74.1475372 L10.4220023,74.1465296 L6.37474991,75.3182883 C6.32135076,75.3968757 6.27701939,75.4744556 6.23268803,75.5631184 C6.14301776,75.7595869 6.10271652,75.9701609 6.10170899,76.1797274 C6.10271652,75.9701609 6.14402529,75.7585794 6.23470309,75.5600958 C6.27500433,75.4754631 6.32034323,75.3948607 6.37575744,75.3192958" id="Fill-65" fill="#FFCCE0"></path>
                        <path d="M0.23112763,12.4825041 C0.121306742,11.1646534 0.0850356233,9.31079624 0.676456368,8.80803823 C0.79937516,8.06851041 0.940429512,7.34913322 1.10364955,6.65897443 C2.74189509,-0.273846948 4.38014063,-0.493488724 5.81788748,2.14221259 C9.32812577,-3.51205185 7.8964241,3.44797287 7.58912712,6.98037684 C7.74327938,7.53854906 7.89340151,8.11284178 8.03747845,8.7002324 C8.24805245,8.52895212 8.48179966,8.20956476 8.67826822,8.071533 C8.75181799,8.01914139 8.81025479,7.97682508 8.85861629,7.94055396 C8.91000037,7.92040334 8.97145977,7.89521507 9.05004719,7.86095901 C9.87823774,7.50429301 10.6953454,7.16475503 11.5477167,6.88365386 C11.5134607,6.91488732 12.5713683,6.64083887 12.6570085,6.62673343 C13.2907455,6.52094267 13.9295202,6.44336278 14.5693025,6.3859335 C15.363237,6.31339127 16.1652317,6.27208249 16.9672264,6.26200718 C16.9047595,10.3042219 16.8271796,14.3635646 16.7536298,18.4319751 C16.7193738,20.1508231 16.6901554,21.8696712 16.6558993,23.5895267 L16.5632065,37.8712798 L16.465476,37.8712798 C16.4312199,42.3154994 16.4312199,46.7506512 16.4805889,51.16666 C16.5138374,54.5408816 17.3249,63.7668437 17.4276681,67.1178921 L16.9067746,67.1178921 L9.07322041,67.1178921 L8.68028328,67.1178921 C8.68028328,67.1178921 -1.46253212,33.4633313 0.23112763,12.4825041" id="Fill-67" fill="#FA3D21"></path>
                    </g>
                    <polygon id="Fill-70" fill="#FFCCE0" points="80.0410101 431.902428 79.3155877 442.58528 87.3053092 443.12834 87.8473609 435.152724"></polygon>
                    <g id="Group-79" transform="translate(76.340751, 417.944093)">
                        <path d="M0.740132333,9.74816548 C-0.427596191,13.4044958 1.58746597,17.3127088 5.24883393,18.4824524 C6.70169375,18.9459167 8.19888493,18.906623 9.54393893,18.4612943 C9.89858987,18.3444207 10.2451806,18.1963136 10.5786733,18.014958 C12.1383315,17.2059105 13.3967378,15.7893218 13.9760682,13.9767734 C14.8234018,11.3229366 13.9982338,8.53812065 12.0819097,6.76889607 C11.7736052,6.47469699 11.4300371,6.2157615 11.0663184,5.98402936 L11.052213,5.97395404 C10.566583,5.67471731 10.0416593,5.42585714 9.47744188,5.2465166 C9.33638752,5.2011777 9.19432564,5.16087646 9.04924117,5.1266204 C7.85632437,4.82637614 6.64930213,4.85559454 5.52792003,5.1588614 C3.33855499,5.76035746 1.4846978,7.41875362 0.740132333,9.74816548" id="Fill-71" fill="#FFCCE0"></path>
                        <path d="M5.77002975,0.09400265 C6.62240105,0.303569115 7.35487615,0.906072702 7.67124091,1.72519547 C7.8233781,2.11611753 7.88382996,2.49192663 7.87677725,2.8445625 C7.86367934,3.40877991 8.22437547,3.91758311 8.7341862,4.15838303 C9.66413739,4.59565152 10.6222994,5.02082964 11.4706406,5.57396421 C11.5542657,5.62131817 11.6388983,5.66665706 11.7205083,5.71703362 L11.7346138,5.72710893 C12.0983325,5.95783355 12.440893,6.21777657 12.7491976,6.51197564 C14.6655217,8.28120022 15.4916972,11.0660161 14.643356,13.719853 C14.0640256,15.5324014 12.8056193,16.9489901 11.2469687,17.75703 C11.2036449,17.7842334 11.1572984,17.804384 11.1169972,17.819497 L8.42285909,11.4206671 L8.0601479,11.8015138 C8.0601479,11.8015138 8.03596716,11.8448377 8.02286925,11.8408075 L7.95133455,11.9153648 C7.71557227,12.1632175 7.35487615,12.2468426 7.03448126,12.1259388 C6.57101696,11.9526435 6.35238272,11.4216746 6.55892659,10.9703007 L7.58963089,8.73660427 L7.63396226,8.59554992 C7.87073206,7.85501457 7.45865185,7.0550349 6.71710897,6.81826509 C5.89899373,6.55630701 4.88440993,6.39006438 4.23959004,5.77950055 C4.18820595,5.73113905 4.17813064,5.73013152 4.18518336,5.74524449 C1.69154393,4.32563319 2.51167423,-0.704969498 5.77002975,0.09400265" id="Fill-73" fill="#FA3D21"></path>
                        <path d="M4.1846796,5.74554675 C4.20382269,5.75662959 4.22095072,5.76871996 4.24009381,5.77879527 C4.32573395,5.92790987 4.20080009,5.78383293 4.1846796,5.74554675" id="Fill-75" fill="#702678"></path>
                        <path d="M8.04584096,11.5118486 C7.74660423,12.4498601 8.26346768,13.4523535 9.20147911,13.7515902 C10.138483,14.0518345 11.141984,13.5339635 11.4412207,12.5969596 C11.7404574,11.6589482 11.223594,10.6564547 10.2855826,10.357218 C9.34857865,10.0569738 8.34507769,10.5738372 8.04584096,11.5118486" id="Fill-77" fill="#FFCCE0"></path>
                    </g>
                    <polygon id="Fill-80" fill="#FA3D21" points="97.9654918 494.484013 91.845748 501.323134 82.7114712 508.447386 78.8878908 493.403939"></polygon>
                    <g id="Group-95" transform="translate(27.979260, 404.846189)">
                        <path d="M58.6409286,153.749848 C58.6429436,153.542296 58.6832449,153.334745 58.7739227,153.140291 C58.8142239,153.055659 58.8585553,152.974049 58.9139695,152.899491 L62.9612218,151.727733 L62.9612218,151.726725 C62.8503934,151.15344 62.7446027,150.581162 62.6347818,150.008885 L62.6357893,150.008885 C63.0680201,149.944403 63.5073037,149.877906 63.9455797,149.812416 L69.7147027,149.812416 C69.8003428,151.23505 69.8940432,152.655669 69.9958039,154.070243 L58.672162,154.070243 C58.6510039,153.964452 58.639921,153.857653 58.6409286,153.749848" id="Fill-81" fill="#004AFF"></path>
                        <path d="M44.3882931,153.760124 C44.3893006,153.54955 44.4296019,153.338976 44.5212872,153.140493 C44.5615885,153.054853 44.6069274,152.97425 44.6623416,152.899693 L48.7085864,151.726927 L48.7085864,151.725919 C48.597758,151.153642 48.4919672,150.581364 48.3821463,150.009086 L48.3831539,150.008079 C48.8163922,149.943597 49.2546682,149.878107 49.6929443,149.812618 L55.4620672,149.812618 C55.5477074,151.235252 55.6414078,152.65587 55.7441759,154.070444 L44.4195266,154.070444 C44.399376,153.968683 44.3882931,153.864908 44.3882931,153.760124" id="Fill-83" fill="#004AFF"></path>
                        <path d="M70.5577039,53.4887169 L70.5577039,85.6611994 L70.3128739,89.8515211 L49.4358223,70.673167 L50.1551995,43.3156755 L70.0539384,49.3709373 C70.3844086,50.6877805 70.5577039,52.0701131 70.5577039,53.4887169" id="Fill-85" fill="#E3E8FF"></path>
                        <path d="M50.3979138,37.075028 L25.657988,34.7657668 C24.3471901,34.6438555 23.3084256,33.6101286 23.1794616,32.3003382 L21.3699358,13.9028206 C21.2913483,13.104856 20.7623945,12.423765 20.0087613,12.1497166 C18.6697525,11.6630791 17.2471186,12.634339 17.2148776,14.058988 L16.6486451,38.3767582 C16.5982686,40.5620931 18.0682564,42.4905076 20.1881018,43.0204689 L46.7980052,49.6731967 L50.3979138,37.075028 Z" id="Fill-87" fill="#FFCCE0"></path>
                        <path d="M40.8651584,43.2992528 C41.1412219,40.8005757 42.7794675,38.6122182 45.1532107,37.7870502 C45.1673161,37.7820126 45.1814216,37.7779824 45.1945195,37.7729448 C47.4120954,37.0092362 50.23419,36.5125234 53.2799564,36.3180699 L53.2799564,36.2102641 C61.4006569,36.2102641 68.2105595,41.8181821 70.0533339,49.3706351 C70.3848116,50.6874782 70.5581069,52.0708184 70.5581069,53.4884146 L70.5581069,90.0960489 L35.9584821,87.7414488 L40.8651584,43.2992528 Z" id="Fill-89" fill="#004AFF"></path>
                        <path d="M31.320212,34.9152844 L31.6799006,46.4343872 L45.7994411,51.8277011 C50.2164574,53.1304388 54.7160912,50.0494088 55.098953,45.4601047 L55.1966836,44.2823008 C55.5291688,40.2965079 52.5771027,36.7902997 48.5933248,36.4396789 L31.320212,34.9152844 Z" id="Fill-91" fill="#004AFF"></path>
                        <path d="M0.794236752,5.66343297 C0.0234754742,9.05982024 0.738822542,12.1176771 2.39016599,12.4924786 C4.04251696,12.8672802 6.00720257,10.4179721 6.77796385,7.02158486 C7.54872513,3.62519759 6.83438559,0.567340752 5.18102708,0.19253919 C3.52867611,-0.182262373 1.56499803,2.26704569 0.794236752,5.66343297" id="Fill-93" fill="#FA3D21"></path>
                    </g>
                    <path d="M154.920015,350.757386 L154.920015,498.848335 L50.7725344,498.848335 L42.4835762,498.848335 L42.4835762,507.137293 L42.4835762,558.825653 L25.6578072,558.825653 L25.6578072,567.115618 L34.0696842,567.115618 L34.0696842,583.69555 L207.69147,583.69555 L207.69147,567.115618 L207.69147,558.825653 L172.391611,558.825653 L172.391611,507.137293 L216.104355,507.137293 L216.104355,498.848335 L172.391611,498.848335 L172.391611,350.757386 L154.920015,350.757386 Z M50.7725344,558.825653 L154.920015,558.825653 L154.920015,507.137293 L50.7725344,507.137293 L50.7725344,558.825653 Z" id="Fill-96" fill="#FFFFFF"></path>
                    <g id="Group-103" transform="translate(94.476311, 289.987645)">
                        <path d="M86.0909114,17.3430355 L85.8299608,17.1939209 C85.5297166,14.6700556 83.9720735,12.3900127 81.5459387,11.1557872 L59.9404421,0.16563811 L57.8185817,1.76156734 L27.7105304,1.08349893 L26.4904102,0.166645641 L4.88592123,11.1557872 C4.03153487,11.5910406 3.29704471,12.1643258 2.67036038,12.8232511 L2.42049267,12.7809348 L2.4990801,13.0166971 C1.04521274,14.6478899 0.306692461,16.7989687 0.58477104,19.0064693 L8.00725252,45.1942172 L13.9335503,45.1942172 L14.8211852,47.5679605 L14.1934934,19.774208 C14.5582196,19.5424759 14.9400739,19.3298868 15.348124,19.1525614 L43.2164337,11.7764263 L71.0837359,19.1525614 C71.5723885,19.3651504 72.0197323,19.6321461 72.4469255,19.9233226 L72.6232434,45.3332565 L79.4532966,45.1932097 L85.8460813,19.0064693 C85.8793299,18.7424962 85.8763073,18.4815457 85.8823524,18.2195876 L86.0909114,17.3430355 Z" id="Fill-97" fill="#004AFF"></path>
                        <path d="M7.83466245,44.8322113 L7.5414709,44.9077761 L6.51076661,45.193915 L3.83778664,45.924375 C3.33805123,46.5953907 3.5445951,47.529372 4.28210785,47.9595878 C4.70224831,48.2003877 4.40905677,48.2306137 4.84531773,48.0270924 L14.820883,47.5676582 C14.7493483,46.7757388 14.6939341,45.9848269 14.6385198,45.193915 C14.6385198,45.0961845 14.6304596,45.0055067 14.6223993,44.9077761 C14.5669851,44.1763086 14.5196312,43.4458485 14.4803375,42.7073283 L7.40646174,42.7073283 C7.5575914,43.4156226 7.69159303,44.123917 7.83466245,44.8322113" id="Fill-99" fill="#FFFFFF"></path>
                        <path d="M79.6251814,44.8317075 L79.918373,44.9072724 L80.9490773,45.1934112 L83.6220572,45.9238712 C84.1217926,46.5948869 83.9152488,47.5298758 83.177736,47.959084 C82.7575955,48.199884 83.0507871,48.2301099 82.6145261,48.0265886 L72.6389609,47.5671544 C72.7104956,46.7762425 72.7659098,45.9843231 72.821324,45.1934112 C72.821324,45.0956807 72.8293843,45.0050029 72.8374445,44.9072724 C72.8928587,44.1758048 72.9402127,43.4453448 72.9795064,42.7068245 L80.0533821,42.7068245 C79.9022525,43.4151188 79.7682508,44.1234132 79.6251814,44.8317075" id="Fill-101" fill="#702678"></path>
                    </g>
                    <polygon id="Fill-104" fill="#FFCCE0" points="135.394163 249.326714 143.572293 249.326714 143.572293 241.162689 135.394163 241.162689"></polygon>
                    <g id="Group-121" transform="translate(84.401000, 222.483063)">
                        <path d="M48.9188581,9.88791004 C47.1042947,13.3618772 48.4483411,17.6458994 51.9273459,19.4634854 C53.306656,20.1838702 54.8209752,20.4065345 56.2516693,20.1939455 C56.628486,20.1375237 57.0032875,20.048861 57.3710364,19.9259422 C59.0818242,19.384898 60.5961434,18.1798908 61.4948611,16.4580202 C62.8127118,13.9361699 62.4691437,10.990149 60.8510487,8.8753413 C60.5911057,8.52472049 60.291869,8.20331807 59.9664364,7.90710393 L59.9543461,7.89400603 C59.5170776,7.50912915 59.0324551,7.16656859 58.4964486,6.88647495 C58.362447,6.8169553 58.2264303,6.75247331 58.087391,6.69202145 C56.9388055,6.18019566 55.7196929,5.99884006 54.5388665,6.10866095 C52.2296053,6.33031779 50.0744963,7.67436425 48.9188581,9.88791004" id="Fill-105" fill="#FFCCE0"></path>
                        <path d="M55.6678051,1.05478429 C56.4889429,1.41447289 57.1206649,2.14896304 57.2959753,3.02753015 C57.3796004,3.44867814 57.3755703,3.83758514 57.3060506,4.19122855 C57.1952222,4.75645349 57.4682631,5.33175373 57.9387801,5.66222393 C58.7971966,6.26573505 59.6878541,6.86017838 60.4435024,7.56545014 C60.5200748,7.62690954 60.5966471,7.68836893 60.6701969,7.75184339 L60.6832948,7.7649413 C61.0087274,8.06115543 61.3079641,8.38255785 61.5679071,8.73217113 C63.186002,10.8469789 63.5285626,13.7940073 62.2117195,16.3148501 C61.3119942,18.0367207 59.7986825,19.2427354 58.0878947,19.7837796 C58.0395333,19.8029227 57.9901642,19.8140055 57.9468404,19.8230733 L56.3549413,12.9144327 L55.923718,13.23382 C55.923718,13.23382 55.891477,13.2721062 55.8803941,13.2670685 L55.794754,13.3295355 C55.5146604,13.5380944 55.1368362,13.558245 54.8355844,13.3809195 C54.3993235,13.1250067 54.2723745,12.552729 54.5595209,12.1356111 L55.9861849,10.0681573 L56.0557046,9.93415572 C56.4244609,9.22989149 56.1494049,8.35333945 55.4441332,7.98458307 L53.9550022,7.20676908 C50.7490383,5.53124489 51.6910799,-0.687236951 55.6678051,1.05478429" id="Fill-107" fill="#FA3D21"></path>
                        <path d="M55.9602914,12.9400239 C55.494812,13.8306814 55.8403952,14.9309054 56.7310526,15.3953772 C57.6217101,15.8608566 58.7209265,15.5162809 59.1864059,14.6246159 C59.6518852,13.734966 59.3073096,12.634742 58.4156446,12.1692627 C57.5249871,11.7037833 56.4257707,12.0493665 55.9602914,12.9400239" id="Fill-109" fill="#FFCCE0"></path>
                        <path d="M44.8336219,25.0145787 L44.3973609,36.7946321 L15.1658616,36.7946321 L10.5412939,44.4297026 L6.46583072,51.1660555 C5.8461991,52.1957522 4.73791491,52.7972483 3.57723911,52.7972483 C3.27195719,52.7972483 2.95760749,52.7539244 2.65232557,52.6662692 C0.715850834,52.108097 -0.313845932,49.9963119 0.453892752,48.1384246 L3.32434881,41.1219781 L8.21994233,29.1938176 C9.2496391,26.6639071 11.7190978,25.0145787 14.449507,25.0145787 L44.8336219,25.0145787 Z" id="Fill-111" fill="#FFCCE0"></path>
                        <path d="M44.8336219,25.0145787 L44.3973609,36.7946321 L15.1658616,36.7946321 L10.5412939,44.4297026 L3.32434881,41.1219781 L8.21994233,29.1938176 C9.2496391,26.6639071 11.7190978,25.0145787 14.449507,25.0145787 L44.8336219,25.0145787 Z" id="Fill-113" fill="#FA3D21"></path>
                        <path d="M63.2346658,36.7513083 L63.6709267,24.9712549 L92.902426,24.9712549 L97.5269937,17.3361843 L101.602457,10.5998315 C102.222089,9.57013474 103.330373,8.96763115 104.491049,8.96763115 C104.79633,8.96763115 105.11068,9.01196252 105.415962,9.09861019 C107.352437,9.65678241 108.382134,11.7695751 107.614395,13.6274624 L104.743939,20.6439089 L99.8483453,32.5720693 C98.8186485,35.1019799 96.3491898,36.7513083 93.6177731,36.7513083 L63.2346658,36.7513083 Z" id="Fill-115" fill="#FFCCE0"></path>
                        <path d="M63.2346658,36.7513083 L63.6709267,24.9712549 L92.902426,24.9712549 L97.5269937,17.3361843 L104.743939,20.6439089 L99.8483453,32.5720693 C98.8186485,35.1019799 96.3491898,36.7513083 93.6177731,36.7513083 L63.2346658,36.7513083 Z" id="Fill-117" fill="#FA3D21"></path>
                        <path d="M74.7012763,40.2918732 L74.7012763,69.6553591 L32.893774,69.6553591 L32.893774,40.2918732 C32.893774,32.6719157 38.0795365,26.3073418 44.9821319,24.8494443 C45.9513768,24.6469306 46.9619305,24.5411398 47.9936423,24.5411398 L59.5913326,24.5411398 C60.6220369,24.5411398 61.6325906,24.6469306 62.602843,24.8494443 C69.5044309,26.3073418 74.7012763,32.6719157 74.7012763,40.2918732" id="Fill-119" fill="#FA3D21"></path>
                    </g>
                    <polygon id="Fill-122" fill="#FFFFFF" points="142.340083 228.145488 158.689289 224.422661 147.692088 237.548776 142.48819 229.175185"></polygon>
                    <g id="Group-127" transform="translate(75.333220, 193.264662)">
                        <path d="M86.1936796,30.0050816 C86.1936796,30.7395718 85.5982287,31.3350227 84.8637385,31.3350227 C84.1282408,31.3350227 83.53279,30.7395718 83.53279,30.0050816 C83.53279,29.2705915 84.1282408,28.6751406 84.8637385,28.6751406 C85.5982287,28.6751406 86.1936796,29.2705915 86.1936796,30.0050816" id="Fill-123" fill="#FFFFFF"></path>
                        <path d="M4.95977326,5.06566477 C3.98750576,6.03793227 2.41071962,6.03793227 1.43845213,5.06566477 C0.466184632,4.09339728 0.466184632,2.51661114 1.43845213,1.54434364 C2.41071962,0.572076148 3.98750576,0.572076148 4.95977326,1.54434364 C5.93204075,2.51661114 5.93204075,4.09339728 4.95977326,5.06566477" id="Fill-125" fill="#40C7F5"></path>
                    </g>
                    <polygon id="Fill-128" fill="#5CC4C9" points="75.5983018 221.021438 72.4689103 217.892046 75.5983018 214.761647 78.7287009 217.892046"></polygon>
                    <polygon id="Fill-129" fill="#FFCCE0" points="92.2980287 216.839881 96.7241128 216.839881 96.7241128 212.413797 92.2980287 212.413797"></polygon>
                    <path d="M152.232627,195.231463 C150.857347,195.231463 149.743018,194.117134 149.743018,192.741854 C149.743018,191.366574 150.857347,190.252244 152.232627,190.252244 C153.607907,190.252244 154.722237,191.366574 154.722237,192.741854 C154.722237,194.117134 153.607907,195.231463 152.232627,195.231463" id="Fill-130" fill="#40C7F5"></path>
                    <polygon id="Fill-132" fill="#5CC4C9" points="132.868283 207.957487 137.294367 207.957487 137.294367 203.530396 132.868283 203.530396"></polygon>
                    <polygon id="Fill-133" fill="#FFCCE0" points="147.632946 216.809353 150.762337 213.679962 153.892736 216.809353 150.762337 219.938745"></polygon>
                    <g id="Group-138" transform="translate(67.272972, 140.873045)">
                        <path d="M69.5384855,28.0076513 C68.276049,29.4675638 66.6116077,29.2831856 65.274614,29.1350786 C63.9980721,28.9940242 63.2484689,28.9456627 62.6741762,29.6096257 C62.100891,30.2735887 62.2570584,31.0080788 62.5814834,32.2493571 C62.9220289,33.5510873 63.3461995,35.1711973 62.0847705,36.6311098 C60.8223341,38.0910223 59.1578928,37.9056366 57.820899,37.7575296 C56.5453647,37.6154677 55.794754,37.5681137 55.2214688,38.2310692 C54.8748781,38.6320665 54.2683444,38.6763979 53.867347,38.3298072 C53.4673572,37.9832165 53.4230258,37.3776903 53.7696165,36.976693 C55.0310454,35.5167804 56.6954868,35.7021662 58.0324805,35.8502732 C59.3090224,35.9913276 60.0586255,36.0396891 60.6329183,35.3757261 C61.2062034,34.7127706 61.0500361,33.9772729 60.7246036,32.7359946 C60.3840581,31.4342645 59.960895,29.8141545 61.2223239,28.3552495 C62.4847604,26.895337 64.1492017,27.0797152 65.4861955,27.2278222 C66.7627374,27.3688766 67.5123405,27.4172381 68.0866332,26.7522675 C68.6609259,26.0883046 68.5047586,25.3528069 68.1803336,24.1105211 C67.8397881,22.8087909 67.416625,21.1886809 68.6790615,19.7287684 C69.0256522,19.327771 69.6311784,19.2834396 70.0321757,19.6300303 C70.4331731,19.976621 70.4775045,20.5821472 70.1309138,20.9831446 C69.5566211,21.6481151 69.7127884,22.3826052 70.0372134,23.6258986 C70.3777589,24.9276288 70.8009219,26.5477387 69.5384855,28.0076513" id="Fill-134" fill="#FF6E8C"></path>
                        <path d="M8.77761079,17.2003691 C7.487971,15.7646373 7.88090812,14.1364671 8.19727288,12.8286918 C8.49852468,11.5803608 8.63957903,10.8418405 8.05319594,10.1889603 C7.46782038,9.53608019 6.71922479,9.59854711 5.4457055,9.76378221 C4.11173435,9.93808509 2.45132312,10.1536967 1.16269087,8.71796495 C-0.125941385,7.28223315 0.266995737,5.65507046 0.583360497,4.34628758 C0.88461229,3.0989641 1.02667417,2.36044382 0.440291083,1.70756368 C0.0866476731,1.31361902 0.118888668,0.707085313 0.513840852,0.352434372 C0.907785505,-0.0012090373 1.51431922,0.0310319573 1.86897016,0.425984141 C3.15760241,1.86171593 2.76466529,3.48988616 2.44830053,4.79766151 C2.14704874,6.04498499 2.00498685,6.78350527 2.59136994,7.43638541 C3.1767455,8.08825802 3.9253411,8.02679862 5.19886038,7.860556 C6.53283154,7.68726065 8.19324276,7.47064147 9.48187501,8.90637326 C10.7705073,10.3431126 10.3785777,11.9712828 10.0622129,13.2780506 C9.76096112,14.5273892 9.61889924,15.2649019 10.2052823,15.9187896 C10.7916654,16.5716697 11.5412685,16.5102103 12.8147878,16.3439677 C14.148759,16.1716799 15.8091702,15.9560682 17.09881,17.3918 C17.4524534,17.7867522 17.4202124,18.3932859 17.0262678,18.7469293 C16.6313156,19.1005727 16.0247819,19.0683318 15.6711385,18.6733796 C15.0847554,18.0204994 14.3351522,18.0819588 13.0616329,18.2482015 C11.7276618,18.4204893 10.0672506,18.6361009 8.77761079,17.2003691" id="Fill-136" fill="#5CC4C9"></path>
                    </g>
                    <path d="M154.920015,0.215088511 L154.920015,277.449324 L50.7725344,277.449324 L42.4835762,277.449324 L42.4835762,285.738282 L42.4835762,337.426642 L25.6578072,337.426642 L25.6578072,345.716608 L34.0696842,345.716608 L34.0696842,362.296539 L207.69147,362.296539 L207.69147,345.716608 L207.69147,337.426642 L172.391611,337.426642 L172.391611,285.738282 L216.104355,285.738282 L216.104355,277.449324 L172.391611,277.449324 L172.391611,0.215088511 L154.920015,0.215088511 Z M50.7725344,337.426642 L154.920015,337.426642 L154.920015,285.738282 L50.7725344,285.738282 L50.7725344,337.426642 Z" id="Fill-139" fill="#FFFFFF"></path>
                    <g id="Group-154" transform="translate(68.152202, 674.864519)">
                        <path d="M55.7390796,105.775046 L57.811571,105.787137 L64.1277834,104.003806 L64.1277834,105.821393 L65.9886933,105.831468 L66.3111032,102.535834 L70.6465095,47.9316792 L69.6550989,66.3745356 L72.7603097,53.3632792 L60.1691938,53.3632792 L60.323346,66.3745356 L60.3354364,67.3558709 L61.4024118,101.165591 L59.3742517,102.535834 L55.540596,105.124181 C55.2494195,105.322665 55.3864437,105.773031 55.7390796,105.775046" id="Fill-140" fill="#FFCCE0"></path>
                        <path d="M35.077942,105.686988 L36.588231,105.697063 L42.5628904,104.004411 L42.5628904,105.730312 L44.4238003,105.740387 L44.6343743,102.536438 L46.1386182,66.3318163 L46.3199738,62.3822945 L47.2751132,53.3638838 L35.9343434,53.3638838 L37.5705739,66.3741326 L37.7740951,67.9650242 L40.5155872,100.695679 L38.1257235,102.536438 L34.8603152,105.051236 C34.5913044,105.258787 34.7353814,105.686988 35.077942,105.686988" id="Fill-142" fill="#FFCCE0"></path>
                        <path d="M55.7390796,105.775046 L57.811571,105.787137 L64.1277834,104.003806 L64.1277834,105.821393 L65.9886933,105.955394 L66.3826379,102.783686 L59.3742517,102.783686 L55.540596,105.248107 C55.2494195,105.445583 55.3864437,105.773031 55.7390796,105.775046" id="Fill-144" fill="#FA3D21"></path>
                        <path d="M35.077942,105.563465 L36.588231,105.57354 L42.5628904,103.87988 L42.5628904,105.606788 L44.4238003,105.74079 L44.7159843,102.65976 L38.1257235,102.65976 L34.8603152,105.050631 C34.5913044,105.25919 34.7353814,105.563465 35.077942,105.563465" id="Fill-146" fill="#FA3D21"></path>
                        <path d="M38.676037,4.12160815 L28.3659714,29.4579923 L6.48038123,32.0715279 C5.63607018,32.172281 5.02852894,32.934982 5.1212218,33.7813081 C5.20081675,34.5188209 5.79022244,35.0971437 6.52975025,35.1616257 L31.5860407,37.3519983 L50.0389725,1.45769597 L43.7368656,0.650663573 C41.4124914,0.353441904 39.2352167,1.84660297 38.676037,4.12160815" id="Fill-148" fill="#FFCCE0"></path>
                        <path d="M1.2364842,13.2125611 C0.34784179,12.1445782 -0.374557996,10.5929803 0.373030067,9.42122164 C1.39768918,7.81420957 4.02331518,8.64945283 5.1779458,10.1647796 C6.33358395,11.6811139 6.88369592,13.6911384 8.40305279,14.8417389 C9.07406849,15.3505421 9.89016867,15.6507863 10.5239057,16.2039209 C12.3354466,17.7877597 11.5445347,21.2798625 9.28464249,22.0052849 C9.28464249,22.0052849 9.84885989,23.6767789 9.5345102,23.9991889 C9.55063069,24.0858365 9.56473613,24.1724842 9.57783403,24.2651771 C9.61108256,24.5029544 9.63224071,24.7790179 9.4599529,24.9462681 C9.24131865,25.1578496 8.84838153,25.025863 8.67810878,24.7729727 C8.50783602,24.5200824 8.490708,24.19868 8.45141428,23.8964207 C8.39297748,23.4520995 8.27408881,23.014831 8.0987784,22.6027508 C7.99601023,22.3589283 7.83782785,22.0959627 7.57788483,22.0496162 C7.4146648,22.0214054 7.25043723,22.0868949 7.09729251,22.1493618 C6.53408263,22.3760563 5.9396393,22.5725249 5.33411312,22.5382688 C4.39106402,22.4848697 3.5346626,21.7977335 3.21426772,20.9181588 C3.14474807,20.8153906 3.08328868,20.7075848 3.03895731,20.5856736 C2.59564363,19.3554781 3.44599987,18.0225145 3.34826935,16.7177617 C3.24348612,15.3324065 2.12512662,14.2815516 1.2364842,13.2125611" id="Fill-150" fill="#FA3D21"></path>
                        <path d="M13.1505392,25.3363841 C13.0739669,24.6089467 13.1455016,23.8674038 13.3580907,23.1671697 C13.4286178,22.9364451 13.5334011,22.6865774 13.7540504,22.5868318 C13.9424587,22.5001841 14.1610929,22.5475381 14.3656217,22.5868318 C15.3449419,22.7742326 16.3957969,22.7157958 17.2884694,22.2714746 C18.1821495,21.8271534 18.8914514,20.9606766 19.0053024,19.969266 C19.1503868,18.7078371 18.3594749,17.504845 18.376603,16.2353559 C18.3967536,14.6404342 19.642062,13.3739676 20.4118158,11.976522 C20.8309487,11.215836 21.118095,10.3816003 21.2561268,9.52419132 C21.3185937,9.13931445 21.3498272,8.73730954 21.229931,8.36653811 C20.8641972,7.24213342 19.2400571,6.9983109 18.2426013,7.63406301 C17.244138,8.27082265 16.7403725,9.43754365 16.3242622,10.5448203 C15.9071443,11.652097 15.4789436,12.8309083 14.5550376,13.5704361 C13.9424587,14.0600962 13.1696823,14.3059338 12.5268775,14.7563002 C10.9249031,15.8776823 10.4553936,18.332028 11.5314368,19.9662435 C11.7944024,20.3662333 12.1379705,20.727937 12.2729797,21.1873711 C12.4845612,21.9097709 12.1268877,22.659374 11.8931405,23.3757286 C11.6583857,24.0910757 11.6070016,25.0159892 12.2165579,25.4593029 C12.4623955,25.6376359 12.8140239,25.6940577 13.0719518,25.5338602 C13.3298798,25.3726552 13.4215651,24.9676277 13.2079685,24.750001 L13.1505392,25.3363841 Z" id="Fill-152" fill="#FA3D21"></path>
                    </g>
                    <polygon id="Fill-155" fill="#FFFFFF" points="75.4763905 708.449056 74.6441699 699.648272 83.6706408 699.497142 83.2958393 708.449056"></polygon>
                    <g id="Group-166" transform="translate(95.483842, 655.593127)">
                        <path d="M50.9612244,100.436685 L48.2308152,64.4043507 L48.4131783,63.6295593 L47.8509759,59.3808007 L47.3945644,53.3688627 L47.0540189,53.3608025 L43.1468133,23.8592849 C42.4344888,18.4810839 37.900599,14.4298015 32.4770592,14.3250182 C27.2459578,14.2242651 20.0169223,13.2681181 15.8114875,17.2438358 C11.2937182,21.5137525 9.78846672,31.271691 9.00964519,37.2010114 C8.38296086,41.9726787 6.22583682,48.1246634 6.59862332,52.9638352 L0.635046841,100.436685 L50.9612244,100.436685 Z" id="Fill-156" fill="#004AFF"></path>
                        <path d="M40.786168,18.134997 L51.903266,41.9852728 C53.072002,44.4930177 51.5909313,47.4329934 48.8806727,47.9861279 L22.829949,53.2998468 C21.9725401,53.4741497 21.1332667,52.9310905 20.9418358,52.0767041 C20.7635028,51.279747 21.2118541,50.4757372 21.9836229,50.207734 L43.4389973,41.2266019 L36.9333691,29.5059928 C34.7530719,25.5786367 36.0134933,20.6326666 39.8068478,18.2266823 C39.928759,17.7511277 40.5786166,17.6906758 40.786168,18.134997" id="Fill-158" fill="#FFCCE0"></path>
                        <path d="M21.0485333,9.85238625 C23.2882749,12.0921278 26.9204245,12.0921278 29.1601661,9.85238625 C31.3999077,7.61264466 31.3999077,3.98049511 29.1601661,1.74075351 C26.9204245,-0.498988084 23.2882749,-0.498988084 21.0485333,1.74075351 C18.8087917,3.98049511 18.8087917,7.61264466 21.0485333,9.85238625" id="Fill-160" fill="#FA3D21"></path>
                        <path d="M18.6773089,6.6787641 C18.6773089,9.41924864 20.898915,11.6408547 23.6424221,11.6408547 C24.7335783,11.6408547 25.7431244,11.2902339 26.5622472,10.6927679 C27.7994954,9.79102761 28.6045127,8.32809248 28.6045127,6.6787641 C28.6045127,3.93525696 26.3829067,1.71365092 23.6424221,1.71365092 C23.5386464,1.71365092 23.4318481,1.71667352 23.3280724,1.72473377 C20.7306573,1.88493121 18.6773089,4.03903266 18.6773089,6.6787641" id="Fill-162" fill="#FFCCE0"></path>
                        <path d="M22.18926,1.20958312 C22.7041084,1.18137225 23.2653032,1.0725589 23.8275056,0.946617512 C24.0471473,1.0564384 24.3080979,1.12192792 24.6153949,1.12192792 C24.8169011,1.12192792 25.0002718,1.09270952 25.1685294,1.0433405 L27.2390058,2.46093673 C28.768438,3.30625531 29.8072025,4.93140294 29.8072025,6.80541075 C29.8072025,8.2753986 29.1654052,9.59425679 28.1498139,10.5030498 C27.924127,10.7498949 28.379531,11.497483 28.1085051,11.6949591 L25.4304875,4.69060301 L22.335352,1.6528968 C22.2174709,1.5168801 22.7353419,2.00855527 22.6517168,1.85440302 C22.7020934,1.85339549 22.1388835,1.21260572 22.18926,1.20958312" id="Fill-164" fill="#FA3D21"></path>
                    </g>
                    <polygon id="Fill-167" fill="#FFCCE0" points="122.17193 663.159325 124.827782 671.939958 118.627435 673.278967 118.940778 665.574377"></polygon>
                    <g id="Group-196" transform="translate(91.325417, 650.683773)">
                        <path d="M26.19716,21.3318511 C26.19716,23.5705851 28.0117235,25.3851486 30.2504575,25.3851486 C32.4901991,25.3851486 34.3047626,23.5705851 34.3047626,21.3318511 C34.3047626,19.093117 32.4901991,17.2785535 30.2504575,17.2785535 C28.0117235,17.2785535 26.19716,19.093117 26.19716,21.3318511" id="Fill-168" fill="#FFCCE0"></path>
                        <path d="M24.1637608,1.93194085 C24.4529222,0.798468383 25.7012532,0.00151129662 26.8508462,0.218130479 C28.0004391,0.434749662 28.8749761,1.62968153 28.7329142,2.79035733 C28.6230933,3.68605246 28.0004391,4.57167228 28.3107587,5.41799839 C28.7429895,6.59680976 30.5968467,6.65625409 31.1187478,7.79879434 L31.2688699,8.12523441 C30.785255,8.371072 30.3379112,8.70859491 29.9520268,9.07936635 C29.8814996,9.14787846 29.8260854,9.22545835 29.7636185,9.29800059 C29.5167734,9.1297429 29.2699283,8.96148521 29.0230832,8.79322752 C27.0684729,7.45824883 24.9869136,5.95904258 24.2766042,3.70116543 C24.0972637,3.12989531 24.0156537,2.51227875 24.1637608,1.93194085" id="Fill-170" fill="#FA3D21"></path>
                        <path d="M29.0704371,11.3204177 C29.0704371,12.2896626 29.8563114,13.0755369 30.8255563,13.0755369 C31.7948012,13.0755369 32.5806754,12.2896626 32.5806754,11.3204177 C32.5806754,10.3511728 31.7948012,9.56529859 30.8255563,9.56529859 C29.8563114,9.56529859 29.0704371,10.3511728 29.0704371,11.3204177" id="Fill-172" fill="#FFCCE0"></path>
                        <path d="M32.4727688,7.1555865 C32.4727688,9.44469712 34.3286411,11.3005694 36.6177517,11.3005694 C38.9078699,11.3005694 40.7637421,9.44469712 40.7637421,7.1555865 C40.7637421,4.86647588 38.9078699,3.01060363 36.6177517,3.01060363 C34.3286411,3.01060363 32.4727688,4.86647588 32.4727688,7.1555865" id="Fill-174" fill="#FA3D21"></path>
                        <path d="M23.4307819,258.653581 L24.2075884,300.188042 L24.0604888,295.678333 C30.046231,295.678333 35.6722845,295.907043 37.2611611,295.833493 C37.3014623,295.83047 37.1321971,295.939284 37.1654456,295.925178 C37.1745134,295.923163 36.9206155,296.05515 36.9206155,296.05515 L36.9206155,296.05918 L37.1372347,296.088398 L27.0216227,293.660248 L38.2455189,298.374486 L41.9774141,298.939711 L38.670697,329.029627 L38.670697,329.033657 L38.4510553,329.743967 L39.5613545,344.45795 L40.402643,355.344324 L40.9618227,362.547163 L41.0464553,363.867029 L41.2953155,367.237221 L41.2953155,367.252334 L34.3695468,370.067375 L45.7889041,370.067375 L46.54556,363.867029 L46.54556,363.856954 L47.0614159,355.344324 L47.0029791,355.291932 L47.4039765,351.556007 L48.2956415,341.278182 L48.2956415,341.27516 L49.025094,329.956556 L57.9860754,293.14137 L57.9195784,287.193914 L57.9195784,287.164695 L58.7951229,267.758639 L58.7951229,267.722368 L58.7598593,267.501719 L59.2464968,255.022439 C59.3059411,252.987226 58.1664235,251.205911 56.4586583,250.362608 C56.4566432,250.360593 56.448583,250.360593 56.448583,250.360593 C56.287378,250.280998 56.1150902,250.21047 55.9438099,250.145988 C55.4289615,249.952542 54.8748194,249.614012 54.2944815,249.608974 L49.6981247,249.323843 L39.5311286,249.323843 L38.9356777,249.502176 C38.3160461,249.498146 37.7014521,249.626102 37.0949184,249.697637 C32.1207375,250.266892 27.2936561,252.366587 24.8252049,256.801739 L23.4307819,258.653581 Z" id="Fill-176" fill="#004AFF"></path>
                        <path d="M24.2075884,293.660349 L24.2096034,326.722482 C24.2096034,329.197985 25.2493755,331.560646 27.0750218,333.233147 L48.7238422,353.065389 L54.959452,358.77809 L57.632432,361.227399 L58.3830427,368.679098 C58.4414795,369.260444 59.2394441,369.375302 59.4600934,368.834258 L62.9209627,360.340771 L57.7019516,353.713232 L52.4396168,347.030278 L34.5740757,326.379921 L38.4812812,296.204365 L24.2075884,293.660349 Z" id="Fill-178" fill="#004AFF"></path>
                        <path d="M0.978052482,303.101016 C1.14933277,303.169528 1.3286733,303.203784 1.5070063,303.203784 C1.82639365,303.203784 2.14275841,303.093963 2.40270143,302.886412 L17.5741045,290.602593 L20.6722625,286.352827 L24.1724255,281.550934 L39.2743089,260.836095 L36.294032,251.022742 L24.2076891,256.903701 L24.1724255,256.994379 L13.9600905,282.579623 L12.9787552,285.040014 L0.38965433,300.892508 C-0.203781477,301.641104 0.0914251297,302.746365 0.978052482,303.101016" id="Fill-180" fill="#FFCCE0"></path>
                        <path d="M51.6218038,253.457038 L57.8433083,267.501014 L57.9581668,267.758942 L64.5182017,282.572671 L64.7448962,283.082482 L69.6757533,307.538284 C69.861139,308.47428 70.8948659,308.96797 71.7381694,308.524657 C71.966879,308.403753 72.1522647,308.227435 72.2832437,308.014846 C72.4142228,307.803264 72.4907951,307.555412 72.4978478,307.298491 L73.3240233,282.682492 L72.794062,279.754607 L72.794062,279.752592 L67.1206545,261.937427 C65.6698097,255.898286 60.9001576,246.989696 55.7647716,247.735269 C55.7577189,247.735269 55.6670411,247.737284 55.6599884,247.737284 C55.4615048,247.768517 55.2186898,247.810834 55.0212137,247.871286 L51.6218038,253.457038 Z" id="Fill-182" fill="#FFCCE0"></path>
                        <path d="M13.7724882,282.580026 L21.0831337,286.35323 L24.3515645,281.551337 L23.4538544,285.938127 L23.8488065,287.226759 L58.2348348,287.821203 L58.2680834,287.821203 C58.2680834,287.821203 58.4282808,268.642849 58.4282808,268.630758 L64.3152849,282.569951 C66.2608274,281.817325 70.0773552,280.740274 72.8782916,279.754909 L67.6008438,261.937729 C66.7535101,258.413385 65.2764696,254.852771 63.1606543,251.895667 C58.9794003,246.051987 50.1201795,246.643407 43.7384776,246.562805 C36.2202807,246.468097 29.6320349,248.902292 25.0084748,255.049239 L23.7964149,256.904104 L23.7964149,256.993774 L13.7724882,282.580026 Z" id="Fill-184" fill="#FA3D21"></path>
                        <path d="M38.2614379,243.108686 L38.2725208,243.231605 L38.5949307,246.757964 L38.6352319,247.209338 C38.6382545,247.254676 38.6442997,247.300015 38.6493374,247.346362 C38.9092804,249.420868 40.678505,250.961383 42.7439437,250.961383 C42.8698851,250.961383 42.9978415,250.589604 43.1268055,250.578522 C45.0673104,250.401196 46.5685317,250.198682 46.8335124,246.698519 L46.836535,246.698519 C46.8647458,246.698519 46.8818739,246.654188 46.8788513,246.446637 C46.8788513,246.328755 46.8738136,246.39223 46.8617232,246.272334 L46.5020346,242.42961 L46.4879292,242.309714 L46.4657635,242.334902 L45.9347946,242.395354 L38.2614379,243.108686 Z" id="Fill-186" fill="#FFCCE0"></path>
                        <path d="M38.2730245,243.231202 C38.9238896,243.619101 39.6483044,243.902218 40.4301486,244.061407 C41.9081967,244.358629 43.3801996,244.15813 44.6557339,243.573762 C44.9932568,243.41961 45.3186894,243.237247 45.6259864,243.020628 C45.7861838,242.914837 45.9403361,242.799979 46.0884431,242.68109 C46.2204297,242.580337 46.342341,242.472531 46.4652597,242.357672 C47.4899189,241.416638 48.2375069,240.146142 48.5337211,238.674139 C49.081818,235.968918 47.9664811,233.315081 45.8859294,231.782626 C45.549414,231.526713 45.1836802,231.307072 44.8018259,231.118663 L44.7846979,231.109595 C44.2738796,230.869803 43.7318279,230.681395 43.1555201,230.564521 C43.0124507,230.53631 42.8673663,230.513137 42.7212742,230.492986 C41.514252,230.327751 40.3273804,230.487949 39.2573824,230.907082 C37.771274,231.497495 36.5068225,232.595704 35.7300161,234.037481 C35.4136513,234.622856 35.1799041,235.261631 35.0398573,235.948767 C34.4433989,238.893781 35.824724,241.77935 38.2730245,243.231202" id="Fill-188" fill="#FFCCE0"></path>
                        <path d="M34.1011406,233.737841 C34.6119588,233.980656 35.168116,234.065289 35.7303183,234.037078 C36.4093943,234.008867 37.097538,233.817436 37.7252299,233.552455 C44.4484848,230.713233 38.8063107,236.924662 41.4974262,237.60676 C41.8258814,237.689378 42.170457,237.569482 42.3759933,237.298456 L42.3931214,237.27629 L42.4394678,237.218861 C42.4535732,237.218861 42.4707013,237.176545 42.4707013,237.176545 L42.787066,236.759427 L44.0374121,238.999168 L45.9345931,242.406638 L46.0887454,242.680687 L46.1371069,242.768342 C46.1743855,242.749199 46.2167018,242.726026 46.2570031,242.694792 C46.3396206,242.637363 46.4222382,242.580941 46.5028407,242.520489 C47.8267365,241.55326 48.814117,240.09234 49.1647378,238.349311 C50.094689,233.739856 45.9285479,229.459864 41.4148087,229.517293 C40.6067688,229.528376 39.7997364,229.537444 38.9896814,229.548527 C38.0053235,229.560617 37.0179431,229.574723 36.0325777,229.585805 C34.9142182,229.599911 33.6134955,229.705702 32.9888263,230.635653 C32.2946373,231.671395 32.9767359,233.200827 34.1011406,233.737841" id="Fill-190" fill="#FA3D21"></path>
                        <path d="M37.9972633,231.810837 C38.0174139,231.819905 38.0355494,231.82998 38.0557001,231.83804 C38.1564532,231.975065 38.0174139,231.846101 37.9972633,231.810837" id="Fill-192" fill="#FADB61"></path>
                        <path d="M42.4262691,237.070351 C42.2328232,238.026498 42.8514473,238.958464 43.8075943,239.150902 C44.7627337,239.344348 45.6947,238.725724 45.8881459,237.769577 C46.0805844,236.81343 45.4629678,235.882472 44.5068208,235.689026 C43.5506738,235.496587 42.6197151,236.114204 42.4262691,237.070351" id="Fill-194" fill="#FFCCE0"></path>
                    </g>
                    <polygon id="Fill-197" fill="#FFCCE0" points="131.702368 1005.87636 132.274646 1013.21925 132.379429 1014.62576 137.870473 1014.62576 137.870473 1014.54113 138.387337 1005.97812 138.265425 1005.87636"></polygon>
                    <polygon id="Fill-198" fill="#FFCCE0" points="140.048856 1003.60055 146.285473 1009.31224 149.026966 1004.24839 143.764631 997.564432"></polygon>
                    <g id="Group-203" transform="translate(38.054570, 726.248604)" fill="#004AFF">
                        <path d="M3.19105244,12.4352509 C1.38253415,10.2599913 -0.088461229,7.10138133 1.4329107,4.71655525 C3.51950758,1.44510183 8.86445997,3.14379924 11.2160375,6.22986694 C13.5676151,9.31694217 14.6889972,13.4095334 17.7821176,15.7520432 C19.1473222,16.7867776 20.8097485,17.398349 22.0993883,18.5257763 C25.7889671,21.7488682 24.1779249,28.859015 19.577538,30.3370631 C19.577538,30.3370631 20.7241083,33.7384881 20.0853336,34.3953983 C20.1175746,34.5707087 20.1478006,34.7490417 20.1739964,34.9364425 C20.2415009,35.4200574 20.2838172,35.9832673 19.934204,36.3228053 C19.4888752,36.7540286 18.6868805,36.4850178 18.3412973,35.9701694 C17.9957142,35.455321 17.9604506,34.8014334 17.8788406,34.1868394 C17.7599519,33.281069 17.5181444,32.3924265 17.162486,31.5521456 C16.9529195,31.0554328 16.6315171,30.5204338 16.1015557,30.4267334 C15.7690705,30.3682966 15.4355777,30.5022982 15.1222355,30.6292472 C13.9766727,31.0917039 12.7666278,31.4916938 11.5334098,31.4221741 C9.61305556,31.3133608 7.87103432,29.9139001 7.21613912,28.1225098 C7.0760923,27.9149584 6.95115844,27.6943091 6.86148817,27.4454489 C5.95773279,24.9407267 7.68967872,22.2274455 7.49018757,19.5715935 C7.27759851,16.751514 4.99957074,14.6105105 3.19105244,12.4352509" id="Fill-199"></path>
                        <path d="M27.4469602,37.1182511 C27.2918004,35.6381879 27.4358774,34.1268913 27.8691158,32.7022424 C28.0121852,32.2307178 28.2277968,31.7239297 28.6751406,31.5194009 C29.05901,31.3430829 29.5053462,31.4398059 29.9194415,31.5194009 C31.9153606,31.9022627 34.0533415,31.783374 35.8719351,30.8776036 C37.6905287,29.9728407 39.1353283,28.2096613 39.3670605,26.1915765 C39.6612595,23.6243873 38.0522324,21.1740717 38.0854809,18.5897545 C38.1288048,15.3424818 40.663753,12.7632022 42.2304638,9.918942 C43.0838426,8.36935919 43.6682107,6.67166932 43.9503194,4.92561795 C44.0762607,4.1427663 44.1397352,3.32364353 43.8949051,2.57001028 C43.1503397,0.278884604 39.8456377,-0.215813158 37.8134475,1.07785675 C35.7812573,2.37253419 34.7565982,4.74930001 33.9082571,7.00415458 C33.0599159,9.25900914 32.1884015,11.6579406 30.307341,13.1631921 C29.0600175,14.1606479 27.4862539,14.6613908 26.1784786,15.5772366 C22.9150854,17.8613095 21.959946,22.8586637 24.1503185,26.1855313 C24.6853175,26.9986089 25.3865592,27.7351141 25.6596001,28.670103 C26.0908234,30.1421059 25.3643935,31.6675079 24.8868238,33.1254054 C24.4102615,34.5822954 24.3044708,36.4663785 25.5447415,37.3681188 C26.0454845,37.7318375 26.7628466,37.8477036 27.2877703,37.520256 C27.8137015,37.1928084 27.9980797,36.3666329 27.5638338,35.9253343 L27.4469602,37.1182511 Z" id="Fill-201"></path>
                    </g>
                    <polygon id="Fill-204" fill="#FA3D21" points="53.6396656 780.159376 51.9449984 762.24245 70.3233728 761.934146 69.5596643 780.159376"></polygon>
                    <g id="Group-229" transform="translate(58.076891, 876.370735)">
                        <path d="M19.1361807,105.004083 L20.7351325,88.2236532 C17.2248942,87.8276935 13.7247312,87.2584384 10.2245682,86.7536653 L12.2980672,102.727063 L5.15467183,137.56648 L4.24890139,142.187018 L6.10880376,142.187018 L6.71029982,140.176993 L9.49310067,142.187018 L14.545869,142.187018 C14.7483828,142.187018 14.8279777,141.70038 14.6566975,141.59056 L9.00646316,138.005764 L9.06489996,137.815341 L19.1361807,105.004083 Z" id="Fill-205" fill="#FFCCE0"></path>
                        <path d="M41.0203603,142.733402 C40.3755404,142.839193 40.3644575,143.117271 40.152876,143.109211 L38.4592163,143.051782 L30.7808219,140.71834 L30.4674797,142.937931 L28.5793665,142.928863 L28.5793665,138.654916 L28.8262116,138.312356 L26.2580149,89.9357507 L33.7197901,75.4907776 L33.4729449,138.312356 L33.4729449,138.393966 L41.0203603,142.733402 Z" id="Fill-207" fill="#FFCCE0"></path>
                        <path d="M14.5459698,142.176036 L9.49219389,142.176036 L6.7114081,140.165004 L6.10890452,142.176036 L4.24900214,142.176036 L5.15376505,137.493031 L9.06500071,137.855743 L9.00555638,138.026015 L14.6567982,141.593683 C14.8280785,141.704511 14.7484835,142.176036 14.5459698,142.176036" id="Fill-209" fill="#577DE8"></path>
                        <path d="M22.8891332,16.8293962 C26.7761881,16.8263736 30.2128766,19.3049001 33.0077678,22.0050834 C35.1175379,24.0443263 37.1577884,26.5661766 37.1275624,29.4990995 C37.1235323,29.8628183 37.0741633,30.2567629 36.821273,30.5167059 C36.4545317,30.8945301 35.8409452,30.8320632 35.3281119,30.7182121 C29.4078593,29.3963314 24.4306557,24.5188734 22.9888788,18.6268316 C22.7914027,17.8177842 22.7581541,16.7618916 23.4926443,16.3689545 C23.6860903,16.2661863 23.9913722,16.5795285 23.7727379,16.5875887 L22.8891332,16.8293962 Z" id="Fill-211" fill="#004AFF"></path>
                        <path d="M0.802137555,25.8838765 C2.06658906,23.4909902 5.63526416,23.1091359 6.80097762,20.665873 C7.97676639,18.2034671 6.18839872,15.2483784 7.56468618,12.8847105 C8.8845519,10.6157505 11.6945561,11.7865016 13.3066058,10.1905724 C15.4022705,8.11707341 14.7020364,4.71564848 17.8636689,3.20233679 C19.2208133,2.55247924 20.7784563,2.53837381 22.2786701,2.56658468 C28.1263805,2.6743905 21.1341148,6.37807476 21.9421547,9.48530062 C22.9325578,13.2947756 23.7456354,17.7873567 21.2167323,20.8049123 C19.6681571,22.6527243 17.0515988,23.6380897 16.1750468,25.8838765 C15.4335039,27.7840801 16.2002351,30.0308744 15.4143608,31.9129425 C14.7655108,33.4665554 13.1534611,34.4478907 11.5041327,34.7854136 C6.83221108,35.7425681 -2.76653754,32.6373574 0.802137555,25.8838765" id="Fill-213" fill="#FA3D21"></path>
                        <path d="M7.12046572,61.7068456 L9.4277119,30.1429119 C9.67757961,26.7193213 11.619092,23.6463515 14.6033991,21.9496691 L16.5418889,20.8484377 C19.5916855,19.1144767 23.3155203,19.0550323 26.4187161,20.6902553 L29.545085,22.3365611 C32.5757385,23.9334978 34.6129664,26.9339254 34.9787001,30.340388 L38.3428464,61.7068456 L7.12046572,61.7068456 Z" id="Fill-215" fill="#FFFFFF"></path>
                        <path d="M21.4372809,22.4781192 C19.8252312,22.4781192 18.5184633,21.1713514 18.5184633,19.5593016 L18.5184633,13.6521469 L24.3560984,13.6521469 L24.3560984,19.5593016 C24.3560984,21.1713514 23.0493306,22.4781192 21.4372809,22.4781192" id="Fill-217" fill="#FFCCE0"></path>
                        <path d="M19.6386364,15.9256408 C19.5358682,15.9175806 19.4351151,15.9014601 19.334362,15.8883622 C19.3474599,15.4349732 19.2990984,15.2022335 19.1842399,14.7629499 C18.9011237,13.679854 18.2663791,12.7297522 17.7958621,11.7141609 C17.7827642,11.621468 17.7696662,11.5267601 17.7555608,11.4340672 C17.8966152,11.4894814 18.0447222,11.5328053 18.2039121,11.5459032 C19.0794567,11.6174379 19.8461878,10.9665728 19.91873,10.0920358 C19.9529861,9.67995562 19.8220071,9.29407122 19.5862448,8.99080436 C21.6909772,9.86937147 24.2229028,9.68297822 26.1684453,8.48905388 C26.3246127,9.12379847 26.3830495,9.79380664 26.3266277,10.4819504 C26.1624002,12.4718243 25.0732591,14.1594388 23.5176311,15.1679774 C22.4073318,15.8873546 21.0612703,16.0425144 19.6386364,15.9256408" id="Fill-219" fill="#FFCCE0"></path>
                        <path d="M16.7509516,9.83128679 C16.7962905,9.28419741 17.1136628,8.82476324 17.5589915,8.57489553 C17.8209496,8.427796 18.1282466,8.35525376 18.449649,8.37842697 C18.5755904,8.46608218 18.7035468,8.54970726 18.8335183,8.62426456 C19.0763333,8.76431138 19.3292236,8.88320004 19.586144,8.99100587 C19.8219063,9.29427273 19.9528854,9.68015713 19.9186293,10.0922373 C19.8470946,10.9667743 19.0793559,11.6176394 18.2038114,11.5461047 C18.0446215,11.5319993 17.8975219,11.489683 17.7554601,11.4342687 C17.1207155,11.184401 16.6915072,10.5466339 16.7509516,9.83128679" id="Fill-221" fill="#FFCCE0"></path>
                        <path d="M19.5863455,8.9905021 C19.3294251,8.88370381 19.0765348,8.76380761 18.8337198,8.62476832 C18.7027408,8.55021102 18.5747843,8.46557841 18.4498505,8.37792321 C18.2342388,8.22880861 18.0317251,8.05954338 17.849362,7.8751652 C17.4413119,7.46207745 17.1400601,6.96838722 17.0786007,6.39812463 C17.0362844,5.99914232 17.1148718,5.59915248 17.2549186,5.2203208 C17.3042876,5.08631916 17.3617169,4.95433259 17.4241838,4.82637614 C17.7113302,4.23697046 18.1344933,3.68182083 18.7319592,3.41381757 C18.7349818,3.41281003 18.7380044,3.4118025 18.741027,3.41079497 C18.8982018,3.34228286 19.0694821,3.29895902 19.2427774,3.28082346 C19.2800561,3.29593643 19.3173347,3.3080268 19.3546134,3.32313977 C19.424133,3.34933558 19.4936527,3.37754645 19.5641799,3.40071966 L19.359651,3.32213224 L19.2518452,3.28082346 C19.3697264,3.26873309 19.4876075,3.27377074 19.6044811,3.28686865 C19.7928894,3.30701927 19.9752525,3.35739582 20.1384726,3.44605856 C20.3299035,3.37553138 20.5112591,3.2919063 20.687577,3.20122851 C21.725334,2.67428975 22.552517,1.85113686 23.6718841,1.06324755 C24.7358369,0.315659488 26.6531686,0.297523929 27.7423097,1.14385004 C28.0042677,1.29598723 28.2289472,1.54182481 28.3931747,1.80176783 C29.0390022,2.81937423 29.1417703,4.1311797 28.7840968,5.28178019 C28.4274308,6.43238069 27.6415565,7.42278374 26.6783568,8.14619106 C26.5141293,8.26910985 26.342849,8.38195333 26.1685461,8.48875163 C24.2230036,9.68267596 21.691078,9.87007674 19.5863455,8.9905021" id="Fill-223" fill="#FA3D21"></path>
                        <path d="M27.2768303,16.6404841 L27.0843919,21.2872175 C27.039053,22.375351 27.8843715,23.2932118 28.9714976,23.3375432 L29.9558554,23.378852 L29.8782755,25.2447995 C29.845027,26.0598922 30.4787641,26.7490435 31.2938567,26.782292 C32.1099569,26.816548 32.7981006,26.182811 32.8323567,25.3667108 L32.9109441,23.47759 L33.0137123,20.9970485 L33.183985,16.8853142 L27.2768303,16.6404841 Z" id="Fill-225" fill="#FFCCE0"></path>
                        <path d="M32.1240623,15.6856469 C31.0057028,15.2473709 29.7241233,15.2100922 28.5402743,15.0488873 C28.2208869,15.0055634 27.8793339,14.9652622 27.59118,15.1083316 C27.3201541,15.2423332 27.1468588,15.5143666 27.0199099,15.7884151 C25.7121345,18.605472 30.7094887,19.2472693 32.5049091,19.3913462 C32.3658698,20.3485007 32.356802,21.3741674 32.6157375,22.3051261 C33.1104353,21.280467 34.2529755,21.0678779 34.4957905,19.7973812 C34.9421268,17.4649468 33.751225,16.3234141 32.1240623,15.6856469" id="Fill-227" fill="#FA3D21"></path>
                    </g>
                    <polygon id="Fill-230" fill="#404FBF" points="93.0995197 975.316433 93.0975047 975.316433 93.1619866 973.893799 96.5079974 939.897686 93.1640017 973.885739"></polygon>
                    <g id="Group-247" transform="translate(64.250378, 890.476170)">
                        <path d="M21.0540748,16.4978177 C22.5119722,18.0826641 23.3603134,20.3254283 22.959316,22.4039649 C22.2913229,22.3163097 22.2893079,22.7193221 21.9810034,23.2664115 C21.0762404,24.805919 19.5740116,25.8789396 18.3206429,27.1494363 C17.0672743,28.4209405 15.9932461,30.1377735 16.3257314,31.8918851 C16.5967573,33.3266094 17.886397,33.9351581 18.7961976,35.0918038 C19.2808201,35.7074053 20.9593668,35.4948163 20.7951393,37.1642953 C20.5815427,39.3204118 20.1372215,38.7320136 20.5815427,39.3204118 C21.646503,40.7329704 23.3593059,39.5602042 23.6202564,38.1557058 C23.9205007,36.5325733 22.7426969,34.483255 22.3779706,32.9346798 C22.0696661,31.6319421 21.8661448,29.0184065 23.462074,28.3846694 C25.6202056,27.5272605 25.4015714,30.7150888 25.4227295,31.9996909 C25.4600082,34.1961087 26.1834155,35.5764263 28.4019989,36.410662 C29.555622,36.8449079 28.7959436,38.3320238 29.4447936,39.0886796 C30.0855834,39.8362677 30.7626443,39.4876619 31.8094691,38.0166666 C32.6074337,36.896292 32.8472261,34.5416919 31.1948751,34.0248284 C30.6508083,33.8565707 29.9687098,33.8374276 29.6795484,33.34676 C29.5243886,33.0817793 29.5395015,32.7533242 29.5667049,32.4470347 C29.6654429,31.3236376 29.5969308,29.2682742 30.720328,28.6174091 C31.1747245,28.3534359 31.7228214,28.3201874 32.2245719,28.1640201 C33.7237781,27.6965257 34.6748875,26.1429128 34.8985594,24.5892998 C35.1232388,23.0346794 34.7605276,21.4629309 34.3998315,19.9345062 C33.850727,17.6071094 33.2855021,15.2414264 32.0794874,13.1769953 C30.8351865,11.046067 28.7737779,9.24157885 26.248905,8.94334965 C23.7441828,8.64814304 21.4389516,10.1402966 18.9322143,10.0113326 C16.6078401,9.8914364 14.1283061,9.36550517 12.699627,7.33432251 C12.4406915,6.96556614 12.2160121,6.55751605 11.855316,6.28649019 C11.4946199,6.01647186 10.9384627,5.93385431 10.6140377,6.24618894 C10.2472964,6.59882482 10.3722302,7.20636606 10.5556009,7.68192074 C11.6336591,10.4677442 13.8673556,12.7870807 16.6118702,13.9679072 C17.430993,14.320543 18.2934396,14.5764559 19.0873741,14.982491 C19.8117889,15.3522549 20.479782,15.874156 21.0540748,16.4978177" id="Fill-231" fill="#004AFF"></path>
                        <path d="M34.9571977,26.0718818 C34.8604747,24.7852646 33.9506741,23.7626206 32.8010812,23.6497771 L28.388095,23.2165387 L12.8529733,23.9832699 C12.456006,23.9752096 12.0973249,24.1948514 11.8847359,24.539427 C11.7849903,24.7026471 11.7184933,24.8920629 11.693305,25.0996143 C11.6096799,25.7948108 12.0388881,26.4335855 12.6565047,26.5383687 L31.4479669,29.7443326 C33.4025772,30.0778254 35.1234403,28.2763598 34.9571977,26.0718818" id="Fill-233" fill="#FFCCE0"></path>
                        <path d="M26.8574538,33.2244457 C26.8292429,33.0168943 26.7546856,32.8274785 26.6428497,32.665266 C26.4050723,32.3196828 26.0030674,32.100041 25.5587462,32.1091088 L8.16775222,31.3413701 L1.00118364,31.9700695 L0.813782855,34.1967132 C0.628397136,36.4011912 2.55378903,38.2026568 4.74214654,37.869164 L25.778388,34.6642076 C26.4695543,34.5594244 26.9501467,33.9196422 26.8574538,33.2244457" id="Fill-235" fill="#FFCCE0"></path>
                        <path d="M3.33754746,13.0088383 L3.83023016,14.03652 L3.9934502,12.9977555 C3.60655826,12.8718141 3.21966633,12.8385656 3.33754746,13.0088383" id="Fill-237" fill="#FFCCE0"></path>
                        <path d="M6.96193902,31.2880717 L8.3321813,23.4353745 L6.96697668,9.64126643 C6.74431231,9.31784895 4.05319679,12.4361577 4.0209558,12.8270797 L3.99375246,12.99836 L3.82952489,14.036117 L1.00138514,31.9701703 L8.16795373,31.3414709 L6.96193902,31.2880717 Z" id="Fill-239" fill="#FFFFFF"></path>
                        <path d="M22.365578,3.97057924 C22.2023579,5.59270428 23.3227325,7.25110044 24.8884358,7.70448943 C25.4365327,7.86267181 26.0884053,7.86367934 26.5105608,7.47981 C26.8752871,7.14933981 26.9780553,6.62139352 27.0052586,6.13072588 C27.0395147,5.52016205 26.9790628,4.87634968 26.6506077,4.3615013 C25.9866447,3.32172922 24.5488978,3.184705 23.3156798,3.1554866 C22.9952849,3.14843388 22.6648147,3.14238869 22.367593,3.26228489 C22.0703714,3.38218109 21.8124434,3.66025967 21.8205037,3.98065455 C21.9333471,4.1670478 22.2587797,4.15294237 22.3544951,3.95748134 L22.365578,3.97057924 Z" id="Fill-241" fill="#FA3D21"></path>
                        <path d="M24.7782119,5.90644946 C24.7782119,5.28278772 24.2724313,4.77599959 23.647762,4.77599959 C23.0241003,4.77599959 22.5183197,5.28278772 22.5183197,5.90644946 C22.5183197,6.53111873 23.0241003,7.03689934 23.647762,7.03689934 C24.2724313,7.03689934 24.7782119,6.53111873 24.7782119,5.90644946" id="Fill-243" fill="#FFCCE0"></path>
                        <path d="M26.3564086,2.0160697 C25.640054,1.79542039 24.8823906,1.73597605 24.1690586,1.5072665 C23.4557266,1.27754941 22.7524699,0.824160425 22.5076399,0.116873606 C21.8809555,0.272033392 21.3368887,0.730460034 21.0779532,1.32188078 C20.8180102,1.91229399 20.8492437,2.62260341 21.1585557,3.18883587 L26.3564086,2.0160697 Z" id="Fill-245" fill="#FA3D21"></path>
                    </g>
                    <polygon id="Fill-248" fill="#FA3D21" points="65.1973569 937.796177 65.0522725 982.163816 94.9739305 982.601085 96.4197376 937.796177"></polygon>
                    <path d="M99.0972515,1019.10414 C98.4524316,1019.20993 98.4413488,1019.48801 98.2297672,1019.47995 L96.5361075,1019.42252 L88.8577131,1017.08908 L88.5443709,1019.30867 L86.6562577,1019.2996 L86.6562577,1015.02565 L87.1660684,1014.46849 L91.5498362,1014.46849 L91.5498362,1014.7647 L99.0972515,1019.10414 Z" id="Fill-249" fill="#577DE8"></path>
                    <path d="M154.920015,793.556113 L154.920015,941.647062 L50.7725344,941.647062 L42.4835762,941.647062 L42.4835762,949.935013 L42.4835762,1001.62337 L25.6578072,1001.62337 L25.6578072,1009.91334 L34.0696842,1009.91334 L34.0696842,1026.49327 L207.69147,1026.49327 L207.69147,1009.91334 L207.69147,1001.62337 L172.391611,1001.62337 L172.391611,949.935013 L216.104355,949.935013 L216.104355,941.647062 L172.391611,941.647062 L172.391611,793.556113 L154.920015,793.556113 Z M50.7725344,1001.62337 L154.920015,1001.62337 L154.920015,949.935013 L50.7725344,949.935013 L50.7725344,1001.62337 Z" id="Fill-251" fill="#FFFFFF"></path>
                    <g id="Group-256" transform="translate(129.739899, 694.007609)" fill="#FA3D21">
                        <path d="M1.72237438,6.08357343 C0.83373197,5.01559048 0.111332185,3.46399261 0.858920247,2.29223396 C1.88357936,0.685221889 4.50920536,1.52046516 5.66383598,3.0357919 C6.81947413,4.55212618 7.3695861,6.56215069 8.88894297,7.71275119 C9.55995867,8.22155438 10.3760588,8.52179865 11.0097959,9.07493321 C12.8213368,10.6577645 12.0304249,14.1508748 9.77053267,14.8762972 C9.77053267,14.8762972 10.3347501,16.5477912 10.0204004,16.8702012 C10.0365209,16.9568489 10.0506263,17.0434965 10.0637242,17.1361894 C10.0979803,17.3739667 10.1181309,17.6500302 9.94584308,17.8172804 C9.72720883,18.0288619 9.33427171,17.8968754 9.16399896,17.6439851 C8.9937262,17.3910948 8.97659818,17.0696923 8.93730446,16.767433 C8.87886766,16.3231118 8.75997899,15.8858433 8.58466858,15.4737631 C8.48190041,15.2299406 8.32472557,14.966975 8.06377502,14.9206285 C7.90055498,14.8924177 7.73632741,14.9579072 7.58318269,15.0203741 C7.01997281,15.2470686 6.42552948,15.4435372 5.8200033,15.4092811 C4.8769542,15.355882 4.02055278,14.6687458 3.7001579,13.7891711 C3.63063825,13.686403 3.56917886,13.5785971 3.52484749,13.4566859 C3.08153381,12.2264904 3.93189005,10.8935268 3.83415953,9.58877406 C3.7293763,8.20341882 2.6110168,7.1525639 1.72237438,6.08357343" id="Fill-252"></path>
                        <path d="M13.6363287,18.2073964 C13.5597563,17.479959 13.631291,16.7384161 13.8438801,16.038182 C13.9144073,15.8074574 14.020198,15.5575897 14.2398398,15.4578441 C14.4282481,15.3711964 14.6478899,15.4185504 14.8514112,15.4578441 C15.8307314,15.6452449 16.8815863,15.5868081 17.7742588,15.1424869 C18.6679389,14.6981657 19.3772408,13.831689 19.4910918,12.8402784 C19.6361763,11.5788495 18.8452644,10.3758573 18.8623924,9.10636818 C18.8835506,7.51144648 20.1278514,6.24497991 20.8976052,4.8475343 C21.3167381,4.08684833 21.6038845,3.25261259 21.7429238,2.39520364 C21.8043832,2.01032677 21.8356166,1.60832187 21.7157204,1.23755043 C21.3499866,0.113145741 19.7258465,-0.130676781 18.7283908,0.505075331 C17.7299275,1.14183498 17.2271695,2.30855597 16.8100516,3.41583263 C16.3929337,4.52310929 15.964733,5.70192065 15.040827,6.44144847 C14.4282481,6.93110857 13.6554718,7.17694616 13.0126669,7.62731255 C11.4106925,8.74869464 10.941183,11.2030404 12.0172262,12.8372558 C12.2801918,13.2372456 12.6247675,13.5989493 12.7587691,14.0583834 C12.9703506,14.7817908 12.6136846,15.5303864 12.3789299,16.2457334 C12.1441751,16.962088 12.0927911,17.8870016 12.7023474,18.3303152 C12.9481849,18.5086482 13.3008208,18.56507 13.5577413,18.4048725 C13.8166767,18.2436676 13.9073545,17.8386401 13.6937579,17.6210134 L13.6363287,18.2073964 Z" id="Fill-254"></path>
                    </g>
                    <polygon id="Fill-257" fill="#FFFFFF" points="137.549977 720.463159 136.717757 711.662375 145.744228 711.511245 145.369426 720.463159"></polygon>
                    <g id="Group-262" transform="translate(60.220254, 753.451943)" fill="#FFFFFF">
                        <path d="M1.86383175,6.66360907 C0.975189334,5.59562612 0.252789548,4.04402826 1.00037761,2.87226961 C2.02503672,1.26525753 4.65066272,2.1005008 5.80529334,3.61582755 C6.96093149,5.13216183 7.51104346,7.14218633 9.03040034,8.29278683 C9.70141604,8.80159003 10.5175162,9.10183429 11.1512533,9.65496885 C12.9627941,11.2388077 12.1718822,14.7309104 9.91199003,15.4563328 C9.91199003,15.4563328 10.4762074,17.1278269 10.1618577,17.4502368 C10.1779782,17.5368845 10.1920837,17.6235322 10.2051816,17.716225 C10.2384301,17.9540024 10.2595883,18.2300659 10.0873004,18.3973161 C9.8686662,18.6088976 9.47572907,18.476911 9.30545632,18.2240207 C9.13518357,17.9711304 9.11805554,17.649728 9.07876183,17.3474687 C9.02032502,16.9031475 8.90143636,16.465879 8.72612595,16.0537988 C8.62335778,15.8099762 8.4651754,15.5470106 8.20523238,15.5006642 C8.04201234,15.4724533 7.87778478,15.5379428 7.72464005,15.6004098 C7.16143018,15.8271043 6.56698684,16.0235728 5.96146066,15.9893168 C5.01841157,15.9359176 4.16201015,15.2487814 3.84161526,14.3692068 C3.77209562,14.2664386 3.71063622,14.1586328 3.66630485,14.0367215 C3.22299118,12.8065261 4.07334741,11.4735625 3.9756169,10.1688097 C3.87083366,8.78345447 2.75247416,7.73259955 1.86383175,6.66360907" id="Fill-258"></path>
                        <path d="M13.7778868,18.7874321 C13.7013144,18.0599946 13.7728491,17.3184518 13.9854382,16.6182177 C14.0559654,16.387493 14.1607486,16.1376253 14.3813979,16.0378798 C14.5698062,15.9512321 14.7884405,15.9985861 14.9929693,16.0378798 C15.9722895,16.2252805 17.0231444,16.1668437 17.9158169,15.7225225 C18.809497,15.2782013 19.5187989,14.4117246 19.6326499,13.420314 C19.7777344,12.1588851 18.9868225,10.955893 19.0039505,9.68640382 C19.0241011,8.09148212 20.2694096,6.82501555 21.0391633,5.42756994 C21.4582962,4.66688397 21.7454426,3.83264824 21.8834743,2.97523929 C21.9459413,2.59036241 21.9771747,2.18835751 21.8572785,1.81758607 C21.4915448,0.693181384 19.8674047,0.449358863 18.8699489,1.08511098 C17.8714856,1.72187062 17.36772,2.88859161 16.9516097,3.99586827 C16.5344918,5.10314493 16.1062911,6.2819563 15.1823851,7.02148411 C14.5698062,7.51114422 13.7970299,7.7569818 13.1542251,8.20734819 C11.5522506,9.32873029 11.0827411,11.783076 12.1587843,13.4172914 C12.42175,13.8172813 12.7653181,14.1789849 12.9003272,14.6384191 C13.1119087,15.3608189 12.7542352,16.110422 12.520488,16.8267766 C12.2857333,17.5421237 12.2343492,18.4670372 12.8439055,18.9103509 C13.0897431,19.0886839 13.4413714,19.1451056 13.6992994,18.9849082 C13.9572273,18.8237032 14.0489127,18.4186757 13.8353161,18.201049 L13.7778868,18.7874321 Z" id="Fill-260"></path>
                    </g>
                    <polygon id="Fill-263" fill="#004AFF" points="68.1717902 780.487528 67.3395695 771.686744 76.3660405 771.535615 75.9912389 780.487528"></polygon>
                    <path d="M154.920015,572.157203 L154.920015,720.248152 L50.7725344,720.248152 L42.4835762,720.248152 L42.4835762,728.536102 L42.4835762,780.224462 L25.6578072,780.224462 L25.6578072,788.514428 L34.0696842,788.514428 L34.0696842,805.094359 L207.69147,805.094359 L207.69147,788.514428 L207.69147,780.224462 L172.391611,780.224462 L172.391611,728.536102 L216.104355,728.536102 L216.104355,720.248152 L172.391611,720.248152 L172.391611,572.157203 L154.920015,572.157203 Z M50.7725344,780.224462 L154.920015,780.224462 L154.920015,728.536102 L50.7725344,728.536102 L50.7725344,780.224462 Z" id="Fill-264" fill="#FFFFFF"></path>
                </g>
            </g>
        </g>
    </g>
</svg>