<?xml version="1.0" encoding="UTF-8"?>
<svg width="179px" height="22px" viewBox="0 0 179 22" version="1.1" xmlns="http://www.w3.org/2000/svg" xmlns:xlink="http://www.w3.org/1999/xlink">
    <title>281418A6-7352-4EC5-BA38-18A8E8FE9318</title>
    <defs>
        <polygon id="path-1" points="0 22 178.397 22 178.397 0.949 0 0.949"></polygon>
    </defs>
    <g id="Page-1" stroke="none" stroke-width="1" fill="none" fill-rule="evenodd">
        <g id="Main-#1" transform="translate(-26.000000, -951.000000)">
            <g id="Tomin-Logo" transform="translate(26.000000, 950.890130)">
                <polygon id="Fill-1" fill="#000000" points="0 21.7599 8.745 21.7599 8.745 13.0159 0 13.0159"></polygon>
                <polygon id="Fill-2" fill="#000000" points="0 9.8599 26.819 9.8599 26.819 1.3559 0 1.3559"></polygon>
                <polygon id="Fill-3" fill="#000000" points="11.904 21.7599 26.819 21.7599 26.819 13.0159 11.904 13.0159"></polygon>
                <g id="Group-12" transform="translate(0.000000, 0.050900)">
                    <path d="M81.5665,11.447 L81.5665,11.174 C81.5665,10.435 81.4845,9.753 81.3205,9.178 L72.9825,15.903 C73.6385,16.012 74.4585,16.067 75.6345,16.067 C80.6645,16.067 81.5665,13.361 81.5665,11.447 M70.0025,13.58 L78.3405,6.827 C77.6575,6.718 76.7825,6.635 75.6065,6.635 C70.4945,6.635 69.6465,9.315 69.6465,11.174 L69.6465,11.447 C69.6465,12.185 69.7565,12.896 70.0025,13.58 M67.5145,20.743 C67.0495,21.152 66.8035,21.343 66.6125,21.48 C66.5305,21.562 66.4475,21.617 66.3935,21.644 L59.8325,21.644 C60.0785,21.453 60.4065,21.207 60.7885,20.88 C61.4455,20.333 62.4565,19.512 63.8785,18.309 C61.9915,16.341 61.5265,13.799 61.5265,11.83 L61.5265,11.01 C61.5265,6.936 63.5505,0.949 75.0875,0.949 L76.1535,0.949 C79.3245,0.949 81.7305,1.386 83.6165,2.125 C84.0265,1.824 84.2185,1.605 84.4095,1.468 C84.4915,1.386 84.5735,1.332 84.6285,1.304 L91.1625,1.304 C91.0805,1.386 89.9865,2.207 87.3345,4.475 C89.2215,6.444 89.7135,8.932 89.7135,11.01 L89.7135,11.83 C89.7135,15.821 87.7995,22 76.1535,22 L75.0875,22 C71.8885,22 69.4005,21.508 67.5145,20.743" id="Fill-4" fill="#000000"></path>
                    <polygon id="Fill-6" fill="#000000" points="35.287 7.863 35.287 1.304 60.22 1.304 60.22 7.863 52.056 7.863 52.056 21.644 43.465 21.644 43.465 7.863"></polygon>
                    <mask id="mask-2" fill="white">
                        <use xlink:href="#path-1"></use>
                    </mask>
                    <g id="Clip-9"></g>
                    <polygon id="Fill-8" fill="#000000" mask="url(#mask-2)" points="136.6 21.644 144.939 21.644 144.939 1.304 136.6 1.304"></polygon>
                    <polygon id="Fill-10" fill="#000000" mask="url(#mask-2)" points="115.7936 1.3044 112.9796 17.2344 111.9506 17.2344 109.1376 1.3044 92.8656 1.3044 92.8656 21.6444 101.0736 21.6444 101.0736 5.7144 102.4486 5.7144 105.2626 21.6444 119.6686 21.6444 122.4826 5.7144 123.8726 5.7144 123.8726 21.6444 132.0806 21.6444 132.0806 1.3044"></polygon>
                    <polygon id="Fill-11" fill="#000000" mask="url(#mask-2)" points="170.1881 1.3044 170.1881 17.2344 168.8031 17.2344 165.6491 1.3044 149.4581 1.3044 149.4581 21.6444 157.6671 21.6444 157.6671 5.7144 159.0541 5.7144 162.2091 21.6444 178.3961 21.6444 178.3961 1.3044"></polygon>
                </g>
            </g>
        </g>
    </g>
</svg>