<?xml version="1.0" encoding="UTF-8"?>
<svg width="346px" height="368px" viewBox="0 0 346 368" version="1.1" xmlns="http://www.w3.org/2000/svg" xmlns:xlink="http://www.w3.org/1999/xlink">
    <!-- Generator: sketchtool 51.3 (57544) - http://www.bohemiancoding.com/sketch -->
    <title>6A989CFB-41B3-4229-B37E-D55A705EFCB9</title>
    <desc>Created with sketchtool.</desc>
    <defs>
        <polygon id="path-1" points="0.329039244 0.441102103 73.0146458 0.441102103 73.0146458 87.7835584 0.329039244 87.7835584"></polygon>
        <polygon id="path-3" points="0.928374508 0.680799893 134.742151 0.680799893 134.742151 9.69430934 0.928374508 9.69430934"></polygon>
    </defs>
    <g id="Page-1" stroke="none" stroke-width="1" fill="none" fill-rule="evenodd">
        <g id="Main-#2" transform="translate(-220.000000, -523.000000)">
            <g id="Group-20" transform="translate(220.000000, 522.000000)">
                <g id="Group-35" transform="translate(0.481436, 0.605524)">
                    <path d="M139.446795,266.142831 C132.852076,249.511828 121.271934,236.313908 107.102135,227.574269 L119.110049,207.030302 L115.275854,202.56475 L102.400278,224.907056 C82.3931467,214.347265 58.0755755,212.235065 35.4460682,221.209796 C33.3023605,222.060493 32.2492898,224.496249 33.0999867,226.639957 C33.9506836,228.784876 36.3876516,229.837947 38.5313593,228.98725 C58.694815,220.990457 80.356079,222.823939 98.2207141,232.15858 L65.9936006,288.082814 L70.2652625,288.521492 C69.7369094,289.173451 68.8813652,290.507663 69.5393829,289.678779 C69.8459731,289.290997 70.181647,288.915333 70.5282272,288.549364 C71.4322441,286.576523 72.7967523,284.847257 74.4484615,283.440335 L102.877734,234.801558 C115.486711,242.628696 125.789596,254.403941 131.668129,269.226911 C131.923823,269.87281 132.164975,270.525981 132.403703,271.175516 C132.790274,272.224951 133.562202,273.059894 134.576495,273.528868 C135.589576,273.997842 136.726262,274.043891 137.774485,273.658533 L137.876278,273.619754 C139.965454,272.79087 141.034278,270.39874 140.257502,268.287751 C139.994537,267.570354 139.729149,266.854169 139.446795,266.142831" id="Fill-1" fill="#004AFF"></path>
                    <path d="M254.665694,228.661634 C261.733022,226.327671 269.274172,225.045567 277.113428,225.045567 C279.41952,225.045567 281.296628,223.168459 281.296628,220.861156 C281.296628,218.555064 279.41952,216.677957 277.113428,216.677957 C268.177475,216.677957 259.588103,218.170918 251.556167,220.88418 L238.403084,187.97966 L251.422866,174.988961 L251.422866,162.286674 C251.422866,159.917568 249.503345,157.998047 247.134239,157.998047 L206.84247,157.998047 C204.828427,157.998047 203.194895,159.631579 203.194895,161.645622 C203.194895,163.660877 204.828427,165.293197 206.84247,165.293197 L244.127716,165.293197 L244.127716,171.967896 L235.465634,180.629978 L235.030591,179.541765 C234.139904,177.314441 231.615686,176.16079 229.385939,177.044206 C229.359279,177.055112 229.331407,177.066018 229.304747,177.076925 C227.071364,177.967612 226.031624,180.548786 226.924734,182.780957 L233.145001,198.344348 L168.302992,278.909708 C170.365508,280.245132 172.142034,281.993787 173.415656,284.039337 L236.168489,205.906098 L243.449098,224.120949 C216.052295,236.864437 197.003712,264.635692 197.003712,296.786461 C197.003712,297.553542 197.020678,298.315777 197.040067,299.080434 C197.097022,301.328359 198.971706,303.158205 201.21963,303.158205 L201.328694,303.156993 C202.444779,303.12791 203.48452,302.667418 204.254025,301.857923 C205.02353,301.047217 205.433125,299.985663 205.405253,298.869578 C205.387076,298.177629 205.371322,297.482045 205.371322,296.786461 C205.371322,268.152391 222.239842,243.392506 246.557413,231.894767 L272.131641,295.875173 C272.794506,297.554754 274.389259,298.640544 276.196082,298.640544 C276.742612,298.640544 277.279448,298.537539 277.793259,298.336378 C278.877837,297.909817 279.732169,297.08578 280.197508,296.018168 C280.661634,294.949344 280.683447,293.765396 280.256887,292.68203 L254.665694,228.661634 Z" id="Fill-3" fill="#004AFF"></path>
                    <path d="M87.3391858,186.025481 L126.991114,186.025481 C129.571077,186.025481 131.680853,183.914492 131.680853,181.335741 C131.680853,178.755779 129.571077,176.646002 126.991114,176.646002 L87.3391858,176.646002 C84.7592232,176.646002 82.6494464,178.755779 82.6494464,181.335741 C82.6494464,183.914492 84.7592232,186.025481 87.3391858,186.025481" id="Fill-5" fill="#004AFF"></path>
                    <path d="M144.892589,49.724204 L145.280371,68.7012889 L127.139441,63.975195 L127.042495,63.9509586 L132.907699,44.5739734 L132.847108,44.5133824 L133.222772,43.5196909 L134.519418,39.2419699 L134.519418,39.2298517 C133.028881,39.0723153 131.732235,38.2967511 130.883961,37.1576413 C130.787016,37.0364594 130.702188,36.9031593 130.617361,36.7698593 C130.362879,36.369959 130.168988,35.9458224 130.035688,35.473213 C129.987215,35.3156765 129.950861,35.15814 129.926624,35.0006036 C129.866033,34.6855306 129.829679,34.3462213 129.829679,34.006912 C129.829679,33.8493755 129.841797,33.7039573 129.853915,33.5464208 C129.853915,33.4615935 129.866033,33.3888843 129.878152,33.304057 C129.89027,33.1828751 129.914506,33.0738114 129.938742,32.9647477 C129.938742,32.9405113 129.938742,32.9162749 129.950861,32.9041568 C129.975097,32.7708567 130.011452,32.6254384 130.059924,32.4921383 C130.084161,32.407311 130.108397,32.3346018 130.132634,32.2497745 C130.229579,31.9710562 130.350761,31.704456 130.484061,31.4620922 C130.55677,31.3166739 130.641597,31.1833738 130.738543,31.0500737 C130.835489,30.9046555 130.932434,30.7713554 131.041498,30.6380553 C131.138443,30.5168734 131.247507,30.3956915 131.356571,30.2866278 L131.417162,30.2260369 C131.647407,30.0079094 131.889771,29.8019002 132.156371,29.6201274 C132.338144,29.4989455 132.519917,29.3898818 132.713808,29.2929362 C132.931935,29.1717544 133.174299,29.0748088 133.416663,29.0020997 C133.465136,28.9778633 133.525727,28.9536269 133.586318,28.9415087 C133.731736,28.893036 133.865036,28.8566814 134.010454,28.832445 C134.204345,28.7839723 134.410354,28.7597359 134.616364,28.7354995 C134.7739,28.7233813 134.943555,28.7112631 135.113209,28.7112631 C136.361383,28.7112631 137.524729,29.147518 138.433593,29.8867275 L138.845612,28.8203269 L143.20816,24.5426059 C145.001652,23.270196 146.75879,21.9129588 148.370509,20.4345396 C154.623495,22.2280317 159.192052,27.9841718 159.192052,34.8067125 C159.192052,42.8531904 152.842121,49.3727765 144.892589,49.724204" id="Fill-7" fill="#FFCCE0"></path>
                    <g id="Group-11" transform="translate(82.403689, 0.000000)">
                        <mask id="mask-2" fill="white">
                            <use xlink:href="#path-1"></use>
                        </mask>
                        <g id="Clip-10"></g>
                        <path d="M72.4499297,11.0430638 C71.5653019,13.866602 69.9535826,16.29024 67.9540814,18.4593959 C67.3239355,19.1501327 66.6574351,19.8045149 65.9666983,20.4346608 C64.354979,21.9130799 62.5978415,23.2703172 60.8043495,24.5427271 L56.4418012,28.820448 L56.0297828,29.8868487 C55.1209185,29.1476392 53.9575723,28.7113843 52.7093988,28.7113843 C52.5397441,28.7113843 52.3700895,28.7235025 52.212553,28.7356207 C52.0065438,28.7598571 51.8005346,28.7840935 51.6066435,28.8325662 C51.4612253,28.8568026 51.315807,28.8931572 51.1825069,28.9416299 C51.121916,28.9537481 51.061325,28.9779845 51.0128523,29.0022209 C50.7704885,29.07493 50.5402429,29.1718755 50.3099973,29.2930574 C50.1161062,29.3900029 49.9343334,29.4990667 49.7525605,29.6202486 C49.4859604,29.8020214 49.2435966,29.9959124 49.013351,30.226158 L48.95276,30.286749 C48.8436963,30.3958127 48.7346326,30.5169946 48.6376871,30.6381765 C48.5286234,30.7714766 48.4195597,30.9047767 48.3347323,31.0501949 C48.2377868,31.183495 48.1529595,31.3167951 48.0802504,31.4622134 C47.9469503,31.7045772 47.8257684,31.9711773 47.7288229,32.2498957 C47.7045865,32.334723 47.6803501,32.4074322 47.6561137,32.4922595 C47.607641,32.6255596 47.5712864,32.7588597 47.54705,32.9042779 C47.5349318,32.9163961 47.5349318,32.9406325 47.5349318,32.9648689 C47.5106954,33.0739326 47.4864591,33.1829963 47.4743409,33.3041782 C47.4622227,33.3768873 47.4501045,33.4617147 47.4501045,33.546542 C47.4379863,33.7040785 47.4258681,33.8494967 47.4258681,34.0070332 C47.4258681,34.3463425 47.4622227,34.6856518 47.5228136,35.0007247 C47.54705,35.1582612 47.5955228,35.3157977 47.6318773,35.4733341 C47.7651774,35.9459435 47.9590685,36.3700802 48.2135504,36.7699804 C48.2862596,36.9032805 48.3710869,37.0365806 48.4801506,37.1577625 C49.3284239,38.3089905 50.6250702,39.0845547 52.1156075,39.2420911 L50.8189612,43.5198121 L50.4432973,44.5135036 L50.5038883,44.5740946 L44.6386845,63.9510798 L44.73563,63.9753162 C44.287257,65.0901896 43.8631204,66.3020086 43.4268655,67.6350094 C43.1723836,71.634012 41.7909099,75.59666 39.2339719,79.0503441 C32.1327128,88.6237139 18.6330496,90.6353333 9.05967975,83.5461924 C-0.513690058,76.4449333 -2.52530954,62.94527 4.57594959,53.3719002 C9.42322544,46.8159596 17.2879305,43.8106486 24.8375626,44.8528129 C34.4715234,41.2900652 36.8588068,37.1092897 41.1001731,26.4452829 C41.1728823,26.2271555 41.2577096,26.0211462 41.3425369,25.815137 C42.178692,23.6702174 43.4753383,21.6707162 45.1961212,19.937815 C49.3647785,15.7691578 55.1330367,14.1695568 60.5256311,15.1511301 C60.7316403,12.9335014 59.301694,10.6189272 59.0229756,8.30435299 C58.5867208,4.80219619 61.2284861,1.20309387 64.6821702,0.548711626 C68.1479724,-0.105670614 71.9167294,2.29373093 72.789239,5.71106041 C73.2254938,7.46819791 72.9831301,9.32228092 72.4499297,11.0430638" id="Fill-9" fill="#FA3D21" mask="url(#mask-2)"></path>
                    </g>
                    <g id="Group-14" transform="translate(210.856500, 358.698413)">
                        <mask id="mask-4" fill="white">
                            <use xlink:href="#path-3"></use>
                        </mask>
                        <g id="Clip-13"></g>
                        <path d="M0.928374508,5.18755462 C0.928374508,7.67663077 30.8833275,9.69430934 67.8353231,9.69430934 C104.787319,9.69430934 134.742272,7.67663077 134.742272,5.18755462 C134.742272,2.69847847 104.787319,0.680799893 67.8353231,0.680799893 C30.8833275,0.680799893 0.928374508,2.69847847 0.928374508,5.18755462" id="Fill-12" fill="#E3E8FF" mask="url(#mask-4)"></path>
                    </g>
                    <path d="M4.40302302,363.885968 C4.40302302,366.375044 34.357976,368.392722 71.3099716,368.392722 C108.261967,368.392722 138.21692,366.375044 138.21692,363.885968 C138.21692,361.396892 108.261967,359.379213 71.3099716,359.379213 C34.357976,359.379213 4.40302302,361.396892 4.40302302,363.885968" id="Fill-15" fill="#E3E8FF"></path>
                    <path d="M277.114519,232.420091 C241.620342,232.420091 212.742696,261.296525 212.742696,296.793126 C212.742696,332.288515 241.620342,361.164949 277.114519,361.164949 C312.608697,361.164949 341.485131,332.288515 341.485131,296.793126 C341.485131,261.296525 312.608697,232.420091 277.114519,232.420091 M330.204308,296.793126 C330.204308,326.064613 306.38843,349.880491 277.114519,349.880491 C247.840608,349.880491 224.02473,326.064613 224.02473,296.793126 C224.02473,267.519215 247.840608,243.703337 277.114519,243.703337 C306.38843,243.703337 330.204308,267.519215 330.204308,296.793126" id="Fill-17" fill="#FA3D21"></path>
                    <path d="M262.46387,296.792641 C262.46387,288.715868 269.036776,282.142962 277.114761,282.142962 C285.192747,282.142962 291.764441,288.715868 291.764441,296.792641 C291.764441,304.871838 285.192747,311.444744 277.114761,311.444744 C269.036776,311.444744 262.46387,304.871838 262.46387,296.792641 M271.639763,296.792641 C271.639763,299.812494 274.09612,302.266428 277.114761,302.266428 C280.133403,302.266428 282.588548,299.812494 282.588548,296.792641 C282.588548,293.775212 280.133403,291.321279 277.114761,291.321279 C274.09612,291.321279 271.639763,293.775212 271.639763,296.792641" id="Fill-19" fill="#FA3D21"></path>
                    <path d="M155.58471,273.23379 C153.848173,273.23379 142.323775,274.753411 125.376486,277.09101 C124.831168,275.476867 124.238588,273.872419 123.561182,272.289783 C116.796808,256.476757 104.283566,244.24708 88.3275453,237.8511 C80.6215885,234.75975 72.5605688,233.192868 64.366249,233.192868 C55.6762952,233.192868 47.1620551,234.948794 39.0598335,238.41096 C6.42433705,252.367479 -8.77187275,290.274388 5.18464625,322.911097 C15.3336301,346.638512 38.5993423,361.969234 64.459559,361.969234 C73.1519364,361.969234 81.6383046,360.225426 89.6835707,356.787496 C105.469936,350.036452 117.691131,337.520786 124.095594,321.542953 C124.474893,320.596522 124.827532,319.644033 125.160783,318.689119 C142.242583,321.043684 153.842114,322.572999 155.58471,322.572999 C169.187377,322.572999 180.253708,311.505457 180.253708,297.902789 C180.253708,284.300121 169.187377,273.23379 155.58471,273.23379 M113.649714,317.356119 C108.372243,330.517684 98.2850617,340.836323 85.2446779,346.411902 C78.5869445,349.260888 71.5826309,350.705376 64.4292635,350.705376 C57.6661019,350.705376 51.0023094,349.40873 44.6245062,346.851792 C31.4471868,341.569473 21.1261247,331.488351 15.5590284,318.472204 C9.98344935,305.436667 9.81864197,291.007539 15.0949017,277.842338 C20.3735851,264.67956 30.4607662,254.35971 43.4987264,248.786554 C50.128588,245.949686 57.1268425,244.510045 64.2959635,244.510045 C85.6288245,244.510045 104.817978,257.156588 113.184376,276.727464 C113.460671,277.372152 113.712729,278.022899 113.962364,278.673645 C108.391632,279.44921 102.441601,280.281729 96.208004,281.155451 C82.4853661,283.077396 69.5152677,284.8927 68.174996,285.005399 C61.0979732,285.046601 55.3527395,290.816071 55.3527395,297.902789 C55.3527395,305.012531 61.1343278,310.796542 68.1240996,310.796542 L68.1289468,310.796542 C69.1929239,310.875311 81.8552202,312.648202 95.2615734,314.525309 C101.760559,315.434174 107.955377,316.300624 113.741813,317.106484 C113.709093,317.188887 113.682433,317.272503 113.649714,317.356119 M115.439571,312.112578 C108.676409,311.172206 101.929001,310.228199 95.9801821,309.394468 C73.04772,306.184359 68.9020873,305.619652 68.2501287,305.619652 C63.9942205,305.619652 60.5320538,302.158697 60.5320538,297.902789 C60.5320538,293.648092 63.9942205,290.185926 68.2501287,290.185926 C68.9735846,290.185926 74.6703456,289.401879 96.9266127,286.28508 C102.642763,285.484068 109.105393,284.578839 115.600743,283.674822 C118.157681,293.004616 118.11042,302.779148 115.439571,312.112578 M155.58471,317.392473 C154.05903,317.385202 141.431876,315.700774 126.670709,313.668553 C129.379125,303.274782 129.439715,292.48717 126.852482,282.116423 C141.493679,280.099956 154.067512,278.421587 155.58471,278.413104 C166.33112,278.413104 175.074394,287.156378 175.074394,297.902789 C175.074394,308.649199 166.33112,317.392473 155.58471,317.392473" id="Fill-21" fill="#FA3D21"></path>
                    <path d="M72.1861167,295.57852 C74.2353026,300.130112 69.4704304,304.514473 64.921262,301.701841 C64.5249972,301.457054 64.1820525,301.114109 63.937265,300.717844 C61.1270569,296.168676 65.5114179,291.406227 70.0617981,293.454201 C71.0142878,293.883185 71.7571328,294.62603 72.1861167,295.57852" id="Fill-23" fill="#FA3D21"></path>
                    <path d="M210.150251,195.828248 L143.094249,136.798123 L144.521772,133.768575 L76.8562246,133.768575 L76.6950527,134.103037 C67.5349132,163.361194 137.036366,198.127068 137.036366,198.127068 C139.170379,198.127068 105.298828,185.539905 183.020049,217.439827 L173.152207,238.769053 L159.793114,266.09557 L155.024607,275.8289 L145.304607,275.8289 L145.304607,300.586362 C145.304607,302.882759 147.390147,304.596271 149.63686,304.14911 C150.742039,303.926135 151.672716,303.218433 152.169561,302.212623 L161.10915,284.334658 L167.627524,276.399667 L190.397602,248.625988 L217.079432,216.085014 C221.685556,210.038037 220.727007,204.104971 210.150251,195.828248" id="Fill-25" fill="#E03321"></path>
                    <path d="M160.165385,100.59394 C160.370183,100.160109 160.559226,99.7226426 160.736152,99.2851759 C160.824615,99.0670485 160.899748,98.8477093 160.980939,98.6271582 C161.063343,98.4066072 161.150594,98.1860561 161.225727,97.9630814 C161.310554,97.7134467 161.383263,97.4613884 161.459608,97.2105419 C161.517775,97.0178626 161.58079,96.8276071 161.63411,96.6349278 C161.706819,96.3707513 161.768622,96.105363 161.832848,95.8411864 C161.876474,95.6594136 161.923735,95.4800644 161.962513,95.2982915 C162.021892,95.0292677 162.070365,94.7590321 162.118837,94.4887965 C162.151557,94.3118709 162.185487,94.1361571 162.213359,93.9592316 C162.256985,93.6853605 162.292128,93.4127012 162.326058,93.140042 C162.346659,92.9667518 162.369684,92.7934617 162.387861,92.6201716 C162.415733,92.3438769 162.436334,92.0700058 162.454511,91.7949229 C162.466629,91.6240564 162.478748,91.45319 162.486019,91.2823235 C162.499349,91.0072406 162.504196,90.7321577 162.507831,90.4570748 C162.510255,90.2886319 162.512679,90.1177655 162.510255,89.9493226 C162.507831,89.6742397 162.50056,89.4015805 162.488442,89.1277094 C162.481171,88.9592665 162.472689,88.7908237 162.461782,88.6223809 C162.444817,88.3497216 162.423004,88.079486 162.396344,87.8092503 C162.379379,87.6408075 162.361201,87.4735765 162.341812,87.3063455 C162.310305,87.0361098 162.27395,86.767086 162.232748,86.499274 C162.208512,86.3332548 162.179428,86.1696593 162.151557,86.0048519 C162.104296,85.7382517 162.055823,85.4716516 162.001291,85.2062632 C161.966148,85.0426676 161.928582,84.8790721 161.891015,84.7166883 C161.831636,84.4537236 161.769834,84.1919707 161.70076,83.9314297 C161.658346,83.7690459 161.611085,83.6090858 161.563824,83.4479139 C161.489903,83.1885846 161.415982,82.9304672 161.333579,82.6747734 C161.282682,82.5172369 161.226939,82.3621241 161.172407,82.2057995 C161.085156,81.9488938 160.996693,81.6919882 160.899748,81.438718 C160.842792,81.2896643 160.779777,81.1430342 160.720398,80.9951923 C160.616182,80.7382867 160.513177,80.4813811 160.40169,80.2293227 C160.341099,80.0911754 160.273237,79.9566635 160.210223,79.8197279 C160.090252,79.5616105 159.970282,79.3022812 159.84183,79.0490111 C159.78245,78.9314646 159.717012,78.8175536 159.655209,78.7024308 C159.512215,78.4309834 159.370432,78.1607478 159.217743,77.8965712 C159.203201,77.8699112 159.185024,77.844463 159.16927,77.817803 C158.60941,76.8531951 157.980476,75.929789 157.293374,75.0487967 C157.2037,74.9348857 157.120084,74.8173392 157.029198,74.7058519 C156.861967,74.4986308 156.685041,74.2986807 156.511751,74.0975188 C156.399052,73.9654305 156.288776,73.8321304 156.172442,73.7036776 C156.002787,73.5146338 155.82465,73.332861 155.648936,73.1498763 C155.519271,73.0141526 155.39203,72.8772171 155.259942,72.7463406 C155.083017,72.5706269 154.900032,72.3997604 154.718259,72.2288939 C154.577688,72.0980175 154.439541,71.9659292 154.295334,71.8374764 C154.111138,71.672669 153.920882,71.5139207 153.730627,71.3539606 C153.581573,71.2291433 153.432519,71.1019023 153.278618,70.9795086 C153.084727,70.8243958 152.885989,70.6741302 152.686039,70.5238646 C152.530926,70.40753 152.375813,70.2911954 152.217065,70.1784962 C152.011055,70.0318661 151.800199,69.8900833 151.589342,69.7483005 C151.428171,69.6416604 151.266999,69.5350204 151.103403,69.4308039 C150.886487,69.2938684 150.665936,69.1617801 150.444174,69.0309037 C150.279366,68.9339582 150.113347,68.8382245 149.946116,68.7449144 C149.717082,68.6176734 149.485625,68.4940679 149.251744,68.372886 C149.083301,68.285635 148.913646,68.2020195 148.74278,68.1196158 C148.501628,68.0020694 148.259264,67.8881584 148.013265,67.7790947 C147.84361,67.7027501 147.671532,67.630041 147.499453,67.5585436 C147.24376,67.4519036 146.986854,67.3476871 146.726313,67.2495298 C146.559082,67.1853034 146.389427,67.1259243 146.219773,67.0665451 C145.948325,66.9695996 145.675666,66.8762896 145.398159,66.7890386 C145.293943,66.7563195 145.187303,66.7272358 145.081875,66.6957285 C144.355995,66.4776011 143.617997,66.2824983 142.858187,66.1285973 L131.745807,63.8806731 C130.285565,63.5849893 128.824111,63.4383592 127.373564,63.4092755 C127.212392,63.4068519 127.05122,63.4141228 126.890048,63.4141228 C125.674594,63.4141228 124.471258,63.4977383 123.286099,63.6746639 C123.110385,63.7001121 122.935883,63.7364666 122.761381,63.7655503 C122.170013,63.8673431 121.582281,63.988525 121.00182,64.1339433 C120.769151,64.1908987 120.536482,64.2502779 120.305024,64.3157161 C119.726986,64.476888 119.15622,64.6622963 118.592724,64.8658819 C118.425493,64.9264729 118.254626,64.9773693 118.088607,65.0415957 C117.362728,65.3215258 116.65139,65.6341751 115.955806,65.9819672 C115.724348,66.0983018 115.500162,66.2291782 115.27234,66.3527838 C114.926972,66.5381921 114.580391,66.7199649 114.244717,66.9223387 C114.042344,67.0435206 113.850876,67.1804561 113.652138,67.3076971 C113.299499,67.5343073 112.944436,67.7584938 112.602703,68.0032812 C112.428201,68.1280986 112.263393,68.2686696 112.091315,68.3983342 C111.741099,68.6637225 111.389672,68.9278991 111.052786,69.2126765 C110.892826,69.3471884 110.744984,69.4962422 110.58866,69.6356013 C110.255409,69.932497 109.919736,70.2281808 109.602239,70.5444656 C109.443491,70.702002 109.296861,70.8752921 109.141748,71.0376759 C108.842429,71.3527488 108.539474,71.6641863 108.255908,71.9962247 C108.08383,72.1985985 107.926293,72.4167259 107.760274,72.6251587 C107.511851,72.9353844 107.258581,73.2395509 107.0247,73.5631066 C106.810208,73.8600023 106.617529,74.1738634 106.416367,74.4816654 C106.249136,74.7373592 106.070999,74.9833584 105.91225,75.2463231 C105.562035,75.8267844 105.233632,76.425423 104.928253,77.041027 L76.856467,133.768696 L144.522014,133.768696 L160.165385,100.59394 Z" id="Fill-27" fill="#004AFF"></path>
                    <path d="M191.765625,342.25718 C190.832524,344.353627 188.239232,345.080719 186.360912,343.747718 L164.863244,336.961532 L165.49339,329.011999 L160.27045,319.511339 L146.855614,295.129541 L165.190435,290.197438 L173.212676,319.026611 L175.951387,328.927172 L191.632325,339.070097 C192.177643,340.063788 192.213998,341.227134 191.765625,342.25718" id="Fill-29" fill="#FFCCE0"></path>
                    <path d="M165.541984,290.100492 L165.190556,290.197438 L146.855735,295.129541 L141.632795,296.535251 L76.4975262,147.881419 L74.4859067,140.889223 C73.4195061,137.217412 76.1703351,133.557719 79.9875648,133.557719 L126.81225,133.557719 C129.732733,144.439853 132.713808,156.558043 135.791828,170.057706 L165.541984,290.100492 Z" id="Fill-31" fill="#FA3D21"></path>
                    <path d="M205.560124,159.098015 C205.554065,159.051966 205.550429,159.020459 205.546794,158.990163 C205.494685,156.627116 204.127754,154.28467 202.221562,153.309156 L161.343273,135.191251 C158.41673,133.304448 155.962797,130.278537 154.443176,126.68307 C154.443176,126.68307 137.906695,85.8265933 136.372532,83.9519094 L136.350719,83.901013 L136.322847,83.8888948 C133.595043,80.5975945 129.335499,78.6962506 124.785119,79.1640127 L124.746341,79.1470472 C124.735434,79.1543181 124.72574,79.161589 124.714833,79.1688599 C124.654242,79.174919 124.596075,79.1737072 124.536696,79.1809781 C117.281536,80.0631823 112.11434,86.6603248 112.996544,93.9154849 C113.401291,97.2431398 141.879037,145.118472 141.879037,145.118472 C144.334182,149.697935 148.27017,152.920162 152.349153,153.710268 L201.552638,163.287273 C203.849035,163.728375 205.614655,161.867021 205.560124,159.098015" id="Fill-33" fill="#FFCCE0"></path>
                </g>
                <polygon id="Fill-36" fill="#FA3D21" points="162.82034 348.38666 193.507232 348.38666 193.507232 342.76382 162.82034 342.76382"></polygon>
            </g>
        </g>
    </g>
</svg>