<?xml version="1.0" encoding="UTF-8"?>
<svg width="154px" height="229px" viewBox="0 0 154 229" version="1.1" xmlns="http://www.w3.org/2000/svg" xmlns:xlink="http://www.w3.org/1999/xlink">
    <!-- Generator: sketchtool 51.3 (57544) - http://www.bohemiancoding.com/sketch -->
    <title>71FB4791-59B9-47CE-950E-239A04F44D95</title>
    <desc>Created with sketchtool.</desc>
    <defs>
        <polygon id="path-1" points="0.370713934 0.76411308 38.4353074 0.76411308 38.4353074 100.048098 0.370713934 100.048098"></polygon>
        <polygon id="path-3" points="0.550979168 0.585817345 22.3559701 0.585817345 22.3559701 16.0791586 0.550979168 16.0791586"></polygon>
        <polygon id="path-5" points="0 0.563715059 88.2486754 0.563715059 88.2486754 55.1402397 0 55.1402397"></polygon>
        <polygon id="path-7" points="0 0.111620842 18.8640689 0.111620842 18.8640689 21.5612184 0 21.5612184"></polygon>
    </defs>
    <g id="Page-1" stroke="none" stroke-width="1" fill="none" fill-rule="evenodd">
        <g id="Main-#2" transform="translate(-660.000000, -444.000000)">
            <g id="Group-5" transform="translate(660.000000, 444.000000)">
                <g id="Group-22" transform="translate(0.502032, 0.127565)">
                    <path d="M94.1052409,12.7904347 L94.1052409,25.4983297 C94.1052409,29.1215001 91.1681146,32.0586264 87.5467308,32.0586264 L87.5467308,40.6681226 L74.2742786,42.8191567 L74.2742786,14.8396341 L94.1052409,12.7904347 Z" id="Fill-1" fill="#FFCCE0"></path>
                    <path d="M76.8871419,16.8895482 L76.8871419,31.2375174 C71.9061759,31.2375174 67.8685205,27.199862 67.8685205,22.218896 L67.8685205,17.5041294 C67.8685205,12.1837144 72.1813082,7.87092679 77.5017231,7.87092679 L99.0245702,7.87092679 C99.0245702,12.8518928 94.9869148,16.8895482 90.0059488,16.8895482 L76.8871419,16.8895482 Z" id="Fill-3" fill="#FA3D21"></path>
                    <path d="M65.2329678,16.3103412 L50.8081759,16.3103412 C42.8418461,16.3103412 36.3833841,9.85187913 36.3833841,1.88554933 L50.8081759,1.88554933 C58.7745057,1.88554933 65.2329678,8.34401137 65.2329678,16.3103412" id="Fill-5" fill="#FA3D21"></path>
                    <g id="Group-9" transform="translate(107.194391, 128.633269)">
                        <mask id="mask-2" fill="white">
                            <use xlink:href="#path-1"></use>
                        </mask>
                        <g id="Clip-8"></g>
                        <path d="M37.9870122,95.5275318 C37.8280072,95.2684787 37.6171915,95.0290779 37.3706444,94.8164757 C37.3706444,94.8164757 30.1725411,88.8725467 30.1546754,88.8636139 C29.2042184,87.9095838 28.5539058,86.4124355 28.1233417,84.5543994 C23.982065,66.7190393 28.4645771,48.7854178 26.8655942,30.8428634 C26.6333396,28.2255337 25.0361432,0.751611336 22.6314157,0.764117348 C15.2099907,0.803421958 7.79035234,0.846299714 0.370713934,0.851659434 C4.80320199,15.6534182 7.0667902,34.4892592 9.58943153,47.386531 C10.5934857,52.5354349 13.2858514,72.4378601 16.6303164,84.5543994 C17.0698134,86.1730347 17.5182433,87.6415978 17.9845389,88.9279305 C18.988593,91.7185578 20.0355249,93.614112 21.1003225,94.0679015 C25.3059158,95.8687673 34.7390221,99.8903435 34.7390221,99.8903435 C35.7430763,100.251231 36.8686174,99.9832453 37.6171915,99.1971531 C38.5765813,98.180593 38.6819892,96.6637924 37.9870122,95.5275318" id="Fill-7" fill="#FFCCE0" mask="url(#mask-2)"></path>
                    </g>
                    <g id="Group-12" transform="translate(123.273549, 212.602208)">
                        <mask id="mask-4" fill="white">
                            <use xlink:href="#path-3"></use>
                        </mask>
                        <g id="Clip-11"></g>
                        <path d="M21.5378543,15.2285711 C20.7892801,16.0128767 19.663739,16.2826493 18.6596849,15.9217615 C18.6596849,15.9217615 9.22657852,11.9001853 5.02098526,10.0975329 C3.95618764,9.64552993 2.90925576,7.74997579 1.90520164,4.95756191 C1.43890604,3.6730158 0.99047617,2.20266607 0.550979168,0.585817345 L12.0440044,0.585817345 C12.4745686,2.44385345 13.1266678,3.94100177 14.0753381,4.89324528 C14.0932039,4.90396471 21.2913072,10.8461071 21.2913072,10.8461071 C21.5378543,11.0604959 21.7486699,11.2998967 21.9076749,11.5589498 L21.9076749,11.5768155 C22.6026519,12.6952103 22.4972441,14.212011 21.5378543,15.2285711" id="Fill-10" fill="#004AFF" mask="url(#mask-4)"></path>
                    </g>
                    <path d="M152.798279,3.78771379 L149.6021,14.033711 L143.395544,33.9522153 C142.532629,36.6356482 140.054652,39.0171503 136.770931,40.2963367 C136.770931,40.2963367 104.341055,53.5920143 102.917156,54.7354211 C102.849266,54.744354 102.792096,54.7532868 102.722419,54.7640063 L102.665249,54.7640063 C102.056028,54.7532868 101.405715,54.8211766 100.796493,54.8211766 C100.22479,54.8211766 99.4315515,54.744354 99.0331457,54.7139822 C98.4328571,54.5406846 97.7360936,54.3477347 97.2519323,54.3477347 C97.03933,54.2512598 96.8070755,54.1529982 96.6230585,54.0761756 C96.5926868,54.0565233 96.574821,54.0458038 96.5444493,54.036871 C96.7391858,54.0565233 96.5926868,53.8332016 95.8280334,53.5830814 C95.2867018,53.0685483 94.7525164,52.5558018 94.2397699,52.023403 C94.2022518,51.9840984 94.1540144,51.9358609 94.1147098,51.876904 C93.8431506,51.4516996 93.7180905,51.2676826 93.6787859,51.2283779 C93.6787859,51.2283779 93.6787859,51.2390974 93.6877188,51.2569631 C93.6305484,51.169421 93.5626586,51.0836655 93.5037017,50.9961234 C92.9623701,50.143928 92.4782087,49.2720803 92.0226326,48.3912997 C90.7630985,45.9419079 89.7376055,43.404974 88.8068008,40.8376683 L125.411899,30.3397644 C127.950619,29.6144156 130.196342,28.2101691 131.697063,26.4093034 L141.323119,10.4980826 L146.14508,2.5281797 C146.968691,1.32760253 148.653429,0.591534379 150.241693,0.746966245 C150.261345,0.755899111 150.280997,0.755899111 150.309582,0.755899111 C152.178338,0.939916149 153.28244,2.28699232 152.798279,3.78771379" id="Fill-13" fill="#FA3D21"></path>
                    <path d="M71.1400933,44.8370911 C70.2092887,47.4043967 69.1927286,49.9395441 67.934981,52.3907225 C67.4794049,53.271503 66.9952436,54.1433507 66.4431924,54.9955461 C66.3842355,55.0830882 66.3270652,55.1706303 66.2591754,55.2581724 C66.2681083,55.2367335 66.2681083,55.2278007 66.2681083,55.2278007 C66.2305902,55.2671053 66.1037435,55.4511223 65.833971,55.8763267 C65.7946664,55.9352836 65.7553618,55.9835211 65.7178437,56.0228257 C65.1943778,56.5552245 64.661979,57.067971 64.1188607,57.5807175 C63.3631403,57.8326244 63.2184279,58.0470131 63.4024449,58.0255743 C63.3827926,58.0470131 63.3542074,58.055946 63.3345551,58.0648789 C63.1416052,58.152421 62.9093507,58.239963 62.6949619,58.3471574 C62.2108006,58.3471574 61.5229699,58.5401073 60.9137485,58.7151915 C60.5260621,58.7437767 59.7328236,58.8205993 59.1611202,58.8205993 C58.5411793,58.8205993 57.9015861,58.7527095 57.2923646,58.7616424 L57.2244748,58.7616424 C57.1565851,58.7527095 57.0976281,58.7437767 57.0315249,58.7330572 C55.616559,57.591437 23.1759632,44.2939728 23.1759632,44.2939728 C19.9029612,43.016573 17.4142647,40.6332844 16.5513499,37.951638 L10.3555141,18.0509994 L7.14861525,7.78713651 C6.66445392,6.28462847 7.77927559,4.93933886 9.64803113,4.75532183 C9.66768343,4.75532183 9.68733574,4.75532183 9.71592091,4.74638896 C11.3041845,4.59095709 12.988923,5.32702524 13.8018138,6.52760242 L18.6630794,14.5564623 L28.2605505,30.4087261 C29.761272,32.2095918 31.9980616,33.6138384 34.5349955,34.3409736 L71.1400933,44.8370911 Z" id="Fill-15" fill="#FA3D21"></path>
                    <path d="M94.8859734,94.3769787 L76.5021354,96.2993314 C67.8676272,97.2015509 60.1335519,90.9324656 59.2313325,82.2961709 L56.8158856,59.1814871 C55.9136661,50.5451924 62.1809648,42.8129037 70.8172596,41.9106842 L89.2010975,39.9883315 C97.8373923,39.086112 105.569681,45.3551973 106.4719,53.991492 L108.889134,77.1061758 C109.791353,85.7424705 103.522268,93.4747592 94.8859734,94.3769787" id="Fill-17" fill="#FA3D21"></path>
                    <g id="Group-21" transform="translate(0.000000, 110.767537)">
                        <mask id="mask-6" fill="white">
                            <use xlink:href="#path-5"></use>
                        </mask>
                        <g id="Clip-20"></g>
                        <path d="M88.2486754,3.49292922 C84.0162835,14.0283512 77.1808546,38.4329408 70.9332081,47.6998959 C68.9000879,50.7013389 66.4024586,53.6938489 62.9168543,54.7300614 C59.8260827,55.6501466 56.5048432,54.8461886 53.3765535,54.0422307 C42.8411315,51.3302126 32.3253618,48.628914 21.7988726,45.9186825 C20.4821682,45.5792336 16.4713114,44.7466905 15.0009617,44.551954 C14.9813094,44.551954 14.9616571,44.5430211 14.9420048,44.5430211 L3.21493843,51.6500092 L-0.000893286589,50.2940002 L11.0883664,30.2004116 L18.8635329,31.856565 L27.473029,33.6860159 C34.6300412,34.8490751 41.6405543,37.0286943 48.8654563,37.6968727 C51.3041286,37.9184078 53.9196718,37.9291272 56.0206818,36.6588737 C58.53975,35.129567 59.7099554,32.137057 60.5621509,29.3285639 C62.3058463,23.5579326 64.9392551,13.1582901 65.3858984,7.0178381 C67.0706369,9.4958151 68.7553754,-1.57200574 70.4311811,0.936343002 C73.5684036,5.64217675 83.5803597,6.14599039 88.2486754,3.49292922" id="Fill-19" fill="#FFCCE0" mask="url(#mask-6)"></path>
                    </g>
                </g>
                <polygon id="Fill-23" fill="#004AFF" points="58.7950565 73.2209192 109.094238 69.9800754 133.396993 137.421426 58.0768541 146.388237"></polygon>
                <g id="Group-31" transform="translate(0.502032, 0.127565)">
                    <path d="M18.6634367,14.556105 L10.3540848,18.0524287 L7.14897257,7.78677919 C6.66481124,6.28605772 7.77784633,4.93898155 9.64838844,4.75675108 C9.66625418,4.75675108 9.68590648,4.75675108 9.71449165,4.74603165 C11.3027552,4.59059978 12.9874937,5.32666793 13.8021711,6.5272451 L18.6634367,14.556105 Z" id="Fill-24" fill="#FFCCE0"></path>
                    <path d="M152.798279,3.78771379 L149.6021,14.033711 C147.095537,12.9974985 144.24774,11.7951348 141.323119,10.4980826 L146.14508,2.5281797 C146.968691,1.32760253 148.653429,0.591534379 150.241693,0.746966245 C150.261345,0.755899111 150.280997,0.755899111 150.309582,0.755899111 C152.178338,0.939916149 153.28244,2.28699232 152.798279,3.78771379" id="Fill-26" fill="#FFCCE0"></path>
                    <g id="Group-30" transform="translate(0.000000, 140.856328)">
                        <mask id="mask-8" fill="white">
                            <use xlink:href="#path-7"></use>
                        </mask>
                        <g id="Clip-29"></g>
                        <path d="M18.8640689,1.76777418 L14.9997111,14.4631632 C14.9800588,14.4631632 14.962193,14.4542303 14.9425407,14.4542303 L3.2154744,21.5612184 L-0.000357314635,20.2052094 L11.0871158,0.111620842 L18.8640689,1.76777418 Z" id="Fill-28" fill="#004AFF" mask="url(#mask-8)"></path>
                    </g>
                </g>
            </g>
        </g>
    </g>
</svg>