<?xml version="1.0" encoding="UTF-8"?>
<svg width="374px" height="335px" viewBox="0 0 374 335" version="1.1" xmlns="http://www.w3.org/2000/svg" xmlns:xlink="http://www.w3.org/1999/xlink">
    <!-- Generator: sketchtool 51.3 (57544) - http://www.bohemiancoding.com/sketch -->
    <title>4AAAF030-2C39-49CC-8D66-F7F109D10B80</title>
    <desc>Created with sketchtool.</desc>
    <defs>
        <polygon id="path-1" points="0.414915593 0.34125933 177.711848 0.34125933 177.711848 281.326113 0.414915593 281.326113"></polygon>
        <polygon id="path-3" points="0.180215568 0.145558728 39.274864 0.145558728 39.274864 39.2389942 0.180215568 39.2389942"></polygon>
    </defs>
    <g id="Page-1" stroke="none" stroke-width="1" fill="none" fill-rule="evenodd">
        <g id="Main-#2" transform="translate(-954.000000, -559.000000)">
            <g id="Group-18" transform="translate(954.000000, 559.000000)">
                <path d="M95.1478005,274.939585 C94.8601487,272.699021 92.8084638,271.120401 90.5696319,271.402855 C88.3273344,271.690506 86.7435168,273.740459 87.0311685,275.981023 C87.3517443,278.483247 86.3692229,281.214206 84.5272118,282.936651 C83.3818033,284.007547 81.870765,284.723211 80.2973445,284.993535 C79.8710654,284.432094 79.4205265,283.889714 78.9232008,283.390656 C78.4189438,282.886399 77.8730985,282.409867 77.2856651,281.973191 C74.7227918,280.035874 71.5170341,278.892198 68.0808084,278.892198 L41.828252,278.892198 L41.828252,258.189934 C41.828252,257.593837 41.6497693,257.042793 41.356919,256.569727 C42.1418964,254.932191 43.6529347,253.585773 45.3805782,253.261732 C47.6003488,252.842384 49.0611346,250.702324 48.6435196,248.482554 C48.2241719,246.26105 46.084112,244.805463 43.8643414,245.219612 C39.8892018,245.9682 36.5396183,248.54147 34.5520485,251.918779 C34.0096689,244.789867 30.6358255,242.045045 27.658803,241.039997 C25.5222088,240.315669 23.1984677,241.462811 22.4741397,243.604603 C21.7498118,245.744663 22.898686,248.066671 25.0387459,248.790999 C25.8029292,249.049193 26.5324557,250.948388 26.4458136,254.521508 C25.9762134,254.684395 25.5499343,254.963383 25.1565791,255.297821 L9.09833229,255.557747 L3.30197579,255.653054 C1.5985921,255.680779 0.234845448,257.070518 0.234845448,258.775635 L0.234845448,264.571992 C0.234845448,275.114602 8.78468789,283.664445 19.3272986,283.664445 L25.6348435,283.664445 C23.0026565,286.421396 21.3720522,290.141808 21.3720522,294.233048 C21.3720522,297.646747 22.5139951,300.809183 24.4218541,303.370324 C23.073703,307.144454 22.7687229,311.289412 23.7009919,315.247223 C24.1445994,317.130822 25.8254561,318.400996 27.6795971,318.400996 C27.9897758,318.400996 28.3051531,318.364606 28.6205303,318.290094 C30.8212396,317.771974 32.1832535,315.569532 31.6651337,313.368822 C31.3029697,311.830059 31.2752442,310.220248 31.5126436,308.646828 C32.6615178,309.06271 33.8675759,309.362492 35.1238863,309.492455 C34.3146491,313.594092 36.0526896,317.974716 39.459457,320.402428 C40.1803193,320.915349 41.0103506,321.161413 41.8299849,321.161413 C43.1088223,321.161413 44.3685984,320.565315 45.1657057,319.442434 C46.4774671,317.602155 46.0477223,315.047946 44.2074441,313.737918 C43.4138025,313.171278 42.958065,312.02587 43.1504105,311.071074 C43.2526482,310.561618 43.243984,310.059094 43.1608075,309.575631 L63.0105127,309.575631 C62.930802,309.826893 62.8510912,310.078155 62.733258,310.322486 C62.1146334,311.616919 61.0645311,312.582112 59.9260539,312.906154 C57.7530701,313.528244 56.4950268,315.791335 57.1153842,317.964319 C57.6283054,319.761276 59.2658411,320.932678 61.0472027,320.932678 C61.4197637,320.932678 61.7975233,320.882425 62.1718172,320.774989 C65.5768517,319.802865 68.4706978,317.283312 70.1116992,313.860949 C70.4600005,313.134889 70.7268581,312.386301 70.9417305,311.632515 C70.9642575,311.686233 70.9867844,311.753814 71.0110442,311.805799 C72.263889,314.59914 74.5495076,316.7392 77.2821994,317.671469 C77.7206085,317.820493 78.1659488,317.893273 78.6043579,317.893273 C80.3060087,317.893273 81.8950248,316.824109 82.4772598,315.124191 C83.2067862,312.985864 82.0665762,310.66039 79.9282492,309.929131 C79.3425486,309.729854 78.800169,309.177078 78.4761276,308.454482 C78.3253703,308.120044 77.9441451,307.191241 77.5993095,306.232979 C81.1377729,303.417111 83.4233915,299.083273 83.4233915,294.233048 C83.4233915,293.707997 83.395666,293.189877 83.3436808,292.676956 C85.8563017,291.976888 88.2077683,290.69805 90.1173601,288.91149 C93.8741616,285.39902 95.8028148,280.044538 95.1478005,274.939585" id="Fill-1" fill="#0031C7"></path>
                <polygon id="Fill-3" fill="#FA3D21" points="42.5881033 276.348386 169.943326 150.268534 172.109379 152.37567 46.8058407 276.348386"></polygon>
                <g id="Group-19" transform="translate(0.234152, 10.947691)">
                    <path d="M163.8085,157.324725 L163.8085,148.35207 C163.8085,141.600917 169.299877,136.109541 176.052762,136.109541 C182.802182,136.109541 188.293558,141.600917 188.293558,148.35207 L188.293558,157.324725 C188.293558,164.075878 182.802182,169.567254 176.052762,169.567254 C169.299877,169.567254 163.8085,164.075878 163.8085,157.324725 M167.898007,148.35207 L167.898007,157.324725 C167.898007,161.819718 171.556037,165.47948 176.052762,165.47948 C180.546021,165.47948 184.204051,161.819718 184.204051,157.324725 L184.204051,148.35207 C184.204051,143.857077 180.546021,140.199048 176.052762,140.199048 C171.556037,140.199048 167.898007,143.857077 167.898007,148.35207" id="Fill-4" fill="#702678"></path>
                    <path d="M0,247.828637 L0,253.624994 L4.77224688,253.624994 C7.02320864,253.624994 8.86348685,251.782983 8.86348685,249.533754 L8.86348685,244.61075 L3.06886319,244.706056 C1.36374666,244.732049 0,246.123521 0,247.828637" id="Fill-6" fill="#FA3D21"></path>
                    <path d="M22.8298468,279.22115 L43.3848187,270.137592 C44.9183838,269.418462 45.5785966,267.592047 44.8594672,266.056749 L44.6671217,265.646065 C43.9479923,264.110767 42.119844,263.450555 40.5862788,264.169684 L20.031307,273.251509 C18.4977418,273.972371 17.8357962,275.798787 18.5549256,277.334085 L18.7490039,277.744768 C19.4681333,279.280066 21.2962816,279.940279 22.8298468,279.22115" id="Fill-8" fill="#FA3D21"></path>
                    <path d="M257.909099,17.1423128 C257.909099,26.2120078 265.261548,33.5661893 274.345105,33.5661893 C277.956348,33.5661893 281.295535,32.4051852 284.007432,30.4280124 C288.103871,27.4440585 290.767249,22.6007651 290.767249,17.1423128 C290.767249,8.06048786 283.414801,0.708039242 274.345105,0.708039242 C274.00027,0.708039242 273.64677,0.718436294 273.301935,0.742696082 C264.705305,1.27467858 257.909099,8.40359058 257.909099,17.1423128" id="Fill-10" fill="#FFCCE0"></path>
                    <path d="M268.992357,162.194185 C269.446361,163.876774 269.886503,165.588822 270.311049,167.30087 C271.205196,170.86186 272.083747,174.452309 272.887785,178.073949 C277.039675,196.530449 281.782463,206.06108 294.979788,219.502735 C295.570687,220.107497 296.161586,220.729588 296.797539,221.336082 C313.178095,237.579743 330.953588,250.444362 348.150312,265.263627 C351.120403,267.809172 354.090494,270.446558 357.031127,273.158455 L356.469687,274.477148 L351.4843,286.083724 C350.288639,288.644864 351.621195,291.660009 354.288038,292.509102 C356.000086,293.06881 357.878487,292.59921 359.13653,291.311708 C359.13653,291.311708 368.031208,281.037688 372.865838,275.461402 L366.485513,267.505925 L357.894083,256.793495 L330.785502,223.018672 C330.210199,222.275283 329.588109,221.563085 328.93656,220.866482 L328.922697,220.866482 C324.148717,214.940162 320.558269,209.547558 317.844638,204.456468 C308.996747,187.847178 309.495805,174.452309 308.54101,156.602304 C308.329603,152.420956 308.026355,148.010873 307.527297,143.252489 C294.903543,150.086818 282.312713,156.936742 268.992357,162.194185" id="Fill-12" fill="#FFCCE0"></path>
                    <g id="Group-16" transform="translate(169.212808, 42.715342)">
                        <mask id="mask-2" fill="white">
                            <use xlink:href="#path-1"></use>
                        </mask>
                        <g id="Clip-15"></g>
                        <path d="M1.42256989,109.613947 C3.04451001,112.478334 6.49979696,113.797027 9.72634877,113.098692 C16.7114349,109.1894 23.4244648,106.205446 29.6367034,103.022216 C38.2749208,98.59827 45.8959599,93.7792364 51.8517379,85.5811609 C54.0940354,82.5365575 56.0798724,79.0206211 57.805783,74.8687316 C58.0483809,74.2622369 58.4885227,73.5656344 59.0187724,72.8828947 C61.0947171,70.1415386 64.595058,67.2771508 63.9123182,69.6858012 C63.3976641,71.4740941 62.8986056,73.2173332 62.3978143,74.9293811 C61.9888636,76.3381816 61.5643173,77.7331195 61.139771,79.0968661 C58.3672238,88.2636003 55.6397305,96.4911341 53.0491317,104.477803 C52.2606886,106.870858 51.5034366,109.251783 50.7305891,111.615379 C42.3055113,138.056815 35.5023736,164.089301 33.0919903,215.80597 C32.8043386,222.155103 35.365479,238.778257 34.7433888,251.551035 C34.5007909,256.915914 33.6828895,261.598053 31.8651382,264.568144 C31.4717831,265.219693 31.0160456,265.794996 30.5169871,266.264597 C30.5013915,266.280192 19.3332248,268.234838 19.3332248,268.234838 C18.9537324,268.538085 18.6366224,268.886386 18.3784289,269.279742 L18.3784289,269.295337 C17.302334,270.946736 17.4686868,273.204629 18.9537324,274.689674 C20.1216679,275.855877 21.8631742,276.250965 23.4088692,275.70512 C23.4088692,275.70512 38.0323229,283.433595 44.5478088,280.766751 C45.850906,280.234769 47.1384076,274.114371 48.3964509,269.537935 C48.7291566,268.324946 49.0635951,267.234988 49.3807052,266.3703 C50.5174495,263.355155 51.5328949,259.643407 52.442637,255.536572 C56.3813869,237.565267 58.2303293,212.078627 59.670321,205.077945 C64.6557074,180.786966 71.7170386,155.860034 83.2335065,133.617274 L84.3997092,129.344086 L84.6423071,131.146241 C86.8846046,127.495143 89.1875517,125.145409 91.4610404,125.115951 L100.688424,125.115951 C100.825319,124.949598 100.962213,124.76765 101.097375,124.585702 C103.552812,121.433662 106.599148,118.751223 110.281437,116.765386 C110.553494,116.58517 110.841145,116.43268 111.144393,116.281923 C119.978421,111.81119 129.843491,112.02433 139.329068,113.887135 C139.798668,113.96338 140.268268,114.069083 140.722273,114.160924 C139.965021,105.219459 139.829859,95.7494778 140.616569,85.4148081 C140.859167,82.2939596 141.117361,79.1731112 141.389417,76.0210716 C141.677069,72.7927869 141.995912,69.5350439 142.328617,66.2617054 C142.96457,59.8675184 143.70796,53.3814908 144.557052,46.7758971 C144.557052,46.7758971 144.692214,47.0323577 144.920949,47.4863623 C146.32975,50.1393434 151.375785,59.761815 154.799881,66.2617054 C156.662686,69.8382913 158.042029,72.473944 158.042029,72.473944 L160.906416,110.009035 L161.573561,120.600165 L161.769372,123.61531 C161.497316,127.479548 164.557515,130.768482 168.421752,130.768482 C168.66435,130.768482 168.906948,130.752886 169.13395,130.721695 C172.104042,130.418448 174.528287,128.146692 175.029079,125.145409 L175.301135,121.402471 L177.711518,89.0052567 C177.725381,82.1726607 177.302568,74.2934281 176.287122,66.2617054 C174.240636,50.1098851 169.740445,33.3792955 161.421071,23.5610128 C155.617783,16.6972256 149.6776,10.847151 142.753164,7.12154067 C142.040966,6.7264527 141.252522,6.3469603 140.419025,5.99865906 C137.161283,4.61931682 133.37329,3.48257247 129.236996,2.60575441 C129.2214,2.59015884 129.207538,2.59015884 129.191942,2.59015884 C119.009763,0.392915175 107.947299,-0.289824574 97.1586249,0.96821872 C91.7330966,1.590309 86.354355,2.72532051 81.232074,4.4079101 C75.5050312,6.27071525 70.4433997,8.81799299 66.5341082,12.1207899 C65.7006112,12.8329879 64.8983053,13.5607816 64.1549161,14.3024379 C51.3821377,27.0007041 48.789806,46.2907013 41.6383671,62.1254115 C34.7139305,77.4298721 25.8643063,83.3700545 14.6666813,91.5663972 C11.6047495,93.8104276 8.37819769,96.2034824 4.96796463,99.0228163 C0.921778555,100.734864 -0.86478155,105.614547 1.42256989,109.613947" id="Fill-14" fill="#FFCCE0" mask="url(#mask-2)"></path>
                    </g>
                    <path d="M203.961395,294.271749 L221.650247,298.25382 C225.590729,280.27905 227.44487,254.790677 228.877931,247.795193 C233.868516,223.505947 240.933312,198.577282 252.442849,176.332789 L253.615983,172.064799 L253.848184,173.865222 C256.097413,170.210658 258.402093,167.86439 260.68078,167.838398 L269.899499,167.838398 C270.036394,167.659915 270.171556,167.483165 270.30845,167.304682 C271.207795,170.865673 272.081147,174.452656 272.885186,178.079494 C277.04574,196.530796 281.778131,206.063159 294.978922,219.497884 C295.564622,220.11131 296.164186,220.724736 296.793207,221.338162 C313.18416,237.58009 330.954454,250.441243 348.151178,265.263974 L357.888018,256.795575 L330.791567,223.015553 C330.204134,222.279095 329.590708,221.5565 328.935694,220.859897 L328.923564,220.859897 C324.149584,214.942242 320.562601,209.540973 317.84897,204.455082 C308.997613,187.844059 309.489741,174.452656 308.547075,156.600917 C309.011476,156.682361 309.475878,156.777667 309.938547,156.872974 C309.176096,147.940173 309.039202,138.461527 309.829378,128.125125 C310.075441,125.016406 310.333635,121.892092 310.607424,118.741785 C310.893343,115.510035 311.206987,112.250559 311.534494,108.977221 L256.329614,108.977221 L222.263673,147.189852 C221.471764,149.589839 220.709313,151.963832 219.94513,154.32223 C211.516587,180.767132 204.711716,206.799617 202.31173,258.528417 C202.011948,264.868886 204.574821,281.493772 203.961395,294.271749" id="Fill-17" fill="#FA3D21"></path>
                </g>
                <polygon id="Fill-20" fill="#FFCCE0" points="266.937598 65.3883881 294.212531 65.3883881 294.212531 29.930975 266.937598 29.930975"></polygon>
                <g id="Group-32" transform="translate(183.915405, 0.550639)">
                    <path d="M27.1669771,115.242484 C34.3270802,99.4095067 36.917679,80.1125782 49.6835261,67.4160448 C50.4321138,66.6657243 51.2378853,65.9431291 52.0696495,65.2343968 C55.9702768,61.9333327 61.0301755,59.3825893 66.7572183,57.5145856 C71.8846978,55.8371946 77.2582408,54.7056487 82.685502,54.0783599 L85.0716254,54.6103424 L114.76214,55.7141628 C118.907098,56.6013779 122.698557,57.7329237 125.958033,59.1105331 C126.789797,59.4657657 127.56611,59.8331282 128.290438,60.2282162 C135.204477,63.9659564 141.149858,69.816031 146.946215,76.6763525 C159.396685,91.3777841 163.283449,121.543098 163.243594,142.122329 L161.736021,162.332466 L146.381308,162.332466 L143.57757,125.58062 C143.57757,125.58062 132.639871,104.727599 130.458223,100.596504 C130.226022,100.145965 130.090861,99.8860383 130.090861,99.8860383 L125.836734,176.650939 L36.2626647,164.720322 C39.549866,154.46363 43.0692681,144.127227 46.668381,132.20874 C47.0911944,130.843261 47.5140079,129.453521 47.9229586,128.048187 C48.4289484,126.329207 48.9332055,124.584235 49.4374625,122.797675 C50.1184694,120.383826 46.6285256,123.248214 44.5543137,125.98957 C44.0240641,126.68444 43.5873879,127.37931 43.3413243,127.980606 C41.6084823,132.125564 39.6191797,135.644966 37.3820807,138.699966 C31.422837,146.896309 23.7983322,151.710144 15.1653134,156.142754 L0.19182561,144.686935 C11.4015805,136.47673 20.2390747,130.543479 27.1669771,115.242484" id="Fill-21" fill="#0031C7"></path>
                    <g id="Group-25" transform="translate(71.046522, 0.000000)">
                        <mask id="mask-4" fill="white">
                            <use xlink:href="#path-3"></use>
                        </mask>
                        <g id="Clip-24"></g>
                        <path d="M0.180215568,19.6925364 C0.180215568,30.4881421 8.93106768,39.2389942 19.7284062,39.2389942 C30.522279,39.2389942 39.274864,30.4881421 39.274864,19.6925364 C39.274864,8.8969307 30.522279,0.144345739 19.7284062,0.144345739 C8.93106768,0.144345739 0.180215568,8.8969307 0.180215568,19.6925364" id="Fill-23" fill="#004AFF" mask="url(#mask-4)"></path>
                    </g>
                    <path d="M96.009844,32.950164 C95.9630573,30.482597 96.2351135,28.0496868 96.8346768,25.7900608 C103.086771,2.20261547 150.041591,12.6828439 145.861976,36.7312252 C145.579522,38.3600967 145.096059,40.1414583 145.907029,41.5831828 C147.208394,43.8982597 150.556245,43.5308972 153.198829,43.2744366 C164.61999,42.1567535 176.14339,50.0585131 179.676654,60.9754177 C183.211652,71.8940551 178.76518,84.7586742 169.530865,91.5704761 C160.296549,98.382278 147.031644,98.9437188 136.995023,93.381296 C126.994792,87.8396673 120.392664,75.2921583 124.301955,64.5468051 C124.842602,63.0600266 125.577327,61.5351257 125.324332,59.973835 C124.619065,55.6070732 118.392964,55.948443 113.965553,55.6954481 C102.419627,55.0300368 96.2125865,43.6625932 96.009844,32.950164" id="Fill-26" fill="#004AFF"></path>
                    <path d="M170.606613,302.905461 C172.318661,303.466902 174.198794,302.997301 175.455105,301.7098 C175.455105,301.7098 184.349783,291.434047 189.184412,285.859494 L182.805821,277.904016 L172.789994,284.873507 L167.804607,296.480083 C166.607213,299.042956 167.939769,302.058101 170.606613,302.905461" id="Fill-28" fill="#004AFF"></path>
                    <path d="M4.48615466,327.802415 C5.65235733,328.968618 7.39559638,329.361973 8.94129145,328.81786 C8.94129145,328.81786 23.5630123,336.544603 30.080231,333.877759 C31.3815954,333.347509 32.6708298,327.225378 33.9288731,322.650676 L17.3958276,317.680885 C17.0024724,318.332433 16.5484678,318.907737 16.0476765,319.377337 C16.0320809,319.3912 4.86564706,321.347578 4.86564706,321.347578 C4.48615466,321.650826 4.16731173,321.999127 3.91085112,322.392482 L3.91085112,322.408078 C2.83475623,324.059476 3.00110906,326.317369 4.48615466,327.802415" id="Fill-30" fill="#004AFF"></path>
                </g>
            </g>
        </g>
    </g>
</svg>